<svg width="336" height="129" viewBox="0 0 336 129" fill="none" xmlns="http://www.w3.org/2000/svg">
<path fill-rule="evenodd" clip-rule="evenodd" d="M57.1999 0.193622V0.387244L54.9904 8.79005L52.7808 17.1933L51.0395 22.6182L49.2982 28.0435L47.6786 31.577L46.0596 35.1104L43.9899 38.064L41.9202 41.0176L38.9627 43.2616L36.0058 45.5055L32.108 47.3462L28.2102 49.1863L22.6071 50.8826L17.0041 52.5793L8.9649 54.656L0.925723 56.7327L0.462862 57.1414L0 57.5501L0.950084 57.5477L1.90017 57.5447L12.7306 55.3632L23.5611 53.1812L28.0782 51.9214L32.5952 50.6616L36.7293 48.6718L40.8634 46.6819L43.8101 43.703L46.7568 40.724L48.5074 37.31L50.258 33.896L51.2724 30.7259L52.2868 27.5558L53.4932 22.6786L54.6995 17.8015L56.2172 9.99811L57.7349 2.19471L58.0073 1.09735L58.2801 0H57.7398H57.1999V0.193622ZM58.9432 1.58507L58.6933 3.17013L57.673 10.9735L56.6528 18.7769L55.6871 23.8979L54.7214 29.0189L53.2968 33.6522L51.8727 38.2854L50.0295 41.3936L48.1863 44.5018L45.702 46.777L43.2176 49.0527L40.0989 50.5875L36.9802 52.1223L32.8101 53.3304L28.6394 54.5385L22.5784 55.5524L16.5169 56.5669L8.49083 57.5735L0.46481 58.5806L0.248484 58.7967L0.0326439 59.0132L0.372238 59.3532L0.711832 59.6936L9.34542 59.0869L17.9785 58.4806L23.8252 57.7393L29.6719 56.998L34.5441 55.8177L39.4163 54.638L43.0705 52.8388L46.7247 51.0401L49.1608 48.5386L51.5969 46.0376L52.9065 43.6137L54.2167 41.1903L55.4825 36.8174L56.7483 32.4446L57.4431 28.0493L58.1383 23.6541L58.8585 16.3384L59.5786 9.02268L59.9026 4.51134L60.2266 0H59.7096H59.1932L58.9432 1.58507ZM61.3784 7.92533L61.0471 15.8507L60.3484 23.4678L59.6497 31.0849L58.9018 34.6851L58.1534 38.2854L57.3656 40.724L56.5773 43.1626L55.2155 45.8889L53.8542 48.6152L51.7177 50.8153L49.5817 53.0158L47.2367 54.3912L44.8922 55.7665L41.7672 56.9019L38.6426 58.0373L33.1828 58.9918L27.723 59.9462L21.3891 60.4369L15.0552 60.9275L7.62504 61.2577L0.194889 61.5879V62.3263V63.0647L14.4462 62.7598L28.6974 62.4555L33.8133 61.7054L38.9291 60.9548L42.5662 59.957L46.2033 58.9586L49.018 57.4569L51.8332 55.9548L54.2089 53.5772L56.5841 51.1991L58.0726 48.1563L59.5605 45.1134L60.3645 41.9804L61.1684 38.8478L61.8593 33.6892L62.5501 28.5312L62.8771 14.2656L63.2035 0H62.4566H61.7097L61.3784 7.92533ZM64.0211 31.9452V63.8904H32.108H0.194889V64.3259V64.7609L8.84309 65.0496L17.4913 65.3384L29.1223 65.8417L40.7533 66.345L44.4698 67.1019L48.1863 67.8589L50.6449 68.9723L53.1029 70.0853L54.9266 71.6879L56.7498 73.2905L57.9205 75.2965L59.0909 77.3025L60.077 80.9603L61.0626 84.6181L61.5694 88.7637L62.0756 92.9093L62.5336 102.907L62.9916 112.905L63.3141 120.587L63.6366 128.268H64.0722H64.5083V96.3232V64.3781H96.4214H128.334V63.9445V63.5104L117.737 63.2032L107.14 62.8959L97.1522 62.4141L87.1641 61.9322L83.6186 61.1816L80.0736 60.4305L77.9089 59.5019L75.7441 58.5728L73.4956 56.4981L71.2471 54.4239L70.2648 52.4959L69.2826 50.5685L68.6195 48.3289L67.9568 46.0888L67.228 41.4556L66.4991 36.8223L66.0114 26.3365L65.5241 15.8507L65.1977 7.92533L64.8708 0H64.4459H64.0211V31.9452ZM65.9816 6.94991L65.9933 13.8998L66.4513 22.5294L66.9093 31.159L67.6738 35.9142L68.4382 40.6699L69.5876 43.9785L70.7369 47.2867L71.9579 49.3702L73.1784 51.4537L75.4971 53.7411L77.8158 56.0284L80.8224 57.5101L83.8291 58.9918L87.933 59.9574L92.0364 60.9231L96.9086 61.4396L101.781 61.9566L115.058 62.2682L128.334 62.5799V61.7717V60.9641L126.507 60.9631L124.68 60.9621L115.423 60.4569L106.166 59.9521L100.319 59.2103L94.4725 58.468L91.3055 57.7018L88.1386 56.9351L84.1346 55.0867L80.1311 53.2387L77.7987 50.8831L75.4659 48.5274L73.8571 45.4812L72.2488 42.4344L71.041 37.6778L69.8331 32.9206L69.1257 26.8242L68.4182 20.7278L67.932 10.9735L67.4453 1.21928L67.4384 0.609641L67.4316 0H66.7008H65.97L65.9816 6.94991ZM68.4061 0.546726V1.09394L69.1554 9.44748L69.9052 17.8015L70.8553 24.3954L71.8059 30.9893L72.8179 34.8812L73.8298 38.7732L75.5678 42.4056L77.3057 46.0381L79.8422 48.5776L82.3786 51.1167L85.358 52.6218L88.3369 54.1273L92.4466 55.3193L96.5563 56.5113L103.066 57.5008L109.576 58.4904L118.699 59.3337L127.821 60.1774L128.159 59.8389L128.497 59.5009L128.294 59.3068L128.091 59.1132L119.077 57.8193L110.064 56.5254L103.973 55.2764L97.883 54.0273L93.3519 52.4101L88.8207 50.7923L86.4567 49.2741L84.0932 47.7558L81.8885 45.3968L79.6843 43.0377L77.9464 39.5828L76.208 36.1283L75.0104 31.9905L73.8128 27.8533L72.833 22.5835L71.8532 17.3138L70.847 9.75425L69.8404 2.19471L69.6012 1.09735L69.362 0H68.884H68.4061V0.546726ZM70.8422 0.683285V1.36657L72.8257 11.5349L74.8096 21.7032L76.0321 26.3365L77.2545 30.9698L78.6363 34.2774L80.018 37.5856L81.5718 40.0095L83.126 42.4334L85.6148 44.6735L88.1035 46.9131L91.3046 48.5269L94.5056 50.1408L99.3613 51.6361L104.217 53.1319L108.846 54.1576L113.474 55.1832L120.762 56.6108L128.05 58.0378H128.192H128.334V57.6228V57.2082L122.122 55.6139L115.91 54.0195L108.602 51.8624L101.294 49.7052L95.8518 47.056L90.41 44.4062L87.3254 41.3058L84.2408 38.2055L82.2037 34.3437L80.1666 30.482L78.0131 23.8979L75.8596 17.3138L73.7163 8.65885L71.573 0.00390165L71.2076 0.00195094L70.8422 0V0.683285ZM197.52 50.6909L195.815 51.0352L194.303 51.8292L192.793 52.6232L191.285 54.3419L189.778 56.0601L189.267 57.9027L188.755 59.7448L188.753 62.8584L188.75 65.9719L189.346 67.9623L189.941 69.9526L191.904 71.9913L193.866 74.0304L195.815 74.5664L197.764 75.1024L200.2 75.0941L202.636 75.0863L204.585 74.183L206.534 73.2798L207.848 71.8771L209.162 70.4745L209.979 68.5236L210.797 66.5728L210.8 62.8549L210.803 59.1376L209.564 56.4284L208.325 53.7196L206.444 52.473L204.562 51.2264L201.949 50.7304L199.336 50.2344L199.281 50.2905L199.225 50.3466L197.52 50.6909ZM323.818 50.7538L321.733 51.164L320.278 52.2009L318.824 53.2377L318.151 54.5404L317.479 55.8431L317.306 57.0624L317.133 58.2817L319.452 58.4304L321.772 58.5792L322.084 57.6988L322.397 56.8185L323.13 55.965L323.862 55.1115H326.011H328.16L329.102 55.6163L330.045 56.1211V57.2477V58.3743L329.192 59.1454L328.339 59.9165L326.39 60.0745L324.442 60.2325L324.295 62.2409L324.148 64.2493L326.593 64.4844L329.038 64.7195L329.785 65.3398L330.532 65.9607V67.5482V69.1357L329.801 69.7429L329.07 70.3506L326.999 70.5769L324.929 70.8032L323.578 70.2813L322.228 69.759L321.934 68.2881L321.64 66.8166H319.265H316.89L316.892 68.4017L316.893 69.9868L317.876 71.6001L318.859 73.2135L320.919 74.1499L322.98 75.0863H326.39H329.801L331.75 74.1904L333.699 73.2944L334.623 72.2551L335.546 71.2158L335.773 68.8533L336 66.4904L335.191 64.9253L334.383 63.3602L333.21 62.8252L332.037 62.2902L333.477 60.9441L334.917 59.5975V57.1482V54.6984L333.683 53.2304L332.449 51.7629L330.881 51.2835L329.314 50.8041L327.609 50.5739L325.903 50.3441L323.818 50.7538ZM143.926 62.9149V74.62H146.605H149.285V69.4991V64.3781H153.426H157.568V69.4991V74.62H160.248H162.927V62.9149V51.2098H160.248H157.568V55.5992V59.9887H153.426H149.285V55.5992V51.2098H146.605H143.926V62.9149ZM166.825 62.9149V74.62H169.261H171.697V65.1096V55.5992H175.828H179.959L180.091 64.9877L180.224 74.3762L182.782 74.5235L185.34 74.6712V62.9403V51.2098H176.082H166.825V62.9149ZM225.573 62.3082L221.713 73.4008L221.491 74.0367L221.27 74.6722L224.111 74.5244L226.953 74.3762L227.669 72.0595L228.386 69.7429H232.414H236.441L237.093 72.0595L237.745 74.3762L240.532 74.5225L243.319 74.6688V74.2377V73.806L239.421 62.6711L235.523 51.5361V51.3727V51.2098L232.478 51.2128L229.433 51.2162L225.573 62.3082ZM248.191 59.4283V67.6467L247.666 69.1542L247.141 70.6622L245.595 70.812L244.05 70.9622V72.913V74.8639L246.188 75.017L248.326 75.1702L249.746 74.5815L251.166 73.9928L252.191 71.9898L253.216 69.9868L253.449 62.793L253.683 55.5992H256.54H259.397V65.1096V74.62H262.077H264.757V62.9149V51.2098H256.474H248.191V59.4283ZM268.655 62.9149V74.62H271.091H273.527L273.575 66.6947L273.623 58.7694L275.363 66.6947L277.102 74.62H279.659H282.217L283.284 69.8648L284.352 65.1096L285.223 61.4518L286.094 57.7939L286.144 66.207L286.195 74.62H288.631H291.067V62.8944V51.1689L287.334 51.3113L283.601 51.4537L282.049 58.3163L280.498 65.1784L280.117 66.6074L279.737 68.0359L279.065 65.1096L278.392 62.1834L277.13 56.6966L275.867 51.2098H272.261H268.655V62.9149ZM297.47 62.5594L293.503 73.909V74.2645V74.62H296.144H298.784L299.593 72.1815L300.403 69.7429H304.46H308.517L309.141 72.1815L309.765 74.62H312.649H315.532L315.317 74.0104L315.103 73.4008L311.305 62.3053L307.507 51.2098H304.473H301.438L297.47 62.5594ZM203.365 56.4976L204.749 57.8837L205.326 60.0286L205.903 62.1731L205.618 64.2596L205.332 66.3455L204.56 67.8389L203.789 69.3323L202.038 70.0648L200.286 70.7973L198.745 70.5081L197.203 70.2184L195.928 68.8836L194.653 67.5482L194.132 65.2164L193.612 62.8847L193.904 61.5586L194.197 60.2325L194.691 58.6099L195.184 56.9868L196.718 56.0509L198.251 55.1149L200.116 55.1135L201.98 55.1115L203.365 56.4976ZM233.606 60.8422L234.692 64.1342L234.916 64.7439L235.14 65.3535H232.452H229.764L231.042 61.4518L232.319 57.5501H232.42H232.521L233.606 60.8422ZM306.872 64.2561L307.211 65.3535H304.469H301.728L301.948 64.9877L302.168 64.6219L303.26 60.9641L304.351 57.3062L305.442 60.2325L306.534 63.1588L306.872 64.2561ZM102.999 65.8914L96.9086 66.2889L92.0749 67.0844L87.2406 67.8803L83.9222 69.004L80.6037 70.1282L78.4672 71.3811L76.3312 72.6341L73.9102 75.2862L71.4887 77.9379L70.1698 80.7267L68.8509 83.5154L67.9052 87.4776L66.96 91.4398L66.387 96.5642L65.814 101.688L65.7702 114.856L65.7263 128.025L66.2136 128.154L66.7008 128.283L67.2903 117.18L67.8799 106.078L68.6687 99.7806L69.4575 93.4843L70.6663 89.308L71.8756 85.1322L73.4201 82.2308L74.9651 79.3294L77.3817 76.9484L79.7983 74.5674L83.2571 72.9018L86.7164 71.2363L90.8378 70.2618L94.9597 69.2869L100.806 68.5534L106.653 67.8194L116.862 67.318L127.072 66.8166H127.703H128.334V66.0851V65.3535L118.712 65.4237L109.089 65.4935L102.999 65.8914ZM1.53475 66.1904L0.194889 66.3938V66.801V67.2083L5.91976 67.4965L11.6446 67.7847L21.1762 68.5358L30.7072 69.2869L36.0365 70.4852L41.3652 71.683L44.7758 73.3622L48.1863 75.0419L50.544 77.3912L52.9017 79.741L54.0812 81.7436L55.2613 83.7461L56.4365 87.1133L57.6121 90.4809L58.3644 94.6211L59.1172 98.7618L59.5981 103.639L60.0789 108.516L60.3537 113.881L60.628 119.246L60.9087 123.757L61.1888 128.268H61.8739H62.5594L62.5457 121.806L62.5316 115.344L62.0824 106.511L61.6327 97.6776L60.8824 93.0092L60.1321 88.3404L58.9622 84.6533L57.7924 80.9661L56.2513 78.5622L54.7102 76.1578L52.5884 74.2001L50.4665 72.2424L48.0879 71.0358L45.7088 69.8287L43.0305 69.0499L40.3528 68.2705L36.2304 67.5209L32.108 66.7713L18.7094 66.3255L5.31073 65.8797L4.09267 65.9334L2.87461 65.9875L1.53475 66.1904ZM0.194889 68.7675V69.2552H0.353724H0.512558L5.83498 69.997L11.1574 70.7388L18.4657 71.962L25.7741 73.1857L30.4027 74.4098L35.0313 75.634L38.9291 77.5268L42.8269 79.4201L44.9765 81.271L47.1256 83.1218L48.9625 85.9667L50.7988 88.811L52.0125 92.0792L53.2266 95.3478L53.9541 98.0302L54.6815 100.713L55.2793 103.639L55.8771 106.565L57.4333 117.268L58.989 127.971L59.6107 128.179L60.2324 128.386L59.9415 125.523L59.6507 122.66L58.8848 114.612L58.1188 106.565L57.1683 100.773L56.2177 94.9801L54.7541 90.6077L53.2905 86.2354L52.0276 84.0782L50.7647 81.9211L48.7116 79.8064L46.6584 77.6912L44.3665 76.347L42.0746 75.0024L38.7488 73.8446L35.4226 72.6867L31.8161 71.922L28.2102 71.1578L22.8507 70.4516L17.4913 69.7458L9.93934 69.0187L2.38739 68.2915L1.29114 68.2856L0.194889 68.2798V68.7675ZM121.026 69.0845L119.321 69.245L113.231 69.76L107.14 70.275L102.024 71.0139L96.9086 71.7528L93.1102 72.715L89.3113 73.6768L86.5527 74.898L83.7945 76.1193L81.317 77.9916L78.8395 79.8639L77.0406 82.4849L75.2413 85.1059L73.8113 89.0378L72.3808 92.9697L71.3893 98.5482L70.3983 104.127L69.6602 111.686L68.922 119.246L68.5975 124.001L68.2726 128.756H68.8265H69.3805V128.278V127.799L70.6117 118.645L71.8429 109.491L72.5572 105.676L73.2715 101.861L74.2123 98.0756L75.1536 94.2905L76.4028 91.2125L77.6526 88.1341L79.1751 85.7589L80.6977 83.3837L82.9565 81.3685L85.2152 79.3538L89.1647 77.4839L93.1136 75.6145L98.1783 74.3801L103.242 73.1457L111.525 71.9537L119.808 70.7617L122.975 70.4676L126.142 70.1736L127.238 69.9492L128.334 69.7244V69.2459V68.7675L125.533 68.8455L122.731 68.9236L121.026 69.0845ZM0.194889 70.6403V71.069L7.13781 72.9077L14.0807 74.7459L21.1455 76.9055L28.2102 79.0646L32.7219 81.2451L37.2336 83.4252L40.5238 86.5324L43.814 89.6391L45.8725 93.2409L47.9315 96.8427L50.3145 104.142L52.6975 111.442L54.7843 119.733L56.8706 128.025L57.3359 128.512L57.8012 129L57.4562 126.561L57.1118 124.123L55.4323 115.588L53.7533 107.053L52.5772 102.587L51.401 98.1224L49.8843 94.1861L48.3681 90.2498L46.235 87.3493L44.1019 84.4489L41.4865 82.4722L38.8711 80.4955L35.6311 79.0251L32.3911 77.5546L27.1339 76.0768L21.8763 74.5986L12.1318 72.6438L2.38739 70.6891L1.29114 70.4506L0.194889 70.2121V70.6403ZM120.539 71.9981L114.449 73.1769L107.627 74.6805L100.807 76.1846L96.2367 77.8194L91.6671 79.4542L88.998 81.0608L86.329 82.6673L83.9543 85.257L81.5791 87.8473L79.6297 91.8412L77.6799 95.8355L76.2309 100.957L74.7819 106.078L72.5684 116.978L70.355 127.878V128.415V128.951L70.8076 128.488L71.2607 128.025L73.5034 119.49L75.7461 110.955L77.4913 105.59L79.236 100.225L80.8371 96.7256L82.4381 93.2268L83.9027 91.0955L85.3677 88.9646L87.4838 86.8763L89.6003 84.7879L93.2067 82.6522L96.8136 80.5165L104.169 78.1125L111.525 75.7086L119.929 73.5793L128.333 71.4499L128.333 71.0841L128.334 70.7183L127.482 70.7686L126.629 70.8188L120.539 71.9981Z" fill="#6B6D6D"/>
</svg>
