<svg width="336" height="61" viewBox="0 0 336 61" fill="none" xmlns="http://www.w3.org/2000/svg">
<path fill-rule="evenodd" clip-rule="evenodd" d="M2.66696 2.83369L0 5.66739V7.72036V9.77367L2.89353 10.6701L5.78706 11.5669L22.936 17.1056L40.0854 22.644L44.5249 35.4242L48.9645 48.204L51.1811 54.602L53.3977 61H55.0293H56.6605L59.1342 58.4583L61.6083 55.9167L62.5451 54.7503L63.4823 53.5843V30.3829V7.18152L61.5283 4.90559L59.5744 2.62931L58.1087 1.32517L56.643 0.0210336L30.9885 0.0105168L5.33391 0L2.66696 2.83369ZM183.381 0.69098L182.454 0.971441L180.326 2.10485L178.199 3.23826L176.241 5.28912L174.284 7.34033L173.385 9.3032L172.486 11.2664L172.11 13.6952L171.734 16.1243L172.139 18.3165L172.545 20.5086L173.756 22.9626L174.967 25.4167L176.657 27.1057L178.347 28.7945L180.958 30.0853L183.57 31.3757L187.494 31.5002L191.419 31.625L193.343 31.0655L195.268 30.5063L197.46 29.043L199.653 27.5794L201.184 25.5005L202.715 23.4215L203.42 21.1393L204.125 18.8571V15.9511V13.0452L203.42 10.763L202.715 8.48075L201.155 6.36328L199.596 4.24581L197.74 2.9904L195.883 1.73534L193.654 1.04296L191.425 0.350575L187.867 0.380724L184.309 0.410873L183.381 0.69098ZM142.397 15.9298V31.2011H145.378H148.359L148.358 27.0819L148.358 22.9626L152.747 23.0703L157.135 23.1782L159.499 27.1885L161.862 31.199L165.106 31.2001L168.351 31.2011V30.9203V30.6392L165.684 26.2805L163.018 21.9221L163.64 21.566L164.262 21.2098L165.632 20.0048L167.002 18.8003L167.938 17.025L168.873 15.25L168.874 11.9195L168.875 8.58908L168.062 7.06583L167.25 5.54259L165.78 4.08595L164.31 2.62931L162.56 1.75287L160.81 0.876437L151.603 0.767406L142.397 0.658729V15.9298ZM230.078 1.05172L230.078 1.22701L231.194 3.76868L232.31 6.31034H235.404H238.497V6.51088V6.7114L235.129 14.837L231.761 22.9626L231.446 23.2957L231.132 23.6287V23.2294V22.8298L226.59 12.0286L222.049 1.22701L218.959 1.12745L215.87 1.02753L212.562 9.01538L209.255 17.0029L206.339 23.9036L203.424 30.8043V31.0904L203.424 31.3764H211.842H220.259L220.259 31.246V31.116L219.316 28.7044L218.374 26.2931H215.108H211.841V26.007V25.7213L214.131 20.1349L216.42 14.5489L217.1 12.9713L217.78 11.3937L218.323 10.025L218.865 8.65674L219 8.79802L219.135 8.93965L223.059 18.4052L226.983 27.8707L227.698 29.5359L228.412 31.2011H231.471H234.529L240.722 16.3301L246.914 1.45874V1.26733V1.07591L238.497 0.976352L230.079 0.876437L230.078 1.05172ZM276.024 1.1632L276.025 1.44962L280.993 8.1747L285.96 14.8994L286.244 15.2745L286.528 15.6493L280.926 23.4254L275.324 31.2011H278.792H282.261L286.245 25.437L290.23 19.6728L290.405 19.6557L290.58 19.6388L294.587 25.3984L298.594 31.1584L302.216 31.2674L305.839 31.3764L305.838 31.1657L305.837 30.9554L300.763 24.0715L295.688 17.1876L295.125 16.3287L294.562 15.4698L299.706 8.235L304.85 0.999841L304.73 0.938136L304.61 0.876437L301.239 0.986869L297.869 1.09765L294.294 6.33313L290.719 11.569H290.64H290.562L286.889 6.33103L283.216 1.09344L279.62 0.984766L276.024 0.876437L276.024 1.1632ZM88.4781 15.6854L82.4347 30.3247L82.3403 30.7668L82.2463 31.2089L90.5762 31.2926L98.9061 31.3764V31.1174V30.8579L97.9921 28.5757L97.0777 26.2931H93.7833H90.4885V26.0039V25.7147L93.8159 17.7426L97.1433 9.77017L97.4368 9.24605L97.7304 8.7216L102.405 19.9614L107.079 31.2011H110.18H113.28L112.754 29.8865L112.227 28.5718L106.522 14.8994L100.817 1.22701L97.6697 1.13656L94.5219 1.04611L88.4781 15.6854ZM106.619 1.31466L106.617 1.57759L107.584 3.94291L108.551 6.30789L123.019 6.30929L137.486 6.31034V3.68103V1.05172H122.054H106.622L106.619 1.31466ZM251.705 3.42687L250.772 5.80201V6.05618V6.31034H261.119H271.466V3.68103V1.05172H262.051H252.637L251.705 3.42687ZM307.591 3.50575V5.95977H313.378H319.165V18.5805V31.2011H321.971H324.777V18.5805V5.95977H330.388H336V3.50575V1.05172H321.795H307.591V3.50575ZM192.404 6.44567L194.187 7.27513L195.445 8.57015L196.703 9.86552L197.346 11.1556L197.987 12.4454V15.9511V19.4569L197.346 20.7467L196.703 22.0368L195.445 23.3321L194.187 24.6272L192.404 25.4566L190.622 26.2861L188.167 26.263L185.712 26.2398L184.595 25.8282L183.478 25.4167L181.916 24.312L180.354 23.2073L179.175 20.8129L177.996 18.4181L178.017 15.7822L178.039 13.1466L178.952 11.3937L179.864 9.6408L181.21 8.34543L182.555 7.0497L184.134 6.33734L185.712 5.62462L188.167 5.62041L190.622 5.61621L192.404 6.44567ZM159.812 6.63638L161.269 7.29756L162.221 8.92248L163.174 10.5474L163.02 12.4051L162.866 14.2624L162.049 15.4095L161.232 16.5562L159.969 17.1003L158.706 17.6444L153.532 17.8053L148.359 17.9662V11.963V5.95977L153.357 5.96748L158.355 5.9752L159.812 6.63638ZM111.88 13.7601L111.878 14.1983L112.845 16.5636L113.812 18.9286L125.649 18.93L137.486 18.931V16.1264V13.3218H124.685H111.883L111.88 13.7601ZM246.567 15.649L245.511 17.9764V18.4536V18.931H258.489H271.466V16.1264V13.3218H259.544H247.623L246.567 15.649ZM0 22.5027V27.9278L4.16002 28.3349L8.32038 28.7419L11.3665 29.6239L14.4126 30.5063L16.5885 31.6015L18.7641 32.6967L20.3424 33.7691L21.9207 34.8419L23.6112 36.2641L25.3017 37.6868L27.3991 40.2709L29.4965 42.855L30.8412 45.5295L32.1859 48.204L32.9319 50.6195L33.6775 53.0346L34.1008 57.0175L34.5238 61H40.2348H45.9457L45.9387 59.5101L45.932 58.0201L45.4344 54.3391L44.937 50.658L44.0644 47.6782L43.1918 44.6983L42.1119 42.2954L41.032 39.8922L39.0658 36.8615L37.0996 33.8305L33.3682 30.1326L29.6367 26.4347L26.5647 24.4014L23.4923 22.3677L20.334 20.9745L17.1753 19.5814L13.0595 18.5261L8.94363 17.4709L4.47182 17.2742L0 17.0775V22.5027ZM9.46973 19.4927L12.4509 20.0119L15.2568 20.9216L18.0626 21.8313L20.5304 22.991L22.9978 24.1504L25.6924 25.9085L28.3867 27.6667L31.2603 30.398L34.1338 33.1293L36.1039 35.7712L38.0736 38.4135L39.5161 41.2052L40.9583 43.9971L41.8506 46.4957L42.7428 48.9942L43.2623 51.579L43.7814 54.1638L44.0223 56.7055L44.2633 59.2471H40.2355H36.2077L35.9573 56.5764L35.7068 53.9058L35.0271 51.4538L34.3474 49.0016L33.4481 46.8497L32.5492 44.6983L30.6574 41.8435L28.7655 38.9888L26.1978 36.4804L23.6301 33.9717L21.5478 32.5393L19.4656 31.1068L16.6597 29.7764L13.8539 28.4463L11.2967 27.7385L8.73916 27.0307L5.24658 26.6076L1.75365 26.1848V22.4536V18.7224L4.12109 18.8479L6.48852 18.9735L9.46973 19.4927ZM116.994 26.3741L117.187 26.9806L118.01 29.0034L118.833 31.0259L128.16 31.1191L137.486 31.2127V28.5876V25.9629L127.144 25.865L116.801 25.7672L116.994 26.3741ZM242.029 26.7313L241.721 27.5201L240.986 29.2144L240.251 30.9088V31.055V31.2011H255.858H271.466V28.5718V25.9425H256.901H242.337L242.029 26.7313ZM0 38.9138V44.523H1.85537H3.71073L5.77478 45.0604L7.83883 45.5979L9.53076 46.5181L11.2223 47.4384L13.1664 49.4756L15.1102 51.5127L16.007 53.4707L16.9042 55.429L17.095 58.2147L17.2861 61H23.1851H29.0843L28.8883 58.6336L28.6922 56.2672L28.0216 53.3354L27.3514 50.4039L25.8731 47.5509L24.3947 44.6983L21.404 41.6837L18.4134 38.6691L15.9582 37.2342L13.5031 35.7993L10.8727 34.9285L8.24217 34.0576L5.49876 33.6811L2.75499 33.3046H1.37767H0V38.9138ZM111.017 44.0658L110.763 44.6983L108.546 50.4828L106.329 56.2672L106.077 56.9063L105.826 57.5458L107.005 57.4322L108.185 57.319L108.765 55.7414L109.344 54.1638L112.105 54.0635L114.866 53.9629L115.493 55.7288L116.121 57.4943H117.158H118.196L118.182 57.2313L118.167 56.9684L115.608 50.3075L113.049 43.6466L112.16 43.54L111.271 43.4334L111.017 44.0658ZM119.942 43.6466L119.933 43.8218L119.928 50.5704L119.923 57.319H123.437H126.951L128.036 56.2346L129.121 55.15L129.314 53.7098L129.507 52.2696L128.433 51.1955L127.358 50.1213L128.213 49.2663L129.069 48.4112L129.064 47.431L129.059 46.4511L128.62 45.5747L128.182 44.6983L126.96 44.0855L125.737 43.4723L122.843 43.472L119.95 43.4713L119.942 43.6466ZM131.875 50.4828V57.4943L132.839 57.4918L133.804 57.4897L136.96 52.4961L140.117 47.5029L140.214 52.4986L140.312 57.4943H141.354H142.397V50.4828V43.4713H141.379H140.362L137.17 48.4396L133.979 53.408V48.4396V43.4713H132.927H131.875V50.4828ZM149.291 43.7342L149.129 43.9971L146.639 50.5669L144.15 57.1367V57.3155V57.4943H145.188H146.226L146.853 55.7288L147.48 53.9629L150.241 54.0635L153.002 54.1638L153.582 55.7414L154.162 57.319L155.341 57.4322L156.521 57.5458L156.264 56.9063L156.007 56.2672L153.79 50.4828L151.574 44.6983L151.332 44.0848L151.09 43.4713H150.271H149.453L149.291 43.7342ZM157.829 50.4828V57.4943H162.739H167.649V59.0718V60.6494H168.701H169.754V58.0201V55.3908H169.052H168.351V49.431V43.4713H167.299H166.246V49.6063V55.7414H163.09H159.933V49.6063V43.4713H158.881H157.829V50.4828ZM171.858 50.4828V57.4943H172.874H173.891L176.996 52.6209L180.1 47.7479L180.197 52.6209L180.295 57.4943H181.337H182.38V50.4828V43.4713H181.412H180.444L177.291 48.4449L174.138 53.4185L174.041 48.4449L173.943 43.4713H172.901H171.858V50.4828ZM187.786 43.9694L186.704 44.4406L185.945 45.4054L185.186 46.3705V47.9358V49.5012L186.36 50.6752L187.535 51.8493L185.989 54.6718L184.443 57.4943L185.604 57.4914L186.764 57.4883L188.164 54.8621L189.564 52.2356H191.058H192.551V54.8649V57.4943H193.603H194.656V50.4828V43.4713L191.762 43.4849L188.868 43.4986L187.786 43.9694ZM202.021 50.4828V57.4943L205.265 57.4935L208.509 57.4932L209.737 56.88L210.965 56.2672L211.614 54.9375L212.264 53.6074L212.049 52.4572L211.833 51.3066L210.764 50.2829L209.694 49.2589L206.91 49.1327L204.125 49.0061L204.125 47.2028L204.124 45.3994H207.369H210.614L210.725 44.4353L210.836 43.4713H206.428H202.021V50.4828ZM213.244 43.7559V44.0848L215.521 48.8852L217.797 53.6853L217.265 54.7135L216.734 55.7414H215.907H215.08L214.901 56.4222L214.724 57.103L214.919 57.2986L215.115 57.4943H216.245H217.375L218.115 56.8807L218.854 56.2672L221.485 50.1543L224.117 44.0417V43.7563V43.4713H222.976H221.836L220.463 46.9924L219.09 50.5133L218.873 50.6475L218.656 50.7814L217.081 47.214L215.506 43.6466L214.375 43.5368L213.244 43.4267V43.7559ZM227.351 48.047L226.968 52.6227L226.213 54.182L225.457 55.7414H224.787H224.117V58.1954V60.6494H225.169H226.221V59.0718V57.4943H230.956H235.691V59.0718V60.6494H236.743H237.795V58.1954V55.7414H236.919H236.042V49.6063V43.4713H231.888H227.734L227.351 48.047ZM239.028 44.1864L239.27 44.9503L241.334 49.3213L243.397 53.6919L242.867 54.7166L242.337 55.7414H241.51H240.683L240.505 56.4222L240.327 57.103L240.522 57.2986L240.718 57.4943H241.848H242.979L243.718 56.8807L244.458 56.2672L247.089 50.1543L249.72 44.0417V43.7563V43.4713H248.58H247.439L246.066 46.9924L244.694 50.5133L244.476 50.6475L244.259 50.7814L242.685 47.214L241.11 43.6466L239.947 43.5344L238.785 43.4222L239.028 44.1864ZM251.474 50.4607V57.4943H258.664H265.854V59.095V60.696L266.818 60.5849L267.783 60.4741L267.887 58.1078L267.99 55.7414H267.273H266.555V49.6063V43.4713H265.503H264.451V49.6063V55.7414H262.347H260.242V49.6063V43.4713H259.19H258.138V49.6231V55.7747L255.946 55.6706L253.754 55.5661L253.693 49.6063L253.632 43.6466L252.553 43.5368L251.474 43.4267V50.4607ZM270.063 50.4828V57.4943H274.447H278.831V56.6178V55.7414H275.499H272.167V53.4767V51.2123L275.061 51.1103L277.954 51.0086L278.066 50.2198L278.178 49.431H275.173H272.167L272.167 47.4152L272.166 45.3994H275.411H278.656L278.766 44.4353L278.878 43.4713H274.47H270.063V50.4828ZM280.935 50.4719V57.4943H281.987H283.04L283.039 51.4468L283.039 45.3994H286.284H289.528V44.523V43.6466L285.232 43.548L280.935 43.4495V50.4719ZM293.175 44.2629L291.983 45.0545L291.194 46.6159L290.405 48.1774V50.4828V52.7881L291.194 54.3496L291.983 55.9111L293.175 56.7027L294.367 57.4943H296.017H297.667L298.858 56.7027L300.05 55.9111L300.839 54.3496L301.628 52.7881V50.4828V48.1774L300.839 46.6159L300.05 45.0545L298.858 44.2629L297.667 43.4713H296.017H294.367L293.175 44.2629ZM126.627 46.3001L126.981 46.9626L126.771 47.8023L126.56 48.6419L125.693 49.0366L124.827 49.431H123.441H122.054L122.054 47.4152L122.053 45.3994L124.163 45.5183L126.272 45.6375L126.627 46.3001ZM233.937 50.5704V55.7414H230.919H227.9L228.155 55.1279L228.41 54.5144L228.85 53.1121L229.291 51.7098L229.54 48.5546L229.789 45.3994H231.863H233.937V50.5704ZM297.873 45.9309L298.772 46.6373L299.187 47.8962L299.603 49.1548L299.453 51.2256L299.303 53.2968L298.589 54.256L297.874 55.2155L296.945 55.5461L296.017 55.8767L295.088 55.5461L294.159 55.2155L293.438 54.2476L292.717 53.2796L292.573 51.0013L292.427 48.7229L292.866 47.6627L293.306 46.6026L294.182 45.9134L295.059 45.2241H296.017H296.974L297.873 45.9309ZM192.551 48.0722V50.5697L190.627 50.4102L188.704 50.2507L187.997 49.6112L187.29 48.9718V47.9145V46.8568L187.871 46.2159L188.451 45.5747H190.501H192.551V48.0722ZM113.1 49.1951L113.987 51.5506V51.8055V52.0603L112.053 52.0645L110.118 52.0691L110.242 51.714L110.366 51.3592L111.188 48.9974L112.009 46.6359L112.111 46.7379L112.214 46.8399L113.1 49.1951ZM151.996 51.368L152.214 52.0775L150.268 52.08L148.322 52.0821L148.526 51.2684L148.731 50.4544L149.477 48.4603L150.223 46.4666L151 48.5623L151.777 50.658L151.996 51.368ZM0 52.4951V55.3025L2.80444 58.1512L5.60889 61H8.76686H11.9248V59.6615V58.3227L11.4068 56.5786L10.8884 54.8344L9.61353 53.3455L8.33897 51.857L6.53692 50.9427L4.73486 50.0284L2.36743 49.858L0 49.6873V52.4951ZM208.957 51.3792L209.737 51.9247V53.2642V54.6038L209.251 55.0066L208.765 55.4097L206.445 55.626L204.125 55.8427V53.3382V50.8333H206.151H208.178L208.957 51.3792ZM126.614 51.8851L127.315 52.5862V53.2484V53.9107L126.701 54.6676L126.088 55.4241L124.071 55.6317L122.054 55.8395V53.5117V51.1839H123.983H125.912L126.614 51.8851Z" fill="#6B6D6D"/>
</svg>
