<svg width="336" height="66" viewBox="0 0 336 66" fill="none" xmlns="http://www.w3.org/2000/svg">
<path fill-rule="evenodd" clip-rule="evenodd" d="M25.9488 0.684481L22.8565 1.36941L18.8807 3.31597L14.9049 5.26297L12.2649 7.42196L9.62499 9.58094L7.48336 12.2423L5.34172 14.9036L3.43422 18.9116L1.52671 22.9196L1.02002 25.0782L0.513322 27.2367L0.256661 30.6448L0 34.053L0.702836 37.7885L1.40567 41.5235L1.58812 41.7074L1.77056 41.8918L5.24542 41.0234L8.72027 40.155L10.4873 39.8637L12.2543 39.572L12.9545 39.3667L13.6547 39.161L13.4524 34.5714L13.25 29.9822L13.9591 27.5235L14.6681 25.0648L15.822 22.9833L16.9758 20.9023L18.9156 18.9468L20.8553 16.9913L22.8304 15.8784L24.8055 14.7655L27.1177 13.9911L29.4298 13.2171L32.9904 13.2492L36.5509 13.2812L39.0274 14.1576L41.5039 15.0341L43.3063 16.1813L45.1091 17.3284L46.9265 19.2331L48.7443 21.1383L49.7842 23.0114L50.8241 24.8844L51.5905 27.2109L52.3574 29.5377L52.1052 34.3554L51.8529 39.173L52.8164 39.3863L53.7794 39.6001L58.8362 40.7188L63.8935 41.837L64.204 41.3307L64.5146 40.8239L65.0001 37.5315L65.486 34.2391V32.2347V30.2302L64.7889 26.7976L64.0922 23.365L63.0683 20.7914L62.0443 18.2178L60.5626 15.735L59.0805 13.2518L56.5197 10.424L53.9592 7.59653L50.9977 5.6188L48.0366 3.64106L46.2696 2.87642L44.5026 2.11134L41.852 1.23848L39.2015 0.365623L34.1213 0.183034L29.0411 0L25.9488 0.684481ZM187.411 13.181L186.306 13.3716L185.312 13.5894L184.318 13.8072V33.1708V52.5344H189.84H195.362V33.4006V14.2668L194.589 13.857L193.816 13.4469L191.166 13.2189L188.515 12.9909L187.411 13.181ZM207.763 13.3552L205.807 13.7711L205.497 14.1145L205.188 14.4583L204.686 29.8223L204.184 45.1864L203.924 48.6377L203.664 52.0891H208.946H214.228L214.514 48.6818L214.8 45.2746L214.832 39.2184L214.865 33.1623L215.219 31.1583L215.573 29.1543L215.628 29.7466L215.683 30.3389L219.932 40.7575L224.18 51.1761L224.827 51.7172L225.474 52.2583L228.641 52.285L231.807 52.3117L232.933 51.9915L234.059 51.6718L238.676 40.2699L243.293 28.868L243.568 37.0274L243.843 45.1864L243.899 48.6377L243.956 52.0891H249.257H254.558L254.548 50.6417L254.538 49.1944L253.894 32.717L253.249 16.2396L253.241 15.2915L253.232 14.3438L251.855 13.7684L250.477 13.1931L246.664 13.1574L242.851 13.1222L241.26 13.4638L239.67 13.8058L234.977 25.0425L230.284 36.2797L229.58 38.008L228.875 39.7368L226.993 35.1133L225.111 30.4903L221.68 22.3558L218.248 14.2209L217.411 13.7693L216.574 13.3177L213.147 13.1285L209.719 12.9392L207.763 13.3552ZM264.056 13.1641L263.172 13.3797L262.178 13.5934L261.184 13.8072V26.6342V39.4611L261.913 41.6558L262.642 43.8504L264.138 46.1483L265.635 48.4462L267.054 49.5364L268.473 50.6266L270.76 51.7943L273.047 52.9615L276.171 53.4505L279.296 53.939L282.418 53.4509L285.54 52.9624L288.174 51.6219L290.807 50.2819L292.544 48.5317L294.279 46.782L295.248 44.8706L296.218 42.9597L296.808 40.733L297.398 38.5063L297.403 26.1568L297.408 13.8072L296.193 13.4647L294.978 13.1222L292.107 13.1396L289.236 13.157L288.046 13.4758L286.857 13.7943L286.721 26.2298L286.585 38.6658L285.661 39.9221L284.737 41.1784L283.276 42.1804L281.816 43.1824L279.562 43.1726L277.308 43.1628L275.416 42.297L273.523 41.4313L272.664 39.5235L271.806 37.6157L271.796 25.7506L271.786 13.8856L271.019 13.5885L270.251 13.2915L267.595 13.12L264.939 12.9486L264.056 13.1641ZM114.191 13.8419L112.316 14.2872L111.917 15.0407L111.519 15.7943L106.373 33.385L101.228 50.9757L100.997 51.7551L100.767 52.5344H106.112H111.456L111.643 51.9777L111.829 51.4211L112.544 48.8604L113.258 46.2993L115.767 46.6337L118.276 46.9677H120.043H121.81L124.288 46.6373L126.765 46.3068L127.616 49.3093L128.467 52.3117L133.494 52.4382L138.522 52.5651L138.828 52.2155L139.134 51.8664L133.696 33.4224L128.258 14.978L127.559 14.273L126.859 13.5676L121.463 13.4821L116.067 13.397L114.191 13.8419ZM144.993 14.4814L144.56 15.6295V18.7473V21.8646L145.018 22.7263L145.475 23.5876H153.494H161.512L160.393 24.8123L159.274 26.037L151.852 35.9519L144.43 45.8664L144.235 47.976L144.041 50.0851L144.51 51.3097L144.98 52.5344H160.216H175.452L175.91 51.6731L176.367 50.8114V47.3048V43.7978L175.815 43.0505L175.262 42.3033L167.471 42.1862L159.68 42.069L167.821 30.9922L175.962 19.9154L175.833 16.7415L175.704 13.5676L160.565 13.4505L145.426 13.3333L144.993 14.4814ZM303.689 14.1243L303.372 14.9036V18.0209V21.1383L303.689 21.9176L304.007 22.697H309.101H314.195V37.6295V52.562L319.606 52.4369L325.018 52.3117L325.134 37.5043L325.251 22.697H330.295H335.34L335.599 21.8717L335.859 21.047L335.93 18.1977L336 15.3489L335.67 14.3469L335.34 13.3449H319.673H304.007L303.689 14.1243ZM120.989 23.031L121.289 24.2556L122.948 30.4903L124.608 36.725L124.46 36.8737L124.312 37.0225L122.537 37.2625L120.762 37.5026L118.385 37.2033L116.009 36.904L118.018 29.3552L120.027 21.8063H120.358H120.689L120.989 23.031ZM21.0895 44.8061L19.3224 44.9918L15.5675 45.6575L11.8126 46.3233L8.16808 47.2696L4.52359 48.216V48.5068V48.7972L5.87006 50.9379L7.21698 53.0786L9.51455 55.5386L11.8126 57.9991L14.1663 59.7595L16.5195 61.5204L19.2619 62.8141L22.0043 64.1078L25.716 65.0541L29.4276 66L34.3148 65.7836L39.2015 65.5667L42.7355 64.4062L46.2696 63.2452L49.1304 61.564L51.9912 59.8824L55.3711 56.5424L58.7514 53.2024L60.1306 50.9998L61.5102 48.7972V48.4756V48.1541L57.4239 47.2313L53.3377 46.3086L49.141 45.5823L44.9443 44.8559L33.9004 44.7379L22.8565 44.6204L21.0895 44.8061Z" fill="#6B6D6D"/>
</svg>
