<svg width="331" height="368" viewBox="0 0 331 368" fill="none" xmlns="http://www.w3.org/2000/svg">
<mask id="path-1-inside-1_161_12" fill="white">
<path fill-rule="evenodd" clip-rule="evenodd" d="M144.657 1.34273C136.421 2.5639 124.692 5.66885 117.456 8.54275C113.858 9.97192 109.78 11.5873 108.393 12.1334C107.005 12.6802 105.728 13.3073 105.555 13.5283C105.381 13.7494 103.82 14.6113 102.086 15.4445C100.352 16.2771 97.3143 17.9989 95.3364 19.2693C93.3586 20.5403 91.4924 21.5803 91.1891 21.5803C90.8863 21.5803 89.9718 22.2808 89.157 23.1371C88.3421 23.9934 87.4113 24.6939 87.0884 24.6939C86.7648 24.6939 85.9424 25.3945 85.26 26.2508C84.5782 27.107 83.7331 27.8076 83.3825 27.8076C83.0318 27.8076 81.8095 28.7591 80.6661 29.9211C79.5227 31.0838 78.0286 32.2103 77.3456 32.4245C76.0167 32.8411 72.1285 37.2625 72.1285 38.3573C72.1285 38.7204 71.6278 39.0168 71.016 39.0168C70.3223 39.0168 69.4954 39.9465 68.82 41.4859C68.224 42.8441 67.0509 44.399 66.2121 44.9414C65.3739 45.4838 64.3289 46.8246 63.8893 47.9212C63.4503 49.0172 62.7408 50.3349 62.3132 50.8487C61.528 51.7915 59.4562 55.5123 55.8985 62.3692C54.8321 64.4242 53.1904 68.3475 52.2494 71.0875C51.3084 73.8275 50.288 76.3359 49.9815 76.6609C49.675 76.986 49.4239 77.8603 49.4239 78.6039C49.4239 79.3468 48.8759 81.649 48.2061 83.719C47.5363 85.7896 46.8142 89.539 46.6016 92.0511C45.935 99.9368 45.327 101.177 41.9207 101.609C40.3238 101.811 38.5806 102.208 38.0464 102.491C37.5122 102.774 35.5256 103.196 33.6316 103.428C31.7377 103.661 29.6205 104.084 28.9267 104.37C26.5516 105.348 22.6193 106.122 19.4665 106.231C16.1504 106.347 13.5501 108.319 13.4977 110.757C13.4851 111.341 13.2108 112.462 12.8872 113.248C12.5643 114.035 11.127 118.462 9.69406 123.086C6.85535 132.245 5.98627 135.01 4.01854 141.145C1.27552 149.698 -0.0967614 154.924 0.00530348 158.174C0.116624 161.719 1.98181 162.913 5.73526 163.51C7.85436 163.848 8.13564 164.107 8.31034 165.882C8.40174 166.814 8.92249 167.812 9.69406 168.707C10.8337 170.029 12.5206 171.128 14.1795 171.455C15.164 171.65 16.2942 172.195 16.6915 172.668C17.0888 173.14 17.8046 173.527 18.2821 173.527C18.7601 173.527 19.1512 173.947 19.1512 174.461C19.1512 175.397 19.7919 175.631 21.807 175.432C22.4004 175.373 23.4165 175.606 24.0648 175.948C24.7201 176.294 33.4847 176.749 43.7983 176.971C54.0033 177.19 63.2044 177.438 64.245 177.52C65.2856 177.602 66.7564 177.718 67.5132 177.778C68.8786 177.885 68.8913 178.002 69.0899 192.188C69.2332 202.417 68.175 206.227 72.5286 207.644C75.9382 208.754 82.6671 208.397 95.8921 208.506C120.602 208.711 120.602 208.711 120.405 210.875C120.171 213.457 120.546 214.627 121.607 214.627C122.036 214.627 122.869 215.152 123.457 215.794C124.343 216.76 125.716 217.009 131.464 217.243C140.905 217.626 140.273 216.564 140.693 232.761C140.79 236.468 140.493 240.96 140.693 243.8C141.521 255.522 142.729 259.064 134.966 260.709C123.358 263.17 123.214 263.203 123.216 306.113C123.219 375.484 117.808 367.851 166.853 367.668C209.662 367.508 209.662 367.508 209.629 317.557C209.62 304.099 209.662 296.639 209.629 289.259C209.523 266.062 208.943 265.781 205.935 264.362C204.318 263.599 202.853 262.815 202.68 262.621C202.024 261.883 199.506 260.709 198.581 260.709C197.603 260.709 196.919 260.432 193.539 258.666C191.171 257.428 190.76 258.006 190.825 244.734C190.834 242.863 190.798 238.582 190.825 236.216C191.043 216.74 190.483 218.116 198.42 217.563C203.349 217.22 207.568 215.925 206.665 215.033C206.439 214.81 206.853 214.627 207.586 214.627C208.723 214.627 208.946 214.203 209.11 211.727C209.276 209.22 208.33 208.632 218.847 208.414C223.007 208.327 228.959 208.299 237.483 208.233C257.848 208.074 258.114 208.056 259.598 206.679C260.423 205.913 261.805 205.286 262.667 205.286C263.53 205.286 264.575 204.95 264.991 204.539C265.842 203.699 266.023 186.436 265.451 180.592C265.348 179.541 265.22 178.859 265.068 178.709C261.31 174.998 265.784 173.58 273.39 176.073C279.363 178.03 279.786 178.083 283.564 177.365C285.733 176.954 291.338 176.497 296.021 176.352C301.485 176.182 305.524 175.74 307.295 175.119C308.813 174.586 311.557 174.15 313.393 174.15C315.965 174.15 317.311 174.032 318.078 173.431C318.684 172.956 318.929 172.178 319.133 170.918C319.5 168.653 319.831 168.306 323.072 166.783C325.017 165.869 326.704 164.91 326.819 164.653C326.935 164.396 327.539 164.186 328.161 164.186C329.705 164.186 330.633 163.684 330.911 162.222C331.378 159.767 330.013 154.607 326.649 144.57C323.776 135.998 323.536 134.826 324.523 134.208C325.165 133.806 325.13 133.689 324.369 133.681C323.355 133.671 322.536 131.694 319.978 123.086C319.214 120.517 318.195 117.495 317.712 116.37C317.229 115.245 316.834 113.963 316.834 113.52C316.834 111.382 313.774 109.812 304.535 107.21C302.454 106.624 300.042 105.908 299.174 105.62C297.732 105.14 292.248 103.664 285.457 101.927C282.854 101.261 282.777 101.169 282.777 98.6938C282.777 40.2074 213.213 -8.82338 144.657 1.34273Z"/>
</mask>
<path d="M67.5132 177.778L67.0146 177.741L66.9682 178.363L67.5862 178.272L67.5132 177.778ZM285.457 101.927L285.935 101.781L285.8 101.338L285.348 101.439L285.457 101.927ZM222.316 204.539H221.816V205.03L222.307 205.039L222.316 204.539ZM222.316 178.709V178.209H221.816V178.709H222.316ZM234.614 178.709L234.645 178.21L234.629 178.209H234.614V178.709ZM234.614 204.767L234.605 205.267L234.614 204.767ZM218.847 208.414L218.844 208.914L219.347 208.916V208.414H218.847ZM72.5286 207.644L72.0286 207.637L72.0211 208.141L72.5259 208.144L72.5286 207.644ZM218.847 167.515L218.912 167.019L218.884 167.016L218.856 167.015L218.847 167.515ZM117.938 165.647L117.947 165.147L117.449 165.138L117.438 165.636L117.938 165.647ZM116.992 207.878L116.989 208.378L116.992 207.878ZM222.947 160.976L222.448 161.02L222.947 160.976ZM222 103.685H221.5L221.5 103.688L222 103.685ZM210.333 98.0803L210.364 97.5813L210.333 98.0803ZM125.821 98.0803L125.62 98.5382L125.717 98.5807L125.823 98.5803L125.821 98.0803ZM118.253 105.242L117.902 104.886L117.754 105.031L117.753 105.239L118.253 105.242ZM122.037 99.1537L122.39 99.5083L122.037 99.1537ZM119.83 152.881H119.33V153.278L119.717 153.368L119.83 152.881ZM218.847 152.881L218.854 153.381L219.347 153.374V152.881H218.847ZM117.938 154.126L118.419 154.262L118.437 154.197L118.438 154.129L117.938 154.126ZM216.324 160.976L216.317 161.476H216.324V160.976ZM220.739 104.619L220.272 104.44L220.24 104.525L220.239 104.616L220.739 104.619ZM53.2927 166.892L53.3135 167.392L53.6582 167.377L53.7671 167.05L53.2927 166.892ZM74.1053 104.37L74.5797 104.528L74.7067 104.146L74.3612 103.94L74.1053 104.37ZM70.9519 102.491L71.2078 102.062L71.1219 102.011L71.023 101.996L70.9519 102.491ZM60.8609 104.37L60.7302 104.853L60.8601 104.888L60.9902 104.853L60.8609 104.37ZM285.457 167.515L284.974 167.644L285.063 167.978L285.407 168.012L285.457 167.515ZM69.0899 156.617L69.0619 156.118L68.6239 156.142L68.5913 156.58L69.0899 156.617ZM113.523 154.126L113.551 154.625L114.005 154.6L114.023 154.145L113.523 154.126ZM115.415 104.37L115.915 104.389L115.935 103.865L115.411 103.87L115.415 104.37ZM56.7131 156.617L56.2387 156.459L56.7131 156.617ZM264.256 108.978L264.737 108.842L264.649 108.528L264.325 108.483L264.256 108.978ZM280.256 165.647L280.737 165.511L280.256 165.647ZM72.9859 176.971L73.4859 176.978L73.4946 176.39L72.913 176.476L72.9859 176.971ZM246.282 118.63V119.13H246.379L246.468 119.094L246.282 118.63ZM229.253 107.21L229.618 106.867L229.353 106.585L229.013 106.771L229.253 107.21ZM237.483 152.881L237.367 153.367L237.939 153.503L237.982 152.917L237.483 152.881ZM228.307 150.701L228.423 150.215L228.366 150.201H228.307V150.701ZM222.571 150.701L222.072 150.712L222.571 150.701ZM236.506 152.649L236.391 153.135L236.506 152.649ZM238.004 145.719L237.505 145.683L238.004 145.719ZM249.12 144.57L249.563 144.338L249.406 144.038L249.068 144.073L249.12 144.57ZM250.697 147.588L250.253 147.819L250.455 148.205L250.865 148.058L250.697 147.588ZM268.986 141.049L269.471 140.926L269.336 140.393L268.818 140.578L268.986 141.049ZM274.347 162.222L274.834 162.108L274.832 162.099L274.347 162.222ZM222.816 204.539V178.709H221.816V204.539H222.816ZM222.316 179.209H234.614V178.209H222.316V179.209ZM234.584 179.208L265.42 181.091L265.481 180.093L234.645 178.21L234.584 179.208ZM262.676 204.786L234.623 204.267L234.605 205.267L262.658 205.786L262.676 204.786ZM234.623 204.267L222.325 204.039L222.307 205.039L234.605 205.267L234.623 204.267ZM234.114 178.709V204.767H235.114V178.709H234.114ZM219.347 208.414V167.515H218.347V208.414H219.347ZM218.856 167.015L117.947 165.147L117.928 166.147L218.838 168.015L218.856 167.015ZM218.85 207.914L116.994 207.378L116.989 208.378L218.844 208.914L218.85 207.914ZM116.994 207.378L72.5312 207.144L72.5259 208.144L116.989 208.378L116.994 207.378ZM117.438 165.636L116.492 207.867L117.492 207.889L118.438 165.658L117.438 165.636ZM218.782 168.011C219.7 168.131 221.021 167.896 222.041 166.815C223.064 165.73 223.704 163.88 223.445 160.932L222.448 161.02C222.693 163.802 222.072 165.325 221.314 166.129C220.552 166.936 219.571 167.106 218.912 167.019L218.782 168.011ZM222.5 103.685C222.5 102.657 221.749 100.565 219.032 99.4839L218.662 100.413C220.991 101.34 221.5 103.058 221.5 103.685H222.5ZM219.032 99.4839C217.48 98.8663 216.566 98.4571 215.419 98.1751C214.268 97.8921 212.888 97.737 210.364 97.5813L210.302 98.5794C212.823 98.7349 214.124 98.8866 215.18 99.1462C216.24 99.4068 217.061 99.776 218.662 100.413L219.032 99.4839ZM210.364 97.5813C206.306 97.3308 152.29 97.4766 125.819 97.5803L125.823 98.5803C152.33 98.4764 206.287 98.3316 210.302 98.5794L210.364 97.5813ZM120.337 100.643C119.455 102.26 118.854 103.318 118.461 103.983C118.265 104.316 118.122 104.548 118.023 104.701C117.974 104.778 117.937 104.832 117.912 104.868C117.879 104.913 117.88 104.907 117.902 104.886L118.604 105.598C118.652 105.55 118.696 105.49 118.727 105.447C118.764 105.395 118.81 105.327 118.864 105.243C118.972 105.075 119.122 104.831 119.322 104.492C119.723 103.813 120.33 102.744 121.215 101.122L120.337 100.643ZM126.022 97.6225C125.103 97.2191 123.32 97.1735 121.685 98.7992L122.39 99.5083C123.731 98.1744 125.075 98.2988 125.62 98.5382L126.022 97.6225ZM121.685 98.7992C121.212 99.2693 120.756 99.8747 120.337 100.643L121.215 101.122C121.594 100.427 121.994 99.9021 122.39 99.5083L121.685 98.7992ZM120.776 100.883C120.276 100.868 120.276 100.869 120.276 100.869C120.276 100.869 120.276 100.869 120.276 100.87C120.276 100.871 120.276 100.872 120.276 100.875C120.276 100.879 120.276 100.885 120.275 100.893C120.275 100.909 120.274 100.933 120.273 100.965C120.272 101.028 120.269 101.123 120.265 101.247C120.258 101.496 120.248 101.863 120.235 102.337C120.209 103.285 120.173 104.659 120.128 106.367C120.039 109.783 119.921 114.532 119.803 119.865C119.566 130.529 119.33 143.534 119.33 152.881H120.33C120.33 143.546 120.566 130.551 120.803 119.887C120.921 114.556 121.039 109.808 121.128 106.393C121.172 104.686 121.209 103.312 121.235 102.364C121.248 101.891 121.258 101.524 121.265 101.275C121.268 101.151 121.271 101.056 121.273 100.993C121.274 100.961 121.274 100.937 121.275 100.921C121.275 100.913 121.275 100.907 121.275 100.903C121.276 100.901 121.276 100.899 121.276 100.898C121.276 100.898 121.276 100.897 121.276 100.897C121.276 100.897 121.276 100.897 120.776 100.883ZM119.717 153.368C120.1 153.457 120.822 153.526 121.795 153.585C122.783 153.645 124.07 153.695 125.61 153.738C128.689 153.823 132.791 153.877 137.56 153.906C147.097 153.965 159.309 153.926 171.352 153.848C183.395 153.77 195.27 153.653 204.135 153.556C208.567 153.507 212.247 153.463 214.818 153.432C216.104 153.416 217.113 153.403 217.8 153.394C218.144 153.39 218.407 153.387 218.585 153.384C218.673 153.383 218.741 153.382 218.786 153.382C218.808 153.381 218.825 153.381 218.837 153.381C218.842 153.381 218.847 153.381 218.849 153.381C218.851 153.381 218.852 153.381 218.853 153.381C218.853 153.381 218.854 153.381 218.847 152.881C218.84 152.381 218.84 152.381 218.839 152.381C218.839 152.381 218.838 152.381 218.836 152.381C218.833 152.381 218.829 152.381 218.823 152.381C218.812 152.381 218.795 152.381 218.773 152.382C218.728 152.382 218.66 152.383 218.572 152.384C218.394 152.387 218.131 152.39 217.788 152.394C217.1 152.403 216.092 152.416 214.806 152.432C212.235 152.463 208.556 152.507 204.124 152.556C195.26 152.653 183.387 152.77 171.346 152.848C159.304 152.926 147.097 152.965 137.566 152.906C132.8 152.877 128.706 152.824 125.637 152.739C124.103 152.696 122.828 152.646 121.855 152.587C120.867 152.527 120.23 152.46 119.943 152.394L119.717 153.368ZM117.753 105.239L117.438 154.123L118.438 154.129L118.753 105.245L117.753 105.239ZM117.456 153.991C117.176 154.989 117.043 156.521 117.631 157.833C117.93 158.501 118.416 159.11 119.152 159.548C119.884 159.983 120.834 160.231 122.037 160.231V159.231C120.97 159.231 120.207 159.011 119.663 158.688C119.122 158.367 118.768 157.925 118.544 157.425C118.086 156.402 118.174 155.132 118.419 154.262L117.456 153.991ZM122.037 160.231C126.573 160.231 186.776 161.061 216.317 161.476L216.331 160.476C186.798 160.061 126.583 159.231 122.037 159.231V160.231ZM216.324 161.476C217.211 161.476 218.505 161.166 219.551 160.228C220.618 159.271 221.372 157.715 221.238 155.344L220.24 155.4C220.359 157.512 219.693 158.758 218.884 159.483C218.054 160.226 217.014 160.476 216.324 160.476V161.476ZM221.238 155.344C220.987 150.881 221.134 119.686 221.239 104.622L220.239 104.616C220.134 119.65 219.986 150.895 220.24 155.4L221.238 155.344ZM219.347 152.881V101.927H218.347V152.881H219.347ZM219.347 101.927V99.9485H218.347V101.927H219.347ZM221.206 104.798C221.361 104.393 221.386 103.784 221.077 103.159C220.764 102.526 220.131 101.918 219.038 101.465L218.656 102.389C219.581 102.772 219.999 103.235 220.18 103.602C220.366 103.977 220.328 104.296 220.272 104.44L221.206 104.798ZM9.71486 169.207L53.3135 167.392L53.2719 166.393L9.67326 168.208L9.71486 169.207ZM74.3612 103.94L71.2078 102.062L70.6959 102.921L73.8494 104.8L74.3612 103.94ZM71.023 101.996C70.4385 101.912 69.4861 102.008 68.4553 102.17C67.4006 102.335 66.19 102.581 65.0489 102.835C63.9065 103.089 62.8277 103.352 62.0349 103.551C61.6383 103.651 61.313 103.735 61.0866 103.794C60.9734 103.823 60.8849 103.846 60.8246 103.862C60.7944 103.87 60.7713 103.876 60.7557 103.881C60.7479 103.883 60.7419 103.884 60.7379 103.885C60.7359 103.886 60.7344 103.886 60.7333 103.887C60.7328 103.887 60.7324 103.887 60.7321 103.887C60.732 103.887 60.7319 103.887 60.7318 103.887C60.7317 103.887 60.7317 103.887 60.8609 104.37C60.9902 104.853 60.9902 104.853 60.9902 104.853C60.9903 104.853 60.9903 104.853 60.9905 104.853C60.9907 104.853 60.991 104.853 60.9915 104.853C60.9924 104.852 60.9938 104.852 60.9957 104.852C60.9995 104.851 61.0052 104.849 61.0127 104.847C61.0278 104.843 61.0504 104.837 61.08 104.829C61.1393 104.814 61.2266 104.791 61.3386 104.761C61.5627 104.703 61.8852 104.62 62.2787 104.521C63.0658 104.323 64.1353 104.063 65.266 103.811C66.398 103.559 67.5853 103.318 68.6099 103.158C69.6584 102.994 70.4667 102.927 70.8807 102.986L71.023 101.996ZM54.1465 102.044C53.6261 101.784 52.9434 101.943 52.333 102.551C51.7268 103.154 51.1183 104.251 50.6037 106.097L51.567 106.366C52.0614 104.591 52.6092 103.687 53.0384 103.26C53.4634 102.837 53.6952 102.936 53.7004 102.939L54.1465 102.044ZM50.6037 106.097C49.5976 109.707 40.0996 139.927 35.4721 154.599L36.4258 154.899C41.0483 140.243 50.5549 109.997 51.567 106.366L50.6037 106.097ZM35.6622 155.159L53.006 167.302L53.5795 166.483L36.2357 154.339L35.6622 155.159ZM35.9015 154.251L-0.0421261 157.676L0.052733 158.672L35.9964 155.247L35.9015 154.251ZM53.9871 101.995C52.3464 101.785 49.7762 101.488 47.3947 101.281C46.2043 101.178 45.0563 101.097 44.0932 101.06C43.1452 101.025 42.3315 101.03 41.8356 101.116L42.0058 102.102C42.385 102.036 43.1002 102.024 44.0556 102.06C44.9958 102.095 46.1257 102.175 47.3083 102.277C49.6726 102.482 52.2287 102.778 53.8597 102.987L53.9871 101.995ZM60.9916 103.887L57.5229 102.948L57.2615 103.913L60.7302 104.853L60.9916 103.887ZM57.5229 102.948L54.0541 102.009L53.7927 102.974L57.2615 103.913L57.5229 102.948ZM57.528 103.912C84.5779 96.2744 126.465 93.0358 167.09 93.6045C207.721 94.1732 246.993 98.5491 268.823 106.092L269.15 105.147C247.162 97.5493 207.756 93.1736 167.104 92.6045C126.446 92.0354 84.4452 95.2728 57.2563 102.949L57.528 103.912ZM269.096 106.108L285.566 102.415L285.348 101.439L268.877 105.132L269.096 106.108ZM268.503 105.748L284.974 167.644L285.94 167.386L269.47 105.491L268.503 105.748ZM285.407 168.012L319.083 171.416L319.183 170.421L285.507 167.017L285.407 168.012ZM285.731 167.933L302.371 157.035L301.823 156.199L285.183 167.097L285.731 167.933ZM302.576 156.472L285.935 101.781L284.979 102.073L301.619 156.763L302.576 156.472ZM302.002 157.108L330.816 162.713L331.007 161.731L302.193 156.126L302.002 157.108ZM68.0118 177.815L69.5885 156.654L68.5913 156.58L67.0146 177.741L68.0118 177.815ZM69.1179 157.116L113.551 154.625L113.495 153.627L69.0619 156.118L69.1179 157.116ZM73.4603 107.891L74.5797 104.528L73.6309 104.212L72.5115 107.575L73.4603 107.891ZM53.7671 167.05L57.1875 156.775L56.2387 156.459L52.8183 166.734L53.7671 167.05ZM57.1875 156.775L73.4603 107.891L72.5115 107.575L56.2387 156.459L57.1875 156.775ZM56.7759 157.113L106.018 150.886L105.892 149.894L56.6504 156.121L56.7759 157.113ZM114.023 154.145L114.165 150.409L113.165 150.371L113.023 154.107L114.023 154.145ZM114.165 150.409L115.915 104.389L114.915 104.351L113.165 150.371L114.165 150.409ZM105.955 150.89H113.665V149.89H105.955V150.89ZM115.411 103.87C112.947 103.892 109.656 103.961 105.937 104.095L105.973 105.095C109.683 104.961 112.965 104.892 115.419 104.87L115.411 103.87ZM105.937 104.095C95.348 104.478 81.2302 105.389 72.8775 107.245L73.0943 108.221C81.3457 106.388 95.3769 105.477 105.973 105.095L105.937 104.095ZM106.455 150.39V104.595H105.455V150.39H106.455ZM221.953 104.183C228.513 104.804 239.068 106.127 247.991 107.294C252.45 107.878 256.5 108.423 259.434 108.822C260.901 109.021 262.09 109.184 262.911 109.297C263.322 109.354 263.641 109.398 263.858 109.428C263.966 109.443 264.048 109.454 264.104 109.462C264.131 109.466 264.152 109.468 264.166 109.47C264.173 109.471 264.179 109.472 264.182 109.473C264.184 109.473 264.185 109.473 264.186 109.473C264.187 109.473 264.187 109.473 264.187 109.473C264.187 109.473 264.187 109.473 264.256 108.978C264.325 108.483 264.325 108.483 264.325 108.483C264.325 108.483 264.324 108.483 264.324 108.483C264.323 108.483 264.322 108.482 264.32 108.482C264.316 108.482 264.311 108.481 264.304 108.48C264.29 108.478 264.269 108.475 264.241 108.471C264.185 108.464 264.103 108.452 263.995 108.437C263.778 108.407 263.459 108.363 263.048 108.306C262.226 108.193 261.037 108.03 259.569 107.831C256.633 107.432 252.582 106.887 248.12 106.303C239.2 105.135 228.627 103.811 222.048 103.187L221.953 104.183ZM279.76 165.583C279.68 166.202 279.781 167.132 280.325 167.986C280.88 168.859 281.871 169.606 283.482 169.876L283.647 168.89C282.289 168.662 281.558 168.06 281.168 167.449C280.766 166.818 280.697 166.13 280.752 165.711L279.76 165.583ZM283.482 169.876C286.469 170.377 307.768 172.788 318.022 173.928L318.133 172.934C307.853 171.791 286.599 169.385 283.647 168.89L283.482 169.876ZM73.0285 207.652L73.4859 176.978L72.486 176.963L72.0286 207.637L73.0285 207.652ZM72.913 176.476L67.4403 177.283L67.5862 178.272L73.0589 177.465L72.913 176.476ZM263.775 109.114L264.39 111.294L265.353 111.022L264.737 108.842L263.775 109.114ZM264.39 111.294L279.775 165.783L280.737 165.511L265.353 111.022L264.39 111.294ZM264.685 110.694L246.095 118.167L246.468 119.094L265.058 111.622L264.685 110.694ZM246.282 118.13H239.975V119.13H246.282V118.13ZM240.339 118.288L229.618 106.867L228.889 107.552L239.61 118.973L240.339 118.288ZM222.554 111.154C222.532 108.419 222.514 105.891 222.5 103.682L221.5 103.688C221.514 105.898 221.532 108.426 221.554 111.162L222.554 111.154ZM229.013 106.771L221.814 110.719L222.295 111.596L229.494 107.648L229.013 106.771ZM223.445 160.932C223.308 159.385 223.183 155.656 223.071 150.69L222.072 150.712C222.183 155.666 222.309 159.433 222.448 161.02L223.445 160.932ZM223.071 150.69C222.829 139.924 222.652 123.441 222.554 111.154L221.554 111.162C221.652 123.45 221.829 139.938 222.072 150.712L223.071 150.69ZM228.307 150.201H222.571V151.201H228.307V150.201ZM237.599 152.394L236.622 152.162L236.391 153.135L237.367 153.367L237.599 152.394ZM236.622 152.162L228.423 150.215L228.192 151.188L236.391 153.135L236.622 152.162ZM239.476 118.594L237.505 145.683L238.503 145.756L240.474 118.667L239.476 118.594ZM237.505 145.683L236.984 152.844L237.982 152.917L238.503 145.756L237.505 145.683ZM238.055 146.217L249.171 145.067L249.068 144.073L237.953 145.222L238.055 146.217ZM248.677 144.801L250.253 147.819L251.14 147.356L249.563 144.338L248.677 144.801ZM250.865 148.058L269.155 141.52L268.818 140.578L250.528 147.117L250.865 148.058ZM268.502 141.172L273.862 162.344L274.832 162.099L269.471 140.926L268.502 141.172ZM279.775 165.783L280.038 166.717L281.001 166.445L280.737 165.511L279.775 165.783ZM280.038 166.717L283.083 177.501L284.046 177.23L281.001 166.445L280.038 166.717ZM273.86 162.335C274.083 163.289 274.677 164.659 275.759 165.703C276.862 166.767 278.463 167.479 280.612 167.072L280.427 166.09C278.626 166.43 277.347 165.845 276.454 164.983C275.54 164.102 275.023 162.919 274.834 162.108L273.86 162.335ZM123.598 287.143C127.471 290.568 133.514 293.142 140.669 294.911C147.836 296.683 156.168 297.659 164.666 297.854C181.64 298.244 199.387 295.52 209.872 289.696L209.386 288.822C199.131 294.518 181.596 297.243 164.689 296.855C156.247 296.661 147.99 295.691 140.909 293.94C133.817 292.187 127.956 289.663 124.261 286.394L123.598 287.143ZM123.966 270.952C127.839 274.378 133.838 276.913 140.926 278.624C148.025 280.337 156.268 281.235 164.675 281.352C181.47 281.586 199.032 278.705 209.513 272.882L209.027 272.008C198.769 277.707 181.412 280.585 164.689 280.352C156.338 280.236 148.172 279.344 141.16 277.651C134.138 275.957 128.323 273.471 124.628 270.203L123.966 270.952ZM190.53 244.33C188.167 246.053 184.483 247.301 180.086 248.08C175.7 248.856 170.657 249.157 165.619 249.021C160.581 248.886 155.561 248.315 151.223 247.354C146.873 246.391 143.257 245.047 140.988 243.395L140.399 244.204C142.834 245.977 146.61 247.357 151.007 248.331C155.417 249.307 160.501 249.884 165.592 250.021C170.683 250.158 175.795 249.855 180.26 249.065C184.712 248.277 188.573 246.995 191.12 245.138L190.53 244.33ZM144.657 1.34273L144.804 2.33191L144.804 2.33191L144.657 1.34273ZM117.456 8.54275L117.087 7.61338L117.087 7.61341L117.456 8.54275ZM108.393 12.1334L108.027 11.2029L108.026 11.2031L108.393 12.1334ZM102.086 15.4445L102.519 16.346L102.519 16.3459L102.086 15.4445ZM95.3364 19.2693L94.796 18.4279L94.7958 18.428L95.3364 19.2693ZM85.26 26.2508L84.478 25.6275L84.4777 25.6279L85.26 26.2508ZM80.6661 29.9211L79.9533 29.2198L79.9531 29.22L80.6661 29.9211ZM77.3456 32.4245L77.6447 33.3787L77.6448 33.3787L77.3456 32.4245ZM68.82 41.4859L69.7357 41.8877L69.7357 41.8877L68.82 41.4859ZM66.2121 44.9414L65.6691 44.1017L65.6688 44.1019L66.2121 44.9414ZM63.8893 47.9212L62.9611 47.5492L62.961 47.5494L63.8893 47.9212ZM62.3132 50.8487L63.0816 51.4886L63.0818 51.4884L62.3132 50.8487ZM55.8985 62.3692L56.7861 62.8299L56.7862 62.8298L55.8985 62.3692ZM48.2061 83.719L47.2547 83.4111L47.2546 83.4112L48.2061 83.719ZM46.6016 92.0511L45.6052 91.9668L45.6052 91.9669L46.6016 92.0511ZM41.9207 101.609L41.795 100.617H41.795L41.9207 101.609ZM38.0464 102.491L38.5142 103.375L38.515 103.375L38.0464 102.491ZM33.6316 103.428L33.5099 102.435L33.5096 102.435L33.6316 103.428ZM28.9267 104.37L29.3074 105.295L29.3077 105.295L28.9267 104.37ZM19.4665 106.231L19.5012 107.231H19.5012L19.4665 106.231ZM13.4977 110.757L14.4975 110.779L14.4975 110.779L13.4977 110.757ZM12.8872 113.248L11.9624 112.868L11.9621 112.869L12.8872 113.248ZM9.69406 123.086L10.6492 123.382L10.6492 123.382L9.69406 123.086ZM4.01854 141.145L3.06633 140.839L3.06631 140.839L4.01854 141.145ZM5.73526 163.51L5.89256 162.523L5.89237 162.523L5.73526 163.51ZM8.31034 165.882L9.30556 165.785L9.30553 165.784L8.31034 165.882ZM14.1795 171.455L14.3737 170.474L14.3732 170.474L14.1795 171.455ZM16.6915 172.668L15.926 173.312L15.9264 173.312L16.6915 172.668ZM21.807 175.432L21.7088 174.437L21.7085 174.437L21.807 175.432ZM24.0648 175.948L24.532 175.064L24.5319 175.064L24.0648 175.948ZM43.7983 176.971L43.8198 175.971H43.8197L43.7983 176.971ZM67.5132 177.778L67.4345 178.775L67.4346 178.775L67.5132 177.778ZM69.0899 192.188L70.0898 192.174L69.0899 192.188ZM95.8921 208.506L95.9004 207.506H95.9003L95.8921 208.506ZM120.405 210.875L119.41 210.785V210.785L120.405 210.875ZM123.457 215.794L122.719 216.469L122.72 216.469L123.457 215.794ZM131.464 217.243L131.423 218.242L131.423 218.242L131.464 217.243ZM140.693 232.761L139.694 232.786V232.787L140.693 232.761ZM134.966 260.709L134.759 259.731L134.966 260.709ZM123.216 306.113L122.216 306.113V306.113L123.216 306.113ZM166.853 367.668L166.857 368.668L166.853 367.668ZM209.629 317.557L208.629 317.557V317.557L209.629 317.557ZM205.935 264.362L206.362 263.457H206.362L205.935 264.362ZM202.68 262.621L201.933 263.285L201.933 263.285L202.68 262.621ZM193.539 258.666L194.003 257.779L194.003 257.779L193.539 258.666ZM190.825 236.216L191.825 236.227V236.227L190.825 236.216ZM198.42 217.563L198.351 216.566H198.351L198.42 217.563ZM206.665 215.033L205.961 215.744L205.962 215.745L206.665 215.033ZM209.11 211.727L208.112 211.66V211.66L209.11 211.727ZM237.483 208.233L237.491 209.233H237.491L237.483 208.233ZM259.598 206.679L258.918 205.946L259.598 206.679ZM264.991 204.539L265.694 205.251L264.991 204.539ZM265.068 178.709L265.771 177.998L265.068 178.709ZM273.39 176.073L273.078 177.023L273.078 177.023L273.39 176.073ZM283.564 177.365L283.378 176.383L283.378 176.383L283.564 177.365ZM296.021 176.352L295.99 175.352H295.99L296.021 176.352ZM307.295 175.119L307.626 176.062L307.627 176.062L307.295 175.119ZM319.133 170.918L318.146 170.758L318.146 170.759L319.133 170.918ZM323.072 166.783L322.646 165.878L322.646 165.878L323.072 166.783ZM326.819 164.653L325.908 164.242L325.907 164.243L326.819 164.653ZM326.649 144.57L325.701 144.888L325.701 144.888L326.649 144.57ZM324.523 134.208L323.993 133.36L323.992 133.36L324.523 134.208ZM324.369 133.681L324.359 134.681L324.369 133.681ZM319.978 123.086L319.019 123.37L319.019 123.37L319.978 123.086ZM317.712 116.37L316.793 116.764L316.793 116.765L317.712 116.37ZM304.535 107.21L304.806 106.247L304.806 106.247L304.535 107.21ZM299.174 105.62L298.859 106.569L298.859 106.569L299.174 105.62ZM285.457 101.927L285.705 100.958L285.705 100.958L285.457 101.927ZM265.451 180.592L264.455 180.69L265.451 180.592ZM218.847 208.414L218.868 209.413L218.847 208.414ZM72.5286 207.644L72.8382 206.693L72.5286 207.644ZM9.69406 168.707L10.4516 168.054L9.69406 168.707ZM0.00530348 158.174L1.00481 158.143L0.00530348 158.174ZM330.911 162.222L329.929 162.035L330.911 162.222ZM318.078 173.431L318.694 174.218L318.078 173.431ZM209.629 289.259L208.629 289.264L209.629 289.259ZM190.825 244.734L191.825 244.739L190.825 244.734ZM140.693 243.8L139.696 243.87L140.693 243.8ZM144.51 0.353541C136.203 1.58524 124.399 4.70914 117.087 7.61338L117.825 9.47213C124.984 6.62855 136.639 3.54256 144.804 2.33191L144.51 0.353541ZM117.087 7.61341C113.489 9.04256 109.412 10.6574 108.027 11.2029L108.759 13.0639C110.148 12.5172 114.227 10.9013 117.825 9.4721L117.087 7.61341ZM108.026 11.2031C107.311 11.4848 106.62 11.789 106.078 12.0555C105.808 12.1881 105.563 12.3172 105.366 12.4341C105.268 12.4922 105.17 12.5543 105.082 12.6181C105.012 12.6692 104.879 12.7696 104.768 12.9111L106.342 14.1456C106.274 14.2318 106.219 14.2643 106.257 14.2366C106.278 14.2217 106.319 14.1942 106.387 14.1539C106.521 14.074 106.715 13.9707 106.96 13.8505C107.446 13.6115 108.087 13.3288 108.759 13.0638L108.026 11.2031ZM104.768 12.9111C104.837 12.8226 104.893 12.7915 104.832 12.836C104.797 12.8621 104.738 12.9026 104.65 12.9583C104.475 13.0686 104.228 13.2126 103.922 13.3815C103.313 13.718 102.506 14.1332 101.653 14.5431L102.519 16.3459C103.4 15.9226 104.241 15.4902 104.889 15.1322C105.212 14.9539 105.496 14.7889 105.717 14.6494C105.827 14.5801 105.932 14.5106 106.022 14.444C106.087 14.3958 106.229 14.2893 106.342 14.1456L104.768 12.9111ZM101.653 14.543C99.8745 15.3969 96.8009 17.1401 94.796 18.4279L95.8769 20.1107C97.8276 18.8577 100.829 17.1573 102.519 16.346L101.653 14.543ZM94.7958 18.428C93.8209 19.0546 92.878 19.6211 92.1481 20.0279C91.7815 20.2321 91.4798 20.3898 91.2599 20.4937C91.1487 20.5462 91.0727 20.5781 91.0275 20.5948C90.9385 20.6276 91.0286 20.5803 91.1891 20.5803V22.5803C91.4253 22.5803 91.6401 22.5005 91.7189 22.4715C91.8416 22.4263 91.9766 22.367 92.1139 22.3022C92.3911 22.1713 92.7364 21.9896 93.1216 21.775C93.895 21.344 94.8742 20.755 95.8771 20.1106L94.7958 18.428ZM91.1891 20.5803C90.9791 20.5803 90.8026 20.6362 90.6973 20.6757C90.5793 20.7199 90.4678 20.7757 90.3695 20.8308C90.1723 20.9413 89.9628 21.086 89.7569 21.2438C89.342 21.5616 88.8712 21.9868 88.4326 22.4477L89.8814 23.8265C90.2576 23.4311 90.6515 23.0779 90.9732 22.8314C91.1356 22.707 91.2624 22.623 91.3474 22.5754C91.39 22.5515 91.4061 22.5459 91.3992 22.5484C91.3949 22.55 91.3766 22.5567 91.3467 22.5635C91.3182 22.57 91.2632 22.5803 91.1891 22.5803V20.5803ZM88.4326 22.4477C88.0585 22.8408 87.6628 23.1923 87.3369 23.4376C87.1725 23.5613 87.0432 23.6449 86.9556 23.6925C86.9117 23.7164 86.8938 23.7227 86.8983 23.7211C86.9014 23.72 86.9177 23.7142 86.945 23.7083C86.971 23.7027 87.021 23.6939 87.0884 23.6939V25.6939C87.4429 25.6939 87.7567 25.5335 87.9109 25.4496C88.1141 25.3392 88.3289 25.1941 88.5395 25.0356C88.9634 24.7166 89.4406 24.2897 89.8814 23.8265L88.4326 22.4477ZM87.0884 23.6939C86.719 23.6939 86.4063 23.8651 86.2519 23.9567C86.0536 24.0744 85.8519 24.2268 85.6604 24.3899C85.2746 24.7185 84.8544 25.1552 84.478 25.6275L86.042 26.874C86.348 26.49 86.6802 26.1484 86.9571 25.9126C87.0969 25.7935 87.2041 25.7173 87.2724 25.6768C87.3063 25.6567 87.3146 25.655 87.3003 25.6604C87.2941 25.6628 87.2151 25.6939 87.0884 25.6939V23.6939ZM84.4777 25.6279C84.1753 26.0077 83.841 26.3464 83.5588 26.5805C83.4165 26.6984 83.3059 26.7744 83.234 26.8152C83.1248 26.8773 83.1973 26.8076 83.3825 26.8076V28.8076C83.7429 28.8076 84.0526 28.6504 84.2217 28.5543C84.4282 28.437 84.6372 28.2843 84.8353 28.1201C85.2337 27.7898 85.663 27.3501 86.0423 26.8737L84.4777 25.6279ZM83.3825 26.8076C83.1444 26.8076 82.9437 26.8801 82.8336 26.9251C82.7042 26.978 82.5778 27.0452 82.4623 27.1134C82.2302 27.2505 81.9718 27.4337 81.7074 27.6394C81.1751 28.0537 80.551 28.6124 79.9533 29.2198L81.3789 30.6225C81.9247 30.0679 82.4834 29.5698 82.9357 29.2178C83.1637 29.0404 83.3481 28.9131 83.4795 28.8354C83.5458 28.7963 83.5813 28.7801 83.5903 28.7764C83.6186 28.7648 83.5329 28.8076 83.3825 28.8076V26.8076ZM79.9531 29.22C79.4172 29.7649 78.7951 30.3049 78.2312 30.73C77.63 31.1832 77.2069 31.42 77.0463 31.4704L77.6448 33.3787C78.1673 33.2149 78.8327 32.7812 79.4352 32.327C80.075 31.8446 80.7716 31.24 81.3791 30.6223L79.9531 29.22ZM77.0464 31.4703C76.7342 31.5682 76.4288 31.7519 76.1677 31.934C75.8919 32.1264 75.5994 32.3645 75.3054 32.626C74.7165 33.1495 74.077 33.8062 73.4878 34.4762C72.8993 35.1455 72.3425 35.849 71.9261 36.4704C71.7188 36.7798 71.5339 37.0871 71.397 37.3718C71.2766 37.622 71.1285 37.9827 71.1285 38.3573H73.1285C73.1285 38.4582 73.102 38.4412 73.1994 38.2385C73.2803 38.0702 73.4096 37.8493 73.5876 37.5837C73.9417 37.0552 74.44 36.422 74.9897 35.797C75.5386 35.1728 76.1203 34.5776 76.6342 34.1207C76.8915 33.8919 77.1208 33.7077 77.3121 33.5743C77.4072 33.5079 77.4859 33.459 77.5481 33.425C77.5787 33.4082 77.6027 33.3965 77.6203 33.3887C77.6381 33.3808 77.646 33.3783 77.6447 33.3787L77.0464 31.4703ZM71.1285 38.3573C71.1285 38.2074 71.1825 38.0943 71.2279 38.031C71.2693 37.9732 71.3019 37.9569 71.2919 37.9629C71.2685 37.9767 71.1726 38.0168 71.016 38.0168V40.0168C71.4712 40.0168 71.9315 39.9086 72.3114 39.6835C72.6676 39.4725 73.1285 39.0367 73.1285 38.3573H71.1285ZM71.016 38.0168C70.2343 38.0168 69.6023 38.5165 69.1639 39.0095C68.6943 39.5375 68.2682 40.2547 67.9043 41.0841L69.7357 41.8877C70.0472 41.1777 70.3722 40.6604 70.6584 40.3386C70.9757 39.9819 71.1039 40.0168 71.016 40.0168V38.0168ZM67.9043 41.0841C67.6426 41.6803 67.243 42.3419 66.8089 42.9172C66.3615 43.51 65.9424 43.925 65.6691 44.1017L66.7551 45.7812C67.3206 45.4155 67.9074 44.7818 68.4053 44.1219C68.9164 43.4446 69.4013 42.6497 69.7357 41.8877L67.9043 41.0841ZM65.6688 44.1019C65.1197 44.4572 64.5694 45.0227 64.1125 45.6087C63.6501 46.202 63.2244 46.8923 62.9611 47.5492L64.8175 48.2933C64.9938 47.8535 65.3104 47.3252 65.6899 46.8383C66.0751 46.3442 66.4663 45.968 66.7554 45.781L65.6688 44.1019ZM62.961 47.5494C62.536 48.6106 61.8728 49.8146 61.5446 50.209L63.0818 51.4884C63.6088 50.8552 64.3647 49.4239 64.8176 48.293L62.961 47.5494ZM61.5448 50.2087C61.0803 50.7665 60.3196 52.0229 59.2719 53.9047C58.204 55.8226 56.7913 58.4772 55.0109 61.9087L56.7862 62.8298C58.5634 59.4044 59.9655 56.7701 61.0193 54.8777C62.0931 52.9491 62.761 51.8737 63.0816 51.4886L61.5448 50.2087ZM55.011 61.9086C53.9169 64.0168 52.2568 67.9872 51.3036 70.7627L53.1952 71.4123C54.124 68.7077 55.7472 64.8317 56.7861 62.8299L55.011 61.9086ZM51.3036 70.7627C50.8381 72.1183 50.3542 73.4127 49.9513 74.4029C49.7493 74.8992 49.5715 75.3098 49.4292 75.6098C49.3578 75.7606 49.3001 75.8732 49.2567 75.9503C49.2004 76.0504 49.2013 76.0307 49.2539 75.9749L50.709 77.347C50.8383 77.2099 50.9381 77.0407 51 76.9307C51.0747 76.7977 51.1544 76.6396 51.2364 76.4667C51.4011 76.1193 51.5947 75.6706 51.8038 75.1567C52.223 74.1265 52.7197 72.7967 53.1952 71.4123L51.3036 70.7627ZM49.2539 75.9749C48.9338 76.3144 48.7406 76.8022 48.6266 77.1996C48.5024 77.6322 48.4239 78.1296 48.4239 78.6039H50.4239C50.4239 78.3346 50.471 78.0231 50.549 77.7513C50.5874 77.6174 50.6291 77.5082 50.6671 77.4286C50.709 77.3411 50.7293 77.3255 50.709 77.347L49.2539 75.9749ZM48.4239 78.6039C48.4239 78.8396 48.318 79.4889 48.0934 80.4322C47.8789 81.3332 47.5816 82.4008 47.2547 83.4111L49.1575 84.0268C49.5004 82.9672 49.812 81.8487 50.039 80.8954C50.2559 79.9843 50.4239 79.1111 50.4239 78.6039H48.4239ZM47.2546 83.4112C46.5581 85.5646 45.8232 89.3904 45.6052 91.9668L47.5981 92.1354C47.8052 89.6877 48.5146 86.0145 49.1576 84.0267L47.2546 83.4112ZM45.6052 91.9669C45.4389 93.9343 45.2785 95.457 45.0815 96.6473C44.883 97.8457 44.6573 98.6408 44.3905 99.1854C44.1388 99.6992 43.8579 99.9769 43.5139 100.166C43.135 100.374 42.6092 100.514 41.795 100.617L42.0464 102.601C42.9354 102.488 43.7629 102.311 44.4769 101.919C45.2258 101.507 45.7772 100.901 46.1866 100.065C46.581 99.26 46.8451 98.2394 47.0546 96.9739C47.2655 95.7003 47.4311 94.1108 47.5981 92.1354L45.6052 91.9669ZM41.795 100.617C40.9641 100.722 40.097 100.878 39.363 101.045C38.6721 101.202 37.9781 101.396 37.5778 101.608L38.515 103.375C38.649 103.304 39.0937 103.157 39.8071 102.995C40.4775 102.842 41.2804 102.698 42.0464 102.601L41.795 100.617ZM37.5786 101.607C37.5787 101.607 37.5757 101.609 37.5691 101.612C37.5626 101.615 37.5535 101.619 37.5416 101.624C37.5174 101.634 37.4853 101.647 37.4443 101.662C37.3615 101.691 37.2547 101.725 37.1235 101.762C36.8612 101.837 36.5271 101.918 36.1414 102C35.3707 102.164 34.4292 102.323 33.5099 102.435L33.7534 104.42C34.728 104.301 35.7268 104.133 36.5565 103.957C36.971 103.869 37.3521 103.777 37.6716 103.686C37.9707 103.601 38.2816 103.498 38.5142 103.375L37.5786 101.607ZM33.5096 102.435C32.5373 102.555 31.5097 102.723 30.6328 102.899C29.786 103.068 28.9938 103.261 28.5458 103.445L29.3077 105.295C29.5535 105.193 30.1667 105.032 31.0254 104.86C31.854 104.694 32.8321 104.534 33.7537 104.42L33.5096 102.435ZM28.5461 103.445C26.3027 104.369 22.4918 105.126 19.4318 105.232L19.5012 107.231C22.7468 107.118 26.8005 106.327 29.3074 105.295L28.5461 103.445ZM19.4318 105.232C17.5922 105.296 15.9081 105.875 14.6539 106.826C13.3988 107.778 12.5321 109.144 12.4979 110.736L14.4975 110.779C14.5157 109.932 14.9753 109.093 15.8624 108.42C16.7505 107.746 18.0246 107.282 19.5012 107.231L19.4318 105.232ZM12.4979 110.736C12.4889 111.154 12.2584 112.148 11.9624 112.868L13.812 113.629C14.1631 112.775 14.4813 111.528 14.4975 110.779L12.4979 110.736ZM11.9621 112.869C11.6177 113.708 10.164 118.191 8.73888 122.79L10.6492 123.382C12.09 118.733 13.5109 114.362 13.8123 113.628L11.9621 112.869ZM8.73888 122.79C5.90073 131.947 5.0327 134.709 3.06633 140.839L4.97076 141.45C6.93985 135.312 7.80998 132.543 10.6492 123.382L8.73888 122.79ZM5.57797 164.498C6.10348 164.582 6.45979 164.652 6.71605 164.73C6.96774 164.807 7.04921 164.869 7.07445 164.893C7.11312 164.928 7.22294 165.043 7.31515 165.98L9.30553 165.784C9.22304 164.946 9.10487 164.044 8.42945 163.422C8.09765 163.116 7.70055 162.939 7.29804 162.817C6.90011 162.696 6.42659 162.608 5.89256 162.523L5.57797 164.498ZM13.9853 172.436C14.3844 172.515 14.8324 172.67 15.2209 172.858C15.6378 173.059 15.8653 173.239 15.926 173.312L17.457 172.025C17.1203 171.624 16.5841 171.295 16.0905 171.057C15.5684 170.805 14.9591 170.59 14.3737 170.474L13.9853 172.436ZM15.9264 173.312C16.2198 173.661 16.6032 173.95 16.9816 174.154C17.3441 174.35 17.8116 174.527 18.2821 174.527V172.527C18.2905 172.527 18.2591 172.527 18.1847 172.504C18.1143 172.482 18.0273 172.446 17.9319 172.395C17.7337 172.288 17.5605 172.148 17.4565 172.024L15.9264 173.312ZM18.2821 174.527C18.2183 174.527 18.1776 174.497 18.1637 174.482C18.1508 174.469 18.1512 174.459 18.1512 174.461H20.1512C20.1512 173.464 19.3792 172.527 18.2821 172.527V174.527ZM18.1512 174.461C18.1512 174.799 18.2074 175.192 18.4285 175.555C18.6613 175.938 19.0076 176.175 19.3801 176.311C20.0342 176.55 20.916 176.525 21.9054 176.427L21.7085 174.437C21.224 174.485 20.8518 174.503 20.5668 174.496C20.2741 174.489 20.1276 174.455 20.0667 174.433C20.0272 174.418 20.0874 174.434 20.137 174.516C20.175 174.578 20.1512 174.591 20.1512 174.461H18.1512ZM21.9051 176.427C22.0509 176.413 22.335 176.433 22.6924 176.514C23.0393 176.594 23.3688 176.711 23.5977 176.832L24.5319 175.064C24.1125 174.842 23.6097 174.673 23.1382 174.565C22.6772 174.459 22.1565 174.393 21.7088 174.437L21.9051 176.427ZM23.5976 176.832C23.7704 176.924 23.9622 176.968 24.068 176.991C24.204 177.021 24.3634 177.048 24.5366 177.072C24.885 177.122 25.3417 177.171 25.8864 177.219C26.9788 177.315 28.4718 177.412 30.2579 177.505C33.8327 177.69 38.6127 177.859 43.7768 177.97L43.8197 175.971C38.6703 175.86 33.9112 175.691 30.3614 175.507C28.5853 175.415 27.1196 175.32 26.0621 175.227C25.5318 175.18 25.1157 175.135 24.819 175.092C24.6698 175.071 24.5636 175.052 24.4942 175.037C24.3946 175.015 24.4412 175.016 24.532 175.064L23.5976 176.832ZM43.7767 177.97C54.0065 178.191 63.1631 178.438 64.1663 178.517L64.3237 176.523C63.2457 176.438 54.0002 176.19 43.8198 175.971L43.7767 177.97ZM64.1663 178.517C64.6867 178.558 65.3146 178.607 65.9069 178.654C66.4993 178.701 67.0561 178.745 67.4345 178.775L67.592 176.781C67.2134 176.751 66.6565 176.707 66.0641 176.66C65.4717 176.614 64.844 176.564 64.3237 176.523L64.1663 178.517ZM67.4346 178.775C67.8242 178.805 67.6315 178.837 67.5239 178.701C67.5048 178.677 67.5419 178.711 67.5946 178.906C67.6461 179.096 67.698 179.382 67.745 179.812C67.937 181.567 67.9902 185.073 68.09 192.202L70.0898 192.174C69.991 185.116 69.9385 181.472 69.7332 179.595C69.6809 179.117 69.6152 178.715 69.5249 178.382C69.4358 178.054 69.3069 177.731 69.0914 177.459C68.5913 176.828 67.885 176.804 67.5919 176.781L67.4346 178.775ZM95.8838 209.506C108.273 209.609 114.385 209.661 117.392 209.952C118.137 210.023 118.65 210.107 119.002 210.197C119.365 210.291 119.471 210.371 119.482 210.38C119.482 210.38 119.476 210.375 119.468 210.365C119.46 210.355 119.451 210.342 119.444 210.328C119.43 210.3 119.429 210.284 119.432 210.301C119.442 210.37 119.437 210.48 119.41 210.785L121.401 210.966C121.439 210.55 121.598 209.56 120.784 208.862C120.436 208.563 119.986 208.385 119.5 208.26C119.002 208.132 118.372 208.037 117.585 207.961C114.463 207.659 108.221 207.609 95.9004 207.506L95.8838 209.506ZM119.41 210.785C119.291 212.098 119.306 213.207 119.568 214.024C119.704 214.449 119.928 214.865 120.3 215.173C120.687 215.495 121.145 215.627 121.607 215.627V213.627C121.538 213.627 121.552 213.614 121.578 213.635C121.588 213.644 121.534 213.605 121.473 213.414C121.341 213.002 121.286 212.234 121.401 210.966L119.41 210.785ZM121.607 215.627C121.533 215.627 121.53 215.61 121.622 215.647C121.701 215.679 121.809 215.734 121.939 215.816C122.201 215.981 122.487 216.215 122.719 216.469L124.194 215.118C123.839 214.73 123.415 214.382 123.006 214.124C122.801 213.995 122.584 213.878 122.367 213.791C122.164 213.71 121.896 213.627 121.607 213.627V215.627ZM122.72 216.469C123.363 217.171 124.163 217.542 125.459 217.777C126.711 218.003 128.562 218.125 131.423 218.242L131.505 216.244C128.618 216.126 126.908 216.007 125.815 215.809C124.766 215.619 124.437 215.383 124.194 215.118L122.72 216.469ZM131.423 218.242C133.854 218.341 135.474 218.344 136.669 218.539C137.792 218.721 138.276 219.034 138.602 219.583C139.003 220.257 139.256 221.429 139.404 223.624C139.549 225.781 139.588 228.713 139.694 232.786L141.693 232.735C141.589 228.71 141.549 225.701 141.399 223.49C141.253 221.317 140.995 219.693 140.321 218.561C139.573 217.302 138.418 216.797 136.991 216.565C135.636 216.344 133.794 216.337 131.504 216.244L131.423 218.242ZM134.759 259.731C131.918 260.333 129.533 260.826 127.706 261.957C125.779 263.151 124.557 264.984 123.77 267.99C122.995 270.948 122.614 275.152 122.419 281.23C122.224 287.325 122.215 295.391 122.216 306.113L124.216 306.113C124.215 295.38 124.224 287.35 124.418 281.294C124.613 275.221 124.992 271.217 125.705 268.496C126.404 265.822 127.394 264.503 128.759 263.658C130.224 262.75 132.21 262.316 135.174 261.688L134.759 259.731ZM122.216 306.113C122.217 323.412 121.879 335.998 122.139 345.051C122.269 349.586 122.55 353.292 123.109 356.305C123.668 359.318 124.517 361.703 125.828 363.552C128.503 367.325 132.855 368.536 139.291 368.881C145.713 369.225 154.683 368.713 166.857 368.668L166.85 366.668C154.501 366.714 145.756 367.225 139.398 366.884C133.054 366.544 129.563 365.362 127.459 362.395C126.381 360.873 125.607 358.802 125.076 355.94C124.545 353.08 124.267 349.495 124.138 344.994C123.879 335.973 124.217 323.499 124.216 306.113L122.216 306.113ZM166.857 368.668C177.531 368.628 185.635 368.6 191.734 367.786C197.842 366.971 202.155 365.345 205.067 361.933C207.952 358.554 209.306 353.598 209.974 346.531C210.644 339.446 210.637 330.023 210.629 317.556L208.629 317.557C208.637 330.066 208.642 339.375 207.983 346.343C207.323 353.33 206.008 357.75 203.546 360.635C201.111 363.487 197.399 365.013 191.469 365.804C185.529 366.596 177.58 366.628 166.85 366.668L166.857 368.668ZM206.362 263.457C205.565 263.082 204.81 262.703 204.238 262.396C203.95 262.243 203.717 262.112 203.551 262.011C203.467 261.961 203.409 261.923 203.374 261.899C203.316 261.859 203.362 261.883 203.427 261.956L201.933 263.285C202.041 263.407 202.171 263.498 202.233 263.541C202.317 263.6 202.415 263.662 202.518 263.724C202.725 263.849 202.992 263.998 203.294 264.16C203.902 264.485 204.687 264.879 205.508 265.266L206.362 263.457ZM203.427 261.956C203.166 261.662 202.787 261.39 202.422 261.162C202.039 260.923 201.597 260.689 201.154 260.482C200.711 260.276 200.25 260.089 199.826 259.953C199.429 259.824 198.975 259.709 198.581 259.709V261.709C198.649 261.709 198.857 261.741 199.212 261.856C199.541 261.962 199.924 262.116 200.309 262.295C200.693 262.474 201.061 262.671 201.364 262.859C201.685 263.06 201.866 263.21 201.933 263.285L203.427 261.956ZM198.581 259.709C197.904 259.709 197.466 259.59 194.003 257.779L193.076 259.552C196.372 261.275 197.302 261.709 198.581 261.709V259.709ZM191.825 236.227C191.88 231.34 191.885 227.802 191.987 225.202C192.09 222.566 192.29 221.065 192.654 220.171C192.823 219.754 193.013 219.513 193.213 219.352C193.42 219.185 193.705 219.05 194.146 218.945C194.597 218.838 195.159 218.775 195.895 218.722C196.26 218.696 196.653 218.674 197.087 218.648C197.519 218.623 197.987 218.596 198.49 218.561L198.351 216.566C197.861 216.6 197.404 216.627 196.971 216.652C196.542 216.677 196.133 216.7 195.753 216.727C194.999 216.781 194.301 216.853 193.685 216.999C193.059 217.148 192.47 217.383 191.959 217.794C191.443 218.21 191.072 218.753 190.802 219.416C190.287 220.681 190.09 222.522 189.988 225.124C189.885 227.761 189.879 231.353 189.825 236.205L191.825 236.227ZM198.49 218.561C201.01 218.386 203.375 217.966 205.023 217.46C205.825 217.214 206.555 216.919 207.04 216.564C207.269 216.397 207.589 216.114 207.725 215.686C207.899 215.137 207.691 214.642 207.367 214.321L205.962 215.745C205.864 215.648 205.722 215.388 205.819 215.082C205.878 214.896 205.978 214.863 205.861 214.949C205.656 215.099 205.193 215.316 204.436 215.548C202.968 215.999 200.76 216.398 198.351 216.566L198.49 218.561ZM207.368 214.323C207.413 214.367 207.502 214.468 207.557 214.634C207.619 214.819 207.621 215.032 207.544 215.232C207.475 215.414 207.365 215.524 207.301 215.577C207.236 215.631 207.184 215.655 207.169 215.662C207.145 215.672 207.266 215.627 207.586 215.627V213.627C207.174 213.627 206.721 213.674 206.363 213.831C206.215 213.896 205.843 214.083 205.676 214.519C205.459 215.088 205.759 215.544 205.961 215.744L207.368 214.323ZM207.586 215.627C207.911 215.627 208.302 215.601 208.674 215.442C209.091 215.263 209.394 214.959 209.598 214.571C209.783 214.219 209.882 213.807 209.95 213.382C210.019 212.946 210.066 212.418 210.108 211.793L208.112 211.66C208.071 212.274 208.029 212.727 207.975 213.068C207.919 213.418 207.861 213.577 207.828 213.641C207.813 213.668 207.837 213.624 207.887 213.603C207.893 213.601 207.83 213.627 207.586 213.627V215.627ZM237.491 209.233C247.651 209.154 252.853 209.11 255.691 208.91C257.103 208.811 258.029 208.669 258.718 208.422C259.467 208.153 259.884 207.778 260.278 207.412L258.918 205.946C258.57 206.269 258.397 206.412 258.043 206.539C257.628 206.688 256.936 206.818 255.551 206.915C252.793 207.109 247.68 207.153 237.475 207.233L237.491 209.233ZM260.278 207.412C260.597 207.116 261.053 206.823 261.532 206.606C262.026 206.382 262.438 206.286 262.667 206.286V204.286C262.034 204.286 261.323 204.504 260.705 204.785C260.071 205.073 259.424 205.476 258.918 205.946L260.278 207.412ZM262.667 206.286C263.216 206.286 263.797 206.181 264.303 206.019C264.783 205.864 265.322 205.618 265.694 205.251L264.289 203.827C264.244 203.871 264.053 203.998 263.69 204.115C263.354 204.223 262.98 204.286 262.667 204.286V206.286ZM265.771 177.998C264.869 177.107 264.71 176.579 264.713 176.397C264.714 176.35 264.722 176.325 264.764 176.281C264.825 176.218 264.97 176.113 265.269 176.018C265.877 175.825 266.872 175.752 268.241 175.905C269.59 176.056 271.228 176.417 273.078 177.023L273.701 175.122C271.749 174.483 269.975 174.086 268.463 173.917C266.971 173.751 265.656 173.797 264.665 174.111C263.671 174.426 262.733 175.13 262.713 176.365C262.697 177.415 263.388 178.455 264.366 179.421L265.771 177.998ZM273.078 177.023C276.03 177.99 277.733 178.531 279.174 178.714C280.674 178.905 281.867 178.706 283.751 178.348L283.378 176.383C281.483 176.743 280.576 176.876 279.426 176.73C278.218 176.577 276.723 176.112 273.701 175.122L273.078 177.023ZM283.751 178.348C285.838 177.952 291.377 177.497 296.052 177.351L295.99 175.352C291.299 175.498 285.628 175.956 283.378 176.383L283.751 178.348ZM296.052 177.351C298.801 177.266 301.204 177.112 303.152 176.899C305.077 176.688 306.626 176.413 307.626 176.062L306.964 174.175C306.193 174.446 304.837 174.702 302.934 174.911C301.053 175.116 298.705 175.268 295.99 175.352L296.052 177.351ZM307.627 176.062C309.024 175.571 311.654 175.15 313.393 175.15V173.15C311.46 173.15 308.602 173.6 306.964 174.175L307.627 176.062ZM320.12 171.078C320.303 169.949 320.447 169.579 320.749 169.262C321.127 168.865 321.826 168.473 323.497 167.688L322.646 165.878C321.077 166.615 319.99 167.159 319.301 167.883C318.536 168.686 318.33 169.622 318.146 170.758L320.12 171.078ZM323.497 167.688C324.488 167.222 325.42 166.742 326.126 166.341C326.477 166.141 326.786 165.953 327.024 165.79C327.141 165.71 327.258 165.625 327.358 165.538C327.416 165.487 327.616 165.318 327.731 165.063L325.907 164.243C325.993 164.052 326.115 163.969 326.052 164.023C326.03 164.042 325.981 164.081 325.893 164.14C325.721 164.258 325.466 164.415 325.138 164.602C324.485 164.973 323.601 165.429 322.646 165.878L323.497 167.688ZM327.731 165.064C327.69 165.156 327.64 165.216 327.61 165.248C327.579 165.28 327.556 165.296 327.55 165.3C327.542 165.306 327.564 165.29 327.629 165.267C327.758 165.222 327.953 165.186 328.161 165.186V163.186C327.747 163.186 327.329 163.254 326.972 163.379C326.793 163.441 326.604 163.526 326.43 163.643C326.27 163.752 326.043 163.941 325.908 164.242L327.731 165.064ZM327.597 144.252C326.152 139.941 325.399 137.573 325.118 136.205C324.976 135.51 324.987 135.21 325.012 135.093C325.015 135.079 324.985 135.098 325.054 135.055L323.992 133.36C323.567 133.626 323.197 134.024 323.057 134.671C322.94 135.216 323.006 135.86 323.159 136.607C323.47 138.123 324.273 140.627 325.701 144.888L327.597 144.252ZM325.053 135.055C325.221 134.95 325.402 134.83 325.545 134.701C325.615 134.638 325.725 134.531 325.815 134.38C325.903 134.233 326.048 133.912 325.932 133.515C325.817 133.123 325.526 132.931 325.377 132.855C325.224 132.776 325.075 132.743 324.984 132.727C324.795 132.692 324.578 132.683 324.379 132.681L324.359 134.681C324.443 134.682 324.507 134.684 324.556 134.688C324.607 134.691 324.626 134.694 324.625 134.694C324.623 134.694 324.609 134.691 324.586 134.684C324.563 134.678 324.52 134.663 324.466 134.635C324.373 134.588 324.116 134.43 324.013 134.078C323.908 133.722 324.043 133.447 324.099 133.353C324.131 133.299 324.162 133.263 324.178 133.245C324.195 133.226 324.206 133.215 324.208 133.213C324.21 133.212 324.196 133.224 324.155 133.253C324.116 133.281 324.063 133.316 323.993 133.36L325.053 135.055ZM324.379 132.681C324.523 132.683 324.538 132.783 324.393 132.604C324.227 132.398 323.993 131.99 323.676 131.225C323.048 129.71 322.218 127.116 320.936 122.801L319.019 123.37C320.295 127.663 321.154 130.362 321.829 131.991C322.163 132.797 322.484 133.423 322.837 133.86C323.211 134.324 323.708 134.675 324.359 134.681L324.379 132.681ZM320.936 122.801C320.172 120.228 319.138 117.158 318.63 115.975L316.793 116.765C317.251 117.832 318.257 120.806 319.019 123.37L320.936 122.801ZM318.631 115.976C318.403 115.446 318.196 114.877 318.047 114.395C317.973 114.154 317.916 113.944 317.879 113.777C317.838 113.592 317.834 113.517 317.834 113.52H315.834C315.834 113.914 315.982 114.483 316.136 114.984C316.306 115.535 316.538 116.17 316.793 116.764L318.631 115.976ZM317.834 113.52C317.834 111.843 316.582 110.664 314.605 109.649C312.586 108.613 309.423 107.548 304.806 106.247L304.264 108.172C308.886 109.474 311.872 110.495 313.692 111.429C315.555 112.384 315.834 113.059 315.834 113.52H317.834ZM304.806 106.247C302.725 105.661 300.333 104.951 299.49 104.671L298.859 106.569C299.75 106.865 302.183 107.586 304.264 108.172L304.806 106.247ZM299.49 104.671C298.006 104.177 292.48 102.691 285.705 100.958L285.209 102.896C292.017 104.637 297.458 106.103 298.859 106.569L299.49 104.671ZM285.705 100.958C285.04 100.788 284.605 100.671 284.293 100.554C283.987 100.438 283.921 100.364 283.91 100.351C283.907 100.347 283.857 100.294 283.821 100.02C283.783 99.7299 283.777 99.3288 283.777 98.6938H281.777C281.777 99.2965 281.78 99.8351 281.838 100.279C281.898 100.74 282.029 101.215 282.371 101.627C282.705 102.03 283.147 102.258 283.587 102.425C284.022 102.589 284.572 102.733 285.209 102.896L285.705 100.958ZM283.777 98.6938C283.777 69.0383 266.147 41.8847 240.001 23.4562C213.848 5.02226 179.062 -4.77007 144.51 0.353543L144.804 2.33191C178.808 -2.71058 213.082 6.92945 238.849 25.091C264.624 43.2579 281.777 69.8629 281.777 98.6938H283.777ZM265.694 205.251C265.853 205.094 265.94 204.917 265.985 204.815C266.036 204.698 266.076 204.575 266.107 204.461C266.17 204.233 266.222 203.957 266.268 203.658C266.359 203.055 266.436 202.258 266.5 201.334C266.629 199.481 266.714 197.042 266.754 194.458C266.834 189.301 266.738 183.477 266.446 180.495L264.455 180.69C264.736 183.552 264.835 189.281 264.755 194.427C264.715 196.993 264.631 199.393 264.505 201.195C264.442 202.099 264.369 202.834 264.29 203.359C264.25 203.624 264.212 203.811 264.179 203.93C264.162 203.99 264.153 204.013 264.154 204.01C264.155 204.008 264.163 203.99 264.179 203.963C264.195 203.937 264.23 203.886 264.289 203.827L265.694 205.251ZM266.446 180.495C266.393 179.957 266.332 179.486 266.259 179.118C266.223 178.936 266.179 178.755 266.123 178.594C266.081 178.471 265.985 178.209 265.771 177.998L264.366 179.421C264.283 179.339 264.245 179.267 264.237 179.252C264.226 179.23 264.225 179.224 264.232 179.245C264.247 179.286 264.27 179.37 264.297 179.508C264.351 179.781 264.405 180.177 264.455 180.69L266.446 180.495ZM210.108 211.793C210.129 211.466 210.135 211.131 210.144 210.915C210.154 210.667 210.169 210.521 210.195 210.416C210.216 210.329 210.237 210.3 210.25 210.284C210.268 210.264 210.327 210.203 210.502 210.126C210.889 209.954 211.618 209.791 213.001 209.667C214.358 209.545 216.242 209.468 218.868 209.413L218.826 207.414C216.194 207.468 214.252 207.546 212.823 207.675C211.421 207.8 210.404 207.982 209.691 208.298C209.317 208.464 208.989 208.683 208.731 208.984C208.469 209.289 208.328 209.624 208.25 209.948C208.176 210.254 208.156 210.566 208.145 210.832C208.133 211.129 208.132 211.36 208.112 211.66L210.108 211.793ZM218.868 209.413C223.019 209.327 228.96 209.299 237.491 209.233L237.475 207.233C228.958 207.299 222.994 207.327 218.826 207.414L218.868 209.413ZM68.09 192.202C68.1256 194.746 68.0866 196.881 68.0754 198.713C68.0644 200.525 68.0801 202.066 68.2379 203.343C68.396 204.622 68.7074 205.742 69.363 206.653C70.0338 207.586 70.9865 208.194 72.219 208.595L72.8382 206.693C71.8939 206.386 71.3463 205.986 70.9866 205.486C70.6117 204.964 70.3623 204.226 70.2228 203.098C70.0831 201.966 70.0643 200.548 70.0754 198.725C70.0863 196.921 70.1258 194.744 70.0898 192.174L68.09 192.202ZM72.219 208.595C74.0882 209.204 76.7713 209.388 80.5128 209.45C84.2685 209.513 89.3113 209.452 95.8838 209.506L95.9003 207.506C89.2478 207.451 84.3137 207.514 80.5463 207.451C76.7647 207.387 74.3785 207.195 72.8382 206.693L72.219 208.595ZM7.31512 165.98C7.43381 167.189 8.08778 168.375 8.93655 169.36L10.4516 168.054C9.75719 167.249 9.36968 166.438 9.30556 165.785L7.31512 165.98ZM8.93655 169.36C10.1933 170.818 12.0678 172.057 13.9858 172.436L14.3732 170.474C12.9734 170.198 11.4741 169.241 10.4516 168.054L8.93655 169.36ZM3.06631 140.839C1.69316 145.121 0.655156 148.594 -0.0269327 151.413C-0.706125 154.219 -1.04953 156.443 -0.994204 158.205L1.00481 158.143C0.958076 156.654 1.24977 154.64 1.91696 151.883C2.58125 149.138 3.6009 145.722 4.97077 141.45L3.06631 140.839ZM-0.994204 158.205C-0.932866 160.159 -0.374806 161.65 0.85251 162.706C2.02276 163.712 3.66325 164.193 5.57816 164.498L5.89237 162.523C4.05383 162.23 2.88499 161.816 2.15646 161.189C1.48499 160.612 1.05479 159.734 1.00481 158.143L-0.994204 158.205ZM328.161 165.186C329.018 165.186 329.869 165.051 330.568 164.583C331.303 164.089 331.718 163.331 331.894 162.409L329.929 162.035C329.826 162.575 329.637 162.799 329.454 162.922C329.233 163.07 328.848 163.186 328.161 163.186V165.186ZM331.894 162.409C332.172 160.945 331.89 158.849 331.187 156C330.474 153.106 329.28 149.273 327.597 144.252L325.701 144.888C327.382 149.903 328.553 153.67 329.246 156.479C329.95 159.333 330.117 161.044 329.929 162.035L331.894 162.409ZM313.393 175.15C314.68 175.15 315.721 175.121 316.55 175.006C317.377 174.891 318.109 174.677 318.694 174.218L317.461 172.644C317.279 172.786 316.955 172.931 316.275 173.025C315.596 173.119 314.678 173.15 313.393 173.15V175.15ZM318.694 174.218C319.64 173.477 319.919 172.321 320.12 171.078L318.146 170.759C317.939 172.036 317.729 172.434 317.461 172.644L318.694 174.218ZM210.629 317.556C210.62 304.107 210.662 296.636 210.629 289.255L208.629 289.264C208.662 296.642 208.62 304.091 208.629 317.557L210.629 317.556ZM210.629 289.255C210.576 277.691 210.407 271.724 209.856 268.476C209.579 266.842 209.183 265.745 208.542 264.957C207.897 264.166 207.083 263.798 206.362 263.457L205.508 265.266C206.291 265.635 206.677 265.835 206.991 266.22C207.307 266.609 207.628 267.298 207.884 268.811C208.402 271.858 208.576 277.63 208.629 289.264L210.629 289.255ZM194.003 257.779C193.299 257.412 193.019 257.304 192.769 257.084C192.601 256.935 192.408 256.689 192.243 255.985C192.071 255.251 191.954 254.122 191.888 252.3C191.822 250.49 191.809 248.056 191.825 244.739L189.825 244.729C189.809 248.048 189.822 250.518 189.889 252.372C189.956 254.213 190.077 255.506 190.296 256.441C190.522 257.406 190.872 258.077 191.445 258.583C191.936 259.016 192.596 259.301 193.076 259.552L194.003 257.779ZM191.825 244.739C191.834 242.831 191.798 238.601 191.825 236.227L189.825 236.205C189.799 238.562 189.834 242.896 189.825 244.729L191.825 244.739ZM139.694 232.787C139.741 234.612 139.692 236.634 139.654 238.586C139.618 240.518 139.592 242.397 139.696 243.87L141.691 243.729C141.594 242.362 141.617 240.576 141.654 238.625C141.691 236.694 141.742 234.617 141.693 232.735L139.694 232.787ZM139.696 243.87C139.905 246.841 140.132 249.208 140.24 251.21C140.348 253.206 140.325 254.682 140.074 255.818C139.833 256.908 139.39 257.651 138.64 258.231C137.851 258.841 136.644 259.332 134.759 259.731L135.174 261.688C137.17 261.265 138.723 260.695 139.864 259.813C141.045 258.899 141.703 257.715 142.027 256.249C142.341 254.828 142.346 253.118 142.238 251.102C142.129 249.091 141.895 246.619 141.691 243.729L139.696 243.87Z" fill="white" mask="url(#path-1-inside-1_161_12)"/>
</svg>
