<svg width="336" height="55" viewBox="0 0 336 55" fill="none" xmlns="http://www.w3.org/2000/svg">
<path fill-rule="evenodd" clip-rule="evenodd" d="M104.028 4.40065L100.628 8.80018L100.808 8.98856L100.989 9.17667L104.488 9.78871L107.987 10.4007L110.31 11.068L112.632 11.7356L114.239 12.5444L115.846 13.3529L117.047 14.6515L118.247 15.9501L118.78 17.1198L119.312 18.2891L119.319 18.6344L119.325 18.9793L110.297 18.8272L101.268 18.6754L97.8185 23.2268L94.3682 27.7781L104.957 27.8482L115.546 27.9185L115.905 28.0525L116.265 28.1867L115.859 28.9592L115.453 29.7317L114.52 30.6206L113.586 31.5098L111.941 32.4933L110.297 33.4771L108.582 34.0352L106.867 34.5937L101.316 35.7184L95.7651 36.8429L95.5232 36.9922L95.2811 37.1412L91.9621 41.3903L88.6428 45.6397L88.4124 46.0179L88.1818 46.396L97.1046 46.2612L106.028 46.1264L108.819 45.5158L111.611 44.9051L114.599 43.942L117.587 42.9792L120.613 41.4325L123.638 39.886L125.471 38.5891L127.303 37.2919L129.449 35.1354L131.595 32.9792L132.761 31.0222L133.927 29.0653L134.669 27.0262L135.411 24.9872L135.416 21.4986L135.421 18.0101L134.789 16.196L134.157 14.3819L133.351 12.9823L132.546 11.5827L131.248 10.1434L129.95 8.70417L128.067 7.31236L126.183 5.92028L123.944 4.81174L121.704 3.70293L119.045 2.71887L116.385 1.73509L113.128 1.01057L109.871 0.286064L108.649 0.143451L107.427 0.00111635L104.028 4.40065ZM168.315 0.291646L166.775 0.550918L164.41 1.00276L162.045 1.45488L159.723 2.2927L157.4 3.13052L155.2 4.44865L153 5.76706L150.836 7.52977L148.672 9.29277L146.85 11.4186L145.027 13.5447L143.649 15.7726L142.271 18.0006L141.138 20.8897L140.005 23.7785L139.483 25.8158L138.96 27.8532L138.636 30.6309L138.312 33.4084L138.639 36.1401L138.967 38.8718L139.525 40.9999L140.082 43.1279L141.146 45.3938L142.209 47.6597L143.391 49.394L144.572 51.1285L146.243 53.0643L147.914 55L148.161 54.8482L148.408 54.6961L152.055 50.2723L155.703 45.8485L155.039 43.2323L154.377 40.6161L153.864 37.8253L153.352 35.0344L153.37 31.5458L153.388 28.0572L153.854 26.2431L154.32 24.4291L155.485 22.0568L156.65 19.6846L158.353 17.9894L160.056 16.2945L161.876 15.2951L163.696 14.2954L165.302 13.8003L166.908 13.3052L167.038 13.4353L167.169 13.5653L165.238 26.8116L163.306 40.0579L162.871 42.9166L162.436 45.7756V45.9168V46.0583H170.091H177.746L179.319 34.8251L180.891 23.5918L182.496 12.0878L184.101 0.583851L183.931 0.413607L183.76 0.243085L176.807 0.137869L169.854 0.0323741L168.315 0.291646ZM193.412 0.497333L193.277 0.985736L193.122 2.24163L192.968 3.49752L191.267 15.2192L189.566 26.9408L188.178 36.3489L186.791 45.7572V45.9249V46.0924L202.258 45.9872L217.724 45.8817L220.076 45.2663L222.428 44.6512L224.229 43.7941L226.03 42.9373L227.788 41.2184L229.545 39.4998L230.41 37.7895L231.275 36.0796L231.613 34.2513L231.951 32.423L231.636 30.5193L231.321 28.6154L230.209 26.3827L229.097 24.15L227.663 22.5514L226.229 20.953L227.287 20.0396L228.345 19.1264L229.537 17.8705L230.729 16.6146L231.541 15.0796L232.353 13.5447L232.703 12.0465L233.053 10.5481L232.909 8.96177L232.764 7.37544L232.143 5.93507L231.521 4.49442L230.143 3.20894L228.764 1.92319L227.507 1.36864L226.25 0.814377L224.367 0.416398L222.483 0.0186988L208.015 0.0136753L193.547 0.00893079L193.412 0.497333ZM241.829 0.776421L241.674 1.54391L241.091 6.00931L240.508 10.4747L239.238 18.9869L237.968 27.499L237.929 30.8481L237.89 34.1971L238.274 35.7321L238.657 37.2671L239.485 38.9168L240.313 40.5664L241.689 42.0163L243.064 43.4662L244.992 44.3523L246.92 45.2381L248.839 45.6433L250.758 46.0486L264.679 46.0536L278.601 46.0583L278.749 45.4304L278.897 44.8024L280.146 36.0112L281.396 27.2199L283.363 13.6842L285.33 0.148474L285.33 0.0742372L285.33 0L277.702 0.0742372L270.074 0.148474L269.306 5.45113L268.539 10.7538L266.986 21.4986L265.434 32.2435L265.289 32.9086L265.145 33.5736L261.731 33.4416L258.316 33.3099L256.994 32.726L255.671 32.1419L255.112 31.2251L254.553 30.308L254.37 29.0948L254.188 27.8817L255.216 20.2947L256.243 12.7074L257.07 6.79577L257.896 0.883869V0.44654V0.00893079H249.94H241.984L241.829 0.776421ZM320.463 0.198989L319.343 0.295553L315.704 0.718371L312.065 1.14147L309.767 1.68345L307.47 2.22544L305.19 3.10205L302.91 3.97867L300.349 5.68166L297.788 7.38437L295.674 9.48785L293.56 11.5911L292.35 13.3711L291.14 15.1511L290.226 17.1387L289.313 19.1264L289.001 20.6053L288.69 22.0842V24.15V26.2158L289.004 27.6947L289.317 29.1735L290.091 30.8863L290.865 32.5991L292.052 34.3417L293.239 36.084L294.943 37.7563L296.647 39.4289L298.617 40.8151L300.587 42.2016L302.127 42.9817L303.667 43.7617L306.046 44.592L308.426 45.4223L310.245 45.7276L312.065 46.0329L315.004 46.1948L317.944 46.3567L321.583 41.7428L325.222 37.1289L325.313 36.7097L325.403 36.2903L323.073 36.2847L320.743 36.2791L318.784 36.0073L316.824 35.7352L314.919 35.1354L313.013 34.5356L311.35 33.5293L309.687 32.5226L308.401 31.2765L307.114 30.0303L306.424 28.6731L305.735 27.3159L305.573 25.9579L305.412 24.5996L305.745 23.2586L306.079 21.9173L307.162 19.6846L308.245 17.4519L309.672 15.8644L311.099 14.2773L312.842 13.1391L314.584 12.001L316.691 11.1889L318.797 10.3767L321.17 9.95337L323.543 9.52971L326.135 9.3444L328.728 9.15909L332.364 4.7389L336 0.318439V0.163824V0.00893079L328.791 0.0558174L321.583 0.102704L320.463 0.198989ZM30.7673 0.725906L28.2924 1.10965L25.704 1.79648L23.1159 2.48332L20.4808 3.5165L17.8458 4.54968L16.0091 5.46564L14.1723 6.38189L11.6478 8.06534L9.12331 9.7488L7.17716 11.6466L5.23128 13.5447L3.90463 15.4017L2.57827 17.2585L1.77567 19.0298L0.973359 20.8009L0.486539 22.9934L0 25.1862L0.141651 28.1566L0.283021 31.1272L0.86866 32.9412L1.4543 34.7553L2.51164 36.5322L3.5687 38.3095L5.36257 40.0984L7.15616 41.8876L9.00182 43.1036L10.8472 44.3196L13.2267 45.5066L15.6062 46.6932L19.3068 47.9073L23.0073 49.1216L26.5612 49.8388L30.1151 50.5564L30.617 50.0515L31.1189 49.5469L34.4892 45.2211L37.8597 40.8952L37.8605 40.7177L37.8616 40.5402L34.5723 39.9379L31.283 39.3359L28.3758 38.6466L25.4689 37.9575L23.7374 37.1337L22.0063 36.3098L20.737 35.1963L19.468 34.0824L18.4468 32.1455L17.4258 30.2084V29.9949V29.7814L27.1936 29.9706L36.9616 30.1598L38.0581 28.8294L39.1547 27.499L41.8673 23.958L44.5802 20.4172V20.2601V20.1032H32.8227H21.0651V19.516V18.9288L22.6837 17.35L24.3021 15.7709L26.253 14.762L28.2036 13.7529L29.6033 13.3222L31.003 12.8916L37.3017 11.5824L43.6004 10.2732L46.5398 6.51697L49.4792 2.76045L50.4159 1.52437L51.3526 0.288018L42.2976 0.315089L33.2426 0.342161L30.7673 0.725906ZM51.9063 5.10423L48.1747 9.90257L48.687 10.1077L49.1993 10.3131L53.6783 11.19L58.1574 12.0669L60.2788 12.7331L62.4005 13.3993L64.0908 14.4883L65.7814 15.5775L66.4963 16.5147L67.2113 17.4519L67.9333 18.8878L68.6552 20.3237V20.6162V20.9087L58.7873 20.7627L48.9193 20.617L45.2339 25.4488L41.5485 30.2807L41.6811 30.4945L41.8138 30.7085H53.4149H65.016V31.291V31.8732L63.518 33.3314L62.0198 34.7896L59.8088 35.933L57.5975 37.0767L56.0579 37.5093L54.5182 37.9416L48.7794 39.0971L43.0405 40.2522L42.7194 40.4342L42.3984 40.6161L38.7303 45.2878L35.0622 49.9594V50.2667V50.5742L44.5102 50.4573L53.9583 50.3406L57.0293 49.7127L60.0999 49.0845L63.048 48.1091L65.9958 47.1336L68.8677 45.7748L71.7399 44.4156L74.1057 42.8781L76.4715 41.3406L78.7572 39.1643L81.043 36.988L82.273 35.2705L83.5028 33.5533L84.3426 31.7065L85.1825 29.8601L85.629 27.9818L86.0758 26.1036L86.0755 23.443L86.0752 20.7828L85.6206 18.9777L85.1662 17.1728L84.1864 15.1748L83.2069 13.1768L81.2174 11.053L79.2278 8.92912L77.0907 7.5214L74.9539 6.11369L72.7144 5.04255L70.4749 3.97141L67.1156 2.8386L63.7563 1.70578L60.2217 0.9969L56.6874 0.288018L56.1625 0.296949L55.6379 0.306159L51.9063 5.10423ZM214.35 12.8414L215.072 13.1149L215.385 13.7997L215.698 14.4846L215.163 15.4101L214.627 16.3355L212.171 18.1811L209.716 20.0267L208.059 20.972L206.403 21.9173L206.395 22.2011L206.387 22.4852L209.469 24.6853L212.552 26.8853L213.651 28.0742L214.75 29.2629L214.934 30.2405L215.118 31.2181L214.932 31.8037L214.745 32.3892L213.855 32.8653L212.965 33.3417L208.398 33.4497L203.831 33.5574L203.991 32.6214L204.151 31.6853L205.409 22.7545L206.666 13.8237L206.812 13.1958L206.957 12.5679H210.293H213.629L214.35 12.8414Z" fill="#6B6D6D"/>
</svg>
