<svg width="336" height="53" viewBox="0 0 336 53" fill="none" xmlns="http://www.w3.org/2000/svg">
<path d="M44.9374 6.54849L32.4548 18.9026C27.6615 14.5539 22.4687 17.0907 20.4715 18.9026L8.98748 6.54849C23.3675 -5.31146 38.9458 1.60685 44.9374 6.54849Z" fill="#6B6D6D"/>
<path d="M45.0049 46.4515L32.5223 34.0974C27.7289 38.4461 22.5362 35.9093 20.5389 34.0974L9.05493 46.4515C23.4349 58.3115 39.0132 51.3932 45.0049 46.4515Z" fill="#6B6D6D"/>
<path d="M43.4395 11.4902L45.936 8.52518C58.7182 23.1525 51.2619 38.0103 45.936 43.6109L43.9388 41.14C53.9249 26.9081 47.7668 15.4435 43.4395 11.4902Z" fill="#6B6D6D"/>
<path d="M9.55424 11.4902L7.05771 8.52518C-5.72449 23.1525 1.7318 38.0103 7.05771 43.6109L9.05493 41.14C-0.931161 26.9081 5.22693 15.4435 9.55424 11.4902Z" fill="#6B6D6D"/>
<path d="M38.9458 16.4318L41.9416 13.4668C50.3299 23.3501 45.4367 34.7159 41.9416 39.1634L38.9458 37.1867C45.7363 27.6988 41.7752 19.3968 38.9458 16.4318Z" fill="#6B6D6D"/>
<path d="M13.9805 16.4318L10.9847 13.4668C2.59638 23.3501 7.48957 34.7159 10.9847 39.1634L13.9805 37.1867C7.18999 27.6988 11.1511 19.3968 13.9805 16.4318Z" fill="#6B6D6D"/>
<path d="M34.9513 20.8793L37.4478 17.9143C43.4395 25.3268 38.9458 33.7276 37.4478 34.7159L34.9513 33.2334C38.1469 27.6988 36.2828 22.6912 34.9513 20.8793Z" fill="#6B6D6D"/>
<path d="M18.4743 20.8793L15.9777 17.9143C9.98609 25.3268 14.4798 33.7276 15.9777 34.7159L18.4743 33.2334C15.2787 27.6988 17.1428 22.6912 18.4743 20.8793Z" fill="#6B6D6D"/>
<path d="M33.9527 26.8093C33.9527 22.3618 30.9569 19.3968 26.4631 19.3968C21.9694 19.3968 18.9736 22.3618 18.9736 26.8093C18.9736 31.2568 21.9694 34.2217 26.4631 34.2217C30.9569 34.2217 33.9527 31.2568 33.9527 26.8093Z" fill="#6B6D6D"/>
<path d="M84.0484 40.1517H77.7958L87.323 12.8379H94.8424L104.356 40.1517H98.1034L91.1905 19.0795H90.9749L84.0484 40.1517ZM83.6576 29.4156H98.4268V33.9234H83.6576V29.4156Z" fill="#6B6D6D"/>
<path d="M132.121 26.4948C132.121 29.4734 131.551 32.0074 130.41 34.0968C129.278 36.1862 127.733 37.7822 125.774 38.8847C123.825 39.9783 121.633 40.5252 119.198 40.5252C116.746 40.5252 114.545 39.9739 112.595 38.8714C110.646 37.7689 109.105 36.1729 107.973 34.0835C106.841 31.994 106.275 29.4645 106.275 26.4948C106.275 23.5162 106.841 20.9823 107.973 18.8928C109.105 16.8034 110.646 15.2118 112.595 14.1182C114.545 13.0157 116.746 12.4645 119.198 12.4645C121.633 12.4645 123.825 13.0157 125.774 14.1182C127.733 15.2118 129.278 16.8034 130.41 18.8928C131.551 20.9823 132.121 23.5162 132.121 26.4948ZM126.205 26.4948C126.205 24.5654 125.914 22.9383 125.33 21.6135C124.755 20.2887 123.942 19.284 122.89 18.5994C121.839 17.9148 120.609 17.5725 119.198 17.5725C117.788 17.5725 116.557 17.9148 115.506 18.5994C114.455 19.284 113.637 20.2887 113.053 21.6135C112.478 22.9383 112.191 24.5654 112.191 26.4948C112.191 28.4242 112.478 30.0513 113.053 31.3761C113.637 32.7009 114.455 33.7056 115.506 34.3902C116.557 35.0748 117.788 35.4171 119.198 35.4171C120.609 35.4171 121.839 35.0748 122.89 34.3902C123.942 33.7056 124.755 32.7009 125.33 31.3761C125.914 30.0513 126.205 28.4242 126.205 26.4948Z" fill="#6B6D6D"/>
<path d="M164.298 12.8379V17.5991H151.82V40.1517H145.985V12.8379H164.298Z" fill="#6B6D6D"/>
<path d="M166.918 40.1517V35.5105L167.7 35.4438C168.706 35.3638 169.519 34.9859 170.139 34.3102C170.759 33.6256 171.221 32.5364 171.527 31.0427C171.841 29.54 172.043 27.5217 172.133 24.9877L172.591 12.8379H191.322V40.1517H185.649V17.4658H178.009L177.577 26.9749C177.434 30.0335 177.065 32.5319 176.472 34.4702C175.888 36.4085 174.954 37.84 173.669 38.7647C172.394 39.6894 170.646 40.1517 168.427 40.1517H166.918Z" fill="#6B6D6D"/>
<path d="M221.874 26.4948C221.874 29.4734 221.303 32.0074 220.162 34.0968C219.03 36.1862 217.485 37.7822 215.527 38.8847C213.577 39.9783 211.385 40.5252 208.951 40.5252C206.498 40.5252 204.297 39.9739 202.348 38.8714C200.398 37.7689 198.857 36.1729 197.725 34.0835C196.594 31.994 196.028 29.4645 196.028 26.4948C196.028 23.5162 196.594 20.9823 197.725 18.8928C198.857 16.8034 200.398 15.2118 202.348 14.1182C204.297 13.0157 206.498 12.4645 208.951 12.4645C211.385 12.4645 213.577 13.0157 215.527 14.1182C217.485 15.2118 219.03 16.8034 220.162 18.8928C221.303 20.9823 221.874 23.5162 221.874 26.4948ZM215.958 26.4948C215.958 24.5654 215.666 22.9383 215.082 21.6135C214.507 20.2887 213.694 19.284 212.643 18.5994C211.592 17.9148 210.361 17.5725 208.951 17.5725C207.54 17.5725 206.309 17.9148 205.258 18.5994C204.207 19.284 203.39 20.2887 202.806 21.6135C202.231 22.9383 201.943 24.5654 201.943 26.4948C201.943 28.4242 202.231 30.0513 202.806 31.3761C203.39 32.7009 204.207 33.7056 205.258 34.3902C206.309 35.0748 207.54 35.4171 208.951 35.4171C210.361 35.4171 211.592 35.0748 212.643 34.3902C213.694 33.7056 214.507 32.7009 215.082 31.3761C215.666 30.0513 215.958 28.4242 215.958 26.4948Z" fill="#6B6D6D"/>
<path d="M226.575 40.1517V12.8379H232.41V24.1075H244.255V12.8379H250.077V40.1517H244.255V28.8688H232.41V40.1517H226.575Z" fill="#6B6D6D"/>
<path d="M260.024 40.1517H253.771L263.298 12.8379H270.818L280.332 40.1517H274.079L267.166 19.0795H266.95L260.024 40.1517ZM259.633 29.4156H274.402V33.9234H259.633V29.4156Z" fill="#6B6D6D"/>
<path d="M307.086 22.4004H301.184C301.076 21.6446 300.856 20.9734 300.523 20.3865C300.191 19.7908 299.764 19.284 299.243 18.8661C298.722 18.4483 298.12 18.1282 297.438 17.9059C296.764 17.6836 296.032 17.5725 295.241 17.5725C293.813 17.5725 292.568 17.9237 291.508 18.6261C290.448 19.3196 289.626 20.3332 289.042 21.6669C288.458 22.9917 288.166 24.601 288.166 26.4948C288.166 28.442 288.458 30.078 289.042 31.4028C289.635 32.7276 290.462 33.7278 291.522 34.4035C292.582 35.0793 293.808 35.4171 295.201 35.4171C295.982 35.4171 296.705 35.3149 297.37 35.1104C298.044 34.9059 298.641 34.608 299.162 34.2168C299.683 33.8167 300.115 33.3322 300.456 32.7631C300.806 32.1941 301.049 31.545 301.184 30.8159L307.086 30.8426C306.933 32.0963 306.552 33.3055 305.941 34.4702C305.339 35.6261 304.526 36.6619 303.502 37.5777C302.486 38.4846 301.274 39.2048 299.863 39.7383C298.462 40.2629 296.876 40.5252 295.106 40.5252C292.645 40.5252 290.444 39.9739 288.503 38.8714C286.572 37.7689 285.045 36.1729 283.922 34.0835C282.808 31.994 282.251 29.4645 282.251 26.4948C282.251 23.5162 282.817 20.9823 283.949 18.8928C285.08 16.8034 286.617 15.2118 288.557 14.1182C290.498 13.0157 292.681 12.4645 295.106 12.4645C296.705 12.4645 298.188 12.6867 299.553 13.1313C300.928 13.5759 302.145 14.2249 303.205 15.0785C304.265 15.9231 305.128 16.959 305.792 18.186C306.466 19.4129 306.897 20.8178 307.086 22.4004Z" fill="#6B6D6D"/>
<path d="M336 22.4004H330.098C329.99 21.6446 329.77 20.9734 329.437 20.3865C329.105 19.7908 328.678 19.284 328.157 18.8661C327.636 18.4483 327.034 18.1282 326.352 17.9059C325.678 17.6836 324.946 17.5725 324.155 17.5725C322.727 17.5725 321.482 17.9237 320.422 18.6261C319.362 19.3196 318.54 20.3332 317.956 21.6669C317.372 22.9917 317.08 24.601 317.08 26.4948C317.08 28.442 317.372 30.078 317.956 31.4028C318.549 32.7276 319.376 33.7278 320.436 34.4035C321.496 35.0793 322.722 35.4171 324.115 35.4171C324.896 35.4171 325.619 35.3149 326.284 35.1104C326.958 34.9059 327.555 34.608 328.076 34.2168C328.597 33.8167 329.029 33.3322 329.37 32.7631C329.72 32.1941 329.963 31.545 330.098 30.8159L336 30.8426C335.847 32.0963 335.465 33.3055 334.855 34.4702C334.253 35.6261 333.44 36.6619 332.416 37.5777C331.4 38.4846 330.188 39.2048 328.777 39.7383C327.376 40.2629 325.79 40.5252 324.02 40.5252C321.559 40.5252 319.358 39.9739 317.417 38.8714C315.486 37.7689 313.959 36.1729 312.836 34.0835C311.722 31.994 311.165 29.4645 311.165 26.4948C311.165 23.5162 311.731 20.9823 312.862 18.8928C313.994 16.8034 315.531 15.2118 317.471 14.1182C319.412 13.0157 321.595 12.4645 324.02 12.4645C325.619 12.4645 327.102 12.6867 328.467 13.1313C329.842 13.5759 331.059 14.2249 332.119 15.0785C333.179 15.9231 334.042 16.959 334.706 18.186C335.38 19.4129 335.811 20.8178 336 22.4004Z" fill="#6B6D6D"/>
</svg>
