<svg width="132" height="112" viewBox="0 0 132 112" fill="none" xmlns="http://www.w3.org/2000/svg">
<path fill-rule="evenodd" clip-rule="evenodd" d="M26.5568 82.0707L26.3455 82.2825V87.1407V91.9986H27.2346H28.1237L28.1577 90.5858L28.1921 89.173L28.2609 88.8756L28.3296 88.5781L28.375 88.1394L28.42 87.7007L30.5758 89.8496L32.7313 91.9986H34.0513H35.3716L32.9331 89.5385L30.4946 87.0785V86.7793V86.4801L32.5692 84.4141L34.6437 82.3482V82.1171V81.886H33.482H32.3199L30.5103 83.8936L28.701 85.9013L28.4064 85.4551L28.1118 85.009L28.18 83.5218L28.2481 82.0347L27.5078 81.9467L26.7678 81.8586L26.5568 82.0707ZM80.21 82.0594L79.9877 82.2825V87.1407V91.9986H82.9375H85.8872L86.6095 91.6684L87.3314 91.338L87.6607 90.6134L87.9896 89.8886V88.9276V87.9669L87.5107 87.2807L87.0321 86.5946L87.3625 86.263L87.6933 85.931V84.6851V83.4392L87.1272 82.7369L86.5611 82.0347L83.4967 81.9354L80.4323 81.8363L80.21 82.0594ZM89.1751 86.9226V91.9986H90.0642H90.9533V89.9166V87.8346H91.1685H91.3839L93.4932 89.9374L95.6024 92.0399L96.7603 91.945L97.9179 91.8498L95.5013 89.3217L93.0848 86.7936L95.1249 84.5628L97.1651 82.3321L97.1711 82.1091L97.177 81.886H96.2052H95.2334L93.3242 83.8193L91.415 85.7526H91.1984H90.9814L90.8934 83.8936L90.8051 82.0347L89.9901 81.9407L89.1751 81.8464V86.9226ZM98.6671 82.7242L97.7697 83.6248V86.7855V89.946L98.2024 90.7859L98.6351 91.6256L99.3138 91.8079L99.9925 91.9905L101.927 91.9944L103.862 91.9986L104.479 91.5643L105.097 91.1301L105.463 90.2443L105.828 89.3586L105.726 86.3736L105.623 83.3886L104.95 82.7134L104.277 82.0386L101.921 81.9312L99.5642 81.8238L98.6671 82.7242ZM85.6071 84.244L85.913 84.8172L85.7331 85.2874L85.5532 85.7576L84.8908 85.9245L84.2284 86.0913L83.0714 85.9965L81.9141 85.9013L81.8222 84.7859L81.7301 83.6706H83.5157H85.3016L85.6071 84.244ZM103.734 84.4885L104.052 85.3064L103.895 87.5023L103.737 89.6982L103.446 89.9897L103.156 90.2812L101.85 90.429L100.544 90.5766L100.046 90.0766L99.5479 89.5766L99.5521 87.2929L99.5559 85.009L99.7346 84.3398L99.9133 83.6706H101.664H103.415L103.734 84.4885ZM36.2634 84.846L35.6606 85.0911L35.3008 85.5262L34.941 85.9614L34.7552 87.3215L34.5693 88.6816L34.7712 89.7619L34.9733 90.8422L35.5494 91.4204L36.1256 91.9986H38.0303H39.9353L40.5494 91.2148L41.1638 90.4311V88.3696V86.3085L40.8736 85.7642L40.5835 85.2202L39.644 84.8915L38.7045 84.5628L37.7855 84.5816L36.8665 84.6006L36.2634 84.846ZM42.0481 85.0833L42.0434 85.6039L41.953 88.4981L41.8629 91.3924L42.0653 91.7217L42.268 92.0506L42.9755 91.9501L43.6829 91.8498L43.7733 90.4371L43.8637 89.0243H45.0011H46.1386L46.3185 89.4948L46.4984 89.9653V90.9819V91.9986H47.3875H48.2766V88.4493V84.9004L47.6865 84.7125L47.0964 84.5245L46.7974 84.7098L46.4984 84.8954V86.0675V87.2397H45.1647H43.8311V86.0818V84.9239L43.3622 84.7434L42.8934 84.5628H42.4731H42.0529L42.0481 85.0833ZM49.3758 84.7484L49.1657 84.9593V87.8842V90.8088L49.7788 91.4242L50.3923 92.0399L52.0484 91.9629L53.7048 91.8858L53.952 92.5571L54.1994 93.2281L55.0168 93.1338L55.8339 93.0396L55.7441 91.8498L55.6543 90.6601L55.5023 87.7608L55.3499 84.8618L54.6455 84.6842L53.9413 84.5069L53.6281 84.7012L53.3148 84.8954V87.549V90.2027L52.5745 90.3892L51.8341 90.5757L51.4003 90.4085L50.9664 90.2413L50.881 87.4765L50.7957 84.7116L50.1908 84.6247L49.5859 84.5379L49.3758 84.7484ZM57.3937 85.0283L56.5822 85.4703L56.3579 86.2805L56.1338 87.091L56.143 88.8363L56.1522 90.5819L56.9728 91.2901L57.7935 91.9986H59.489H61.1848L61.8433 91.5355L62.5021 91.0727V90.197V89.3217H61.6477H60.793L60.633 89.9359L60.4729 90.5501L59.339 90.4564L58.2048 90.3627L58.11 89.6935L58.0155 89.0243H60.2586H62.5021V87.6662V86.3085L62.212 85.7642L61.9219 85.2202L60.9824 84.8915L60.0429 84.5628L59.1239 84.5748L58.2048 84.5866L57.3937 85.0283ZM63.7229 84.799L63.3912 84.91V89.7607V94.6118L63.8358 94.7831L64.2803 94.9541L64.7249 94.7831L65.1694 94.6118V93.3052V91.9986H66.7778H68.3865L69.0006 91.2148L69.6149 90.4311V88.4137V86.3962L69.4309 85.9147L69.2468 85.4331L68.4333 85.0111L67.6198 84.5887L65.8372 84.6384L64.0542 84.6881L63.7229 84.799ZM70.542 84.9632L70.1869 85.3924L70.2714 88.6213L70.3558 91.8498H71.2449H72.134L72.2244 90.4371L72.3148 89.0243H73.6322H74.9495V90.5114V91.9986H75.8478H76.7461L76.6628 88.3551L76.5795 84.7116H75.8386H75.0977L75.0067 85.9756L74.9154 87.2397H73.6159H72.3163L72.225 85.9756L72.134 84.7116L71.5152 84.6229L70.8967 84.534L70.542 84.9632ZM39.2374 88.4294V90.3627L37.9778 90.454L36.7183 90.5456V88.4294V86.3132L37.9778 86.4048L39.2374 86.4961V88.4294ZM60.6516 86.8679L60.7734 87.2397H59.4149H58.0567V86.9919V86.7439L58.2683 86.5315L58.4802 86.3192L59.505 86.4075L60.5298 86.4961L60.6516 86.8679ZM67.7789 88.0817L67.8693 89.6673L67.5205 90.0894L67.1714 90.5114H66.5262H65.8807L65.5251 90.1545L65.1694 89.7976V88.2709V86.7439L65.381 86.5315L65.5929 86.3192L66.6406 86.4075L67.6885 86.4961L67.7789 88.0817ZM85.8588 88.9499L85.7669 90.0653L83.7664 90.1533L81.7659 90.2411V89.038V87.8346H83.8583H85.9509L85.8588 88.9499ZM4.29494 99.7909L3.81868 101.07L1.90949 106.254L0 111.439L0.150258 111.682L0.300219 111.926H1.18843H2.07664L2.6667 110.588L3.25677 109.249H6.14515H9.03383L9.49113 110.513L9.94842 111.778L11.0343 111.87L12.1199 111.962V111.647V111.332L10.1828 106.052L8.2458 100.773L7.84659 99.7317L7.44709 98.6907L6.10929 98.6012L4.7712 98.5119L4.29494 99.7909ZM78.3527 98.9138L78.2179 99.2855L76.5861 103.804L74.9543 108.323L74.3455 109.873L73.7368 111.423L74.0106 111.698L74.2845 111.973L75.1356 111.875L75.9868 111.778L76.4222 110.513L76.8575 109.249H79.8434H82.829L83.2863 110.513L83.7436 111.778L84.569 111.875L85.3946 111.973L85.6688 111.698L85.9429 111.422L84.283 106.99L82.6227 102.557L81.872 100.55L81.1213 98.542H79.8043H78.4872L78.3527 98.9138ZM125.925 101.219V102.111H125.035H124.146V106.11V110.108L124.823 110.898L125.5 111.687L126.877 111.843L128.254 111.999L129.131 111.692L130.009 111.385L130.303 111.681L130.598 111.976L131.299 111.877L132 111.778V107.019V102.26L131.185 102.166L130.37 102.072V101.199V100.327H128.147H125.925V101.219ZM81.0117 104.284L82.0516 107.167H79.847H77.6423L78.6668 104.327L79.6914 101.487V101.303V101.12L79.8316 101.26L79.9717 101.401L81.0117 104.284ZM7.17236 104.044L7.91831 106.126L8.12458 106.647L8.33056 107.167H6.10455H3.87854L4.45023 105.606L5.02222 104.044L5.49315 102.755L5.96437 101.466L6.19553 101.714L6.4264 101.962L7.17236 104.044ZM16.7678 102.334L16.6386 102.557L15.2685 106.832L13.8981 111.106V111.367V111.629H14.8995H15.9012L16.8757 108.506L17.8501 105.383H18.0374H18.225L19.1773 108.506L20.1298 111.629H21.1632H22.1963V111.406V111.183L20.6899 106.647L19.1835 102.111H18.0401H16.8967L16.7678 102.334ZM24.1861 102.296L23.9745 102.508V107.068V111.629H25.0006H26.0269L26.1119 108.886L26.1973 106.143L27.2455 108.812L28.2938 111.48L29.4955 111.569L30.6973 111.659L31.9142 108.744L33.1311 105.829L33.1465 108.729L33.1619 111.629H34.2066H35.2516L35.1698 106.944L35.0883 102.26H33.7846H32.4808L31.2465 105.234L30.0121 108.208L29.7833 108.803L29.5545 109.398L28.132 105.829L26.7091 102.26L25.5533 102.171L24.3975 102.083L24.1861 102.296ZM39.4001 102.396L38.3773 102.655L37.9924 103.184L37.6074 103.712V104.547V105.383H38.6447H39.6819V104.82V104.257L40.1508 104.076L40.6197 103.896H41.6113H42.6032L43.0691 104.363L43.5347 104.83V105.33V105.829H41.1887H38.8423L38.0765 106.55L37.311 107.271V108.799V110.327L37.9121 110.974L38.5128 111.622L39.1716 111.778L39.8301 111.934L42.6456 111.856L45.4611 111.778L45.5453 108.22L45.6291 104.662L45.2821 103.821L44.9353 102.981L44.3968 102.691L43.8583 102.402L42.1406 102.27L40.4229 102.137L39.4001 102.396ZM49.0779 102.586L48.2493 103.037L47.9749 103.761L47.7004 104.485L47.872 104.934L48.0436 105.383H48.9102H49.7771L49.9682 104.862L50.1597 104.342L50.4777 104.123L50.7957 103.905L51.886 103.9L52.976 103.896L53.4413 104.362L53.9063 104.829L53.6002 105.403L53.294 105.978H51.378H49.462V106.87V107.762H51.0677H52.6735L53.1423 107.943L53.6112 108.123V108.952V109.781L53.1423 109.961L52.6735 110.142H51.6848H50.6961L50.2272 109.961L49.7584 109.781V109.069V108.357H48.7119H47.6652L47.5078 108.768L47.3507 109.18L47.7849 110.223L48.2191 111.266L49.3272 111.633L50.435 112L52.525 111.85L54.6152 111.7L55.141 111.048L55.6668 110.397L55.8517 109.408L56.0363 108.42L55.71 107.808L55.384 107.196L55.7145 105.918L56.0452 104.639L55.7192 103.807L55.3932 102.975L54.3633 102.543L53.3338 102.111L51.6202 102.123L49.9066 102.135L49.0779 102.586ZM88.1203 102.496L87.973 102.881L88.0554 107.329L88.1378 111.778L89.0877 111.87L90.0375 111.962L90.1249 109.788L90.2124 107.614L92.1995 107.526L94.1869 107.438L94.2741 109.608L94.3615 111.778H95.2506H96.1397V107.019V102.26L95.1765 102.167L94.2133 102.073V103.89V105.707L92.2128 105.62L90.2124 105.532L90.1235 103.821L90.0346 102.111H89.1511H88.2673L88.1203 102.496ZM98.1968 102.496L98.0495 102.881L98.1319 107.329L98.2143 111.778H99.1034H99.9925L100.141 108.404L100.289 105.031L100.989 104.463L101.688 103.896H102.508H103.328L103.651 104.286L103.974 104.676L104.058 108.227L104.142 111.778L105.08 111.869L106.018 111.96L106.117 108.349L106.216 104.739L106.791 104.317L107.367 103.896H108.311H109.255L109.578 104.286L109.901 104.676L109.985 108.227L110.069 111.778H110.958H111.847L111.93 107.822L112.013 103.867L111.138 102.989L110.263 102.111H108.743H107.224L106.374 102.552L105.524 102.994L104.685 102.554L103.845 102.115L102.714 102.113L101.584 102.111L100.978 102.436L100.373 102.761L100.05 102.436L99.7257 102.111H99.0349H98.3438L98.1968 102.496ZM115.618 102.707L114.648 103.301L114.335 104.119L114.022 104.937L114.12 107.533L114.218 110.129L115.04 110.953L115.861 111.778H118.349H120.837L121.603 111.057L122.368 110.335V109.346V108.357H121.331H120.294V108.892V109.428L119.938 109.785L119.582 110.142H118.456H117.33L116.737 109.547L116.144 108.952V108.208V107.465H119.256H122.368V105.992V104.518L122.014 103.739L121.66 102.959L120.843 102.535L120.027 102.111L118.308 102.112L116.589 102.113L115.618 102.707ZM130.074 105.215V108.318L129.791 109.065L129.508 109.812L128.488 110.004L127.469 110.196L126.845 109.861L126.221 109.526V105.819V102.111H128.147H130.074V105.215ZM119.938 104.253L120.294 104.61V105.145V105.68H118.515H116.737L116.515 105.696L116.293 105.712L116.204 105.286L116.115 104.86L116.595 104.378L117.076 103.896H118.329H119.582L119.938 104.253ZM63.0949 106.87V107.762H66.0585H69.0222V106.87V105.978H66.0585H63.0949V106.87ZM42.9615 107.773L43.5347 108.08V108.803V109.526L42.9615 109.834L42.3881 110.142H41.2426H40.0969L39.7412 109.785L39.3856 109.428V108.62V107.812L39.756 107.662L40.1265 107.512L41.2574 107.488L42.3881 107.465L42.9615 107.773Z" fill="#6B6D6D"/>
<path d="M86.8687 46.6425L97.5558 47.8756V49.6891L87.0131 48.3108V49.9792L97.9891 51.6476V53.316L87.0131 51.6476V53.316L98.4223 55.2746L98.9278 57.3782L87.0131 54.9119V56.5803L99.2888 59.2642L100.011 61.5129L87.0131 58.4663V60.4248L100.589 63.6165L101.383 66.373C97.0503 64.574 82.2473 61.4162 75.3873 60.0621C81.7418 57.1025 85.6893 49.8825 86.8687 46.6425Z" fill="#6B6D6D"/>
<path d="M102.177 67.9688L103.044 70.4352C95.7265 68.1623 79.3589 63.6165 72.4267 63.6165V69.2745H70.9103V56.5803C70.9103 50.9948 77.9147 44.1762 84.7024 44.1762L102.177 44.0311V45.8445C99.698 45.7962 92.728 45.5591 84.7024 45.8445C76.5427 46.1347 72.4267 52.8808 72.4267 56.5803V61.5129C76.2779 61.5371 87.6197 62.8621 102.177 67.9688Z" fill="#6B6D6D"/>
<path d="M86.8687 32.1348L97.5558 30.9017V29.0882L87.0131 30.4664V28.798L97.9891 27.1296V25.4612L87.0131 27.1296V25.4612L98.4223 23.5027L98.9278 21.3991L87.0131 23.8654V22.197L99.2888 19.513L100.011 17.2643L87.0131 20.311V18.3524L100.589 15.1607L101.383 12.4042C97.0503 14.2032 82.2473 17.3611 75.3873 18.7151C81.7418 21.6747 85.6893 28.8948 86.8687 32.1348Z" fill="#6B6D6D"/>
<path d="M103.044 8.34207L102.177 10.8084C87.6197 15.9151 76.2779 17.2402 72.4267 17.2643V22.197C72.4267 25.8965 76.5427 32.6426 84.7024 32.9327C92.728 33.2181 99.698 32.9811 102.177 32.9327V34.7462L84.7024 34.6011C77.9147 34.6011 70.9103 27.7825 70.9103 22.197V9.50269H72.4267V15.1607C79.3589 15.1607 95.7265 10.615 103.044 8.34207Z" fill="#6B6D6D"/>
<path d="M45.3479 32.1348L34.6608 30.9016V29.0881L45.2035 30.4664V28.798L34.2276 27.1296V25.4612L45.2035 27.1296V25.4612L33.7943 23.5026L33.2888 21.399L45.2035 23.8653V22.1969L32.9278 19.513L32.2057 17.2643L45.2035 20.3109V18.3524L31.628 15.1607L30.8337 12.4042C35.1663 14.2031 49.9694 17.361 56.8293 18.7151C50.4748 21.6746 46.5274 28.8947 45.3479 32.1348Z" fill="#6B6D6D"/>
<path d="M30.0394 10.8083L29.1729 8.34201C36.4902 10.6149 52.8578 15.1607 59.7899 15.1607V9.50263H61.3063V22.1969C61.3063 27.7824 54.302 34.6011 47.5142 34.6011L30.0394 34.7462V32.9327C32.5186 32.981 39.4887 33.2181 47.5142 32.9327C55.674 32.6425 59.7899 25.8964 59.7899 22.1969V17.2643C55.9387 17.2401 44.5969 15.9151 30.0394 10.8083Z" fill="#6B6D6D"/>
<path d="M45.2035 46.7875L34.5164 48.0207V49.8341L45.0591 48.4559V50.1243L34.0832 51.7927V53.4611L45.0591 51.7927V53.4611L33.6499 55.4196L33.1444 57.5233L45.0591 55.0569V56.7253L32.7834 59.4093L32.0613 61.658L45.0591 58.6113V60.5699L31.4836 63.7616L30.6893 66.5181C35.0219 64.7191 49.8249 61.5613 56.6849 60.2072C50.3304 57.2476 46.3829 50.0276 45.2035 46.7875Z" fill="#6B6D6D"/>
<path d="M29.0284 70.5802L29.895 68.1139C44.4525 63.0072 55.7943 61.6821 59.6455 61.658V56.7253C59.6455 53.0259 55.5295 46.2797 47.3698 45.9896C39.3442 45.7042 32.3742 45.9412 29.895 45.9896V44.1761L47.3698 44.3212C54.1575 44.3212 61.1619 51.1398 61.1619 56.7253V69.4196H59.6455V63.7616C52.7133 63.7616 36.3457 68.3074 29.0284 70.5802Z" fill="#6B6D6D"/>
<path d="M66.7943 32.9327V27.6374C68.0074 33.0343 73.0044 37.2125 77.4092 38.6633H73.0044L66.7943 32.9327Z" fill="#6B6D6D"/>
<path d="M65.4945 46.0621V51.3575C64.2814 45.9606 59.2845 41.7823 54.8797 40.3316H59.2845L65.4945 46.0621Z" fill="#6B6D6D"/>
<path d="M64.5558 39.6063H66V38.1555H66.5055L67.4442 39.0985V39.6063H66V41.0571H65.4945L64.5558 40.1141V39.6063Z" fill="#6B6D6D"/>
<path d="M65.4945 44.7565V42.2177L62.8228 39.6063H60.3676L65.4945 44.7565Z" fill="#6B6D6D"/>
<path d="M66.5055 34.2384V36.7773L69.1772 39.3887H71.6324L66.5055 34.2384Z" fill="#6B6D6D"/>
<path d="M85.2079 42.2902H112.07V40.4042C108.772 40.4042 98.7834 40.6944 85.2079 40.6944C75.6761 40.6944 67.0832 47.8756 67.0832 60.2072V78.995H68.5274V60.512C68.5274 46.6424 79.6477 42.4836 85.2079 42.2902Z" fill="#6B6D6D"/>
<path d="M46.9365 42.2902H20.0744V40.4042C23.372 40.4042 33.361 40.6944 46.9365 40.6944C56.4683 40.6944 65.0613 47.8756 65.0613 60.2072V78.995H63.6171V60.512C63.6171 46.6424 52.4967 42.4836 46.9365 42.2902Z" fill="#6B6D6D"/>
<path d="M46.9365 36.8499H20.0744V38.7359C23.372 38.7359 33.361 38.4457 46.9365 38.4457C56.4682 38.4457 65.0612 31.2645 65.0612 18.9329V0.145202H63.617V18.6281C63.617 32.4976 52.4967 36.6565 46.9365 36.8499Z" fill="#6B6D6D"/>
<path d="M85.2079 36.7047H112.07V38.5907C108.772 38.5907 98.7834 38.3005 85.2079 38.3005C75.6761 38.3005 67.0832 31.1193 67.0832 18.7877V0H68.5274V18.4829C68.5274 32.3524 79.6477 36.5113 85.2079 36.7047Z" fill="#6B6D6D"/>
</svg>
