<svg width="338" height="62" viewBox="0 0 338 62" fill="none" xmlns="http://www.w3.org/2000/svg">
<path fill-rule="evenodd" clip-rule="evenodd" d="M33.7597 0.717093L31.0207 1.43382L28.7257 2.51112L26.4311 3.58842L24.1653 5.1686L21.8995 6.74842L19.5692 9.18654L17.2386 11.6243L15.5052 14.5037L13.7721 17.3832L12.5867 20.9432L11.4013 24.5032L11.3981 25.7014L11.3948 26.8997H14.0655H16.7362L16.7408 26.2545L16.7458 25.6093L17.7692 22.5647L18.793 19.5197L20.2928 17.1361L21.7926 14.753L24.1856 12.4387L26.5785 10.1245L28.5708 8.90007L30.5631 7.67603L33.175 6.7333L35.7869 5.79057L39.758 5.60808L43.7295 5.42594L46.4479 6.05197L49.1666 6.67837L51.9131 8.10924L54.6597 9.54011L56.6919 11.3072L58.7244 13.074L60.0747 14.8237L61.4253 16.5735L64.3631 16.575L67.3008 16.5765V16.0846V15.5928L65.8426 13.4117L64.3841 11.2305L62.5488 9.26249L60.7132 7.29444L58.5449 5.67776L56.3767 4.06144L53.7377 2.77251L51.0988 1.48359L48.9622 0.869728L46.8257 0.255868L41.6624 0.127934L36.4991 0L33.7597 0.717093ZM25.6384 19.3755L22.9677 21.0483L22.1665 21.9667L21.3653 22.8854V23.6397V24.3944L22.3446 26.1999L23.3238 28.005L25.0152 28.0054L26.7067 28.0057V27.6223V27.2389L25.9945 25.7936L25.2823 24.3484V23.8071V23.2663L26.19 22.5271L27.0977 21.7878L30.6411 19.9035L34.1845 18.0188V17.8506V17.6825L31.2468 17.6925L28.3091 17.7024L25.6384 19.3755ZM32.4041 20.6667L27.953 23.2711L27.3298 23.8521L26.7067 24.4332V24.9854V25.5377L29.4354 29.9977L32.1641 34.4577L32.7292 35.055L33.2943 35.6519L34.8853 36.0497L36.476 36.4479L36.5582 36.3631L36.6401 36.2779L33.7754 31.1819L30.911 26.086L31.2123 25.7977L31.5139 25.509L34.8486 23.9192L38.1831 22.3291L58.5218 23.0956L78.8605 23.8617L82.4186 21.233L85.977 18.6042L77.9742 18.3753L69.9715 18.1463L53.4133 18.1043L36.8552 18.0626L32.4041 20.6667ZM155.344 18.324L153.118 18.4549V33.331V48.2067L158.346 48.4774L163.573 48.748L166.765 48.4984L169.957 48.2488L171.228 47.6991L172.499 47.1493L173.184 46.5182L173.87 45.887L174.376 44.6467L174.883 43.4065L174.877 40.5259L174.871 37.6454L174.37 36.4029L173.868 35.1608L172.724 34.1639L171.58 33.1673H171.073H170.567L170.581 32.8908L170.594 32.6143L171.736 31.8707L172.878 31.1266L173.414 30.0272L173.949 28.9274V25.7936V22.6598L173.237 21.4055L172.525 20.1509L171.235 19.4581L169.946 18.7654L167.853 18.4103L165.759 18.0556L161.664 18.1242L157.569 18.1932L155.344 18.324ZM292.464 18.5607L290.977 19.0633L289.702 19.8799L288.426 20.6962L287.529 22.2811L286.631 23.8665L286.114 26.3968L285.596 28.9274V33.3517V37.7759L286.122 40.3471L286.648 42.9183L287.641 44.5815L288.634 46.2442L290.733 47.3562L292.832 48.4678H297.665H302.498L303.864 47.9678L305.229 47.4679L306.466 46.3438L307.703 45.2193L308.435 43.7327L309.168 42.2462L309.648 39.4582L310.129 36.6698V33.3517V30.0335L309.648 27.2451L309.168 24.4571L308.447 23.0052L307.726 21.5537L306.714 20.5594L305.702 19.565L304.278 18.9287L302.854 18.292L298.403 18.1751L293.951 18.0582L292.464 18.5607ZM318.433 18.3229L316.563 18.4586V33.3708V48.2834H319.946H323.329L323.329 42.8453L323.33 37.4072H328.226H333.121L334.763 36.4081L336.404 35.4089L337.202 33.4884L338 31.5683L337.875 27.2982L337.75 23.0285L337.019 21.7392L336.288 20.4503L335.152 19.6576L334.016 18.8649L331.759 18.4582L329.502 18.0512L324.902 18.1194L320.302 18.1876L318.433 18.3229ZM94.0075 33.3517V48.2834H97.2123H100.417V41.6471V35.0107H105.224H110.031V41.6471V48.2834H113.414H116.797V33.3517V18.4199H113.414H110.031V24.1345V29.8491H105.224H100.417V24.1345V18.4199H97.2123H94.0075V33.3517ZM130.811 18.7698L130.047 19.1053L129.49 20.8823L128.932 22.6598L125.347 34.8264L121.762 46.993L121.57 47.6382L121.378 48.2834H124.76H128.141L128.67 46.3478L129.198 44.4122L129.687 42.5688L130.174 40.7254H134.95H139.726L140.343 42.9375L140.96 45.1496L141.355 46.7165L141.751 48.2834H145.144H148.537L148.283 47.4539L148.028 46.6243L144.011 33.028L139.994 19.4312L139.595 19.0179L139.197 18.6042L135.386 18.5194L131.575 18.4346L130.811 18.7698ZM181.605 33.3517V48.2834H184.765H187.923L192.741 39.3428L197.56 30.4022L198.218 29.034L198.876 27.6654L198.771 37.9746L198.666 48.2834H201.886H205.107V33.3377V18.3922L201.821 18.4981L198.536 18.6042L194.483 25.978L190.43 33.3517L189.044 36.0423L187.659 38.7326V28.5764V18.4199H184.632H181.605V33.3517ZM213.626 19.4976L212.585 20.5752V34.4293V48.2834H215.963H219.341L219.435 36.5777L219.529 24.8719L225.493 24.7709L231.458 24.6699V21.5449V18.4199H223.062H214.667L213.626 19.4976ZM239.962 18.7912L239.385 19.1399L238.997 20.1623L238.608 21.185L234.677 34.5119L230.746 47.8388V48.0611V48.2834H234.092H237.438L238.446 44.4023L239.454 40.5215L244.239 40.6233L249.025 40.7254L249.989 44.3355L250.954 47.9457L251.131 48.1289L251.308 48.3122L254.517 48.2056L257.727 48.0991L253.526 33.9158L249.325 19.7328L248.542 19.0762L247.759 18.4199L244.148 18.431L240.538 18.4424L239.962 18.7912ZM257.808 21.185V23.9502H262.081H266.355V36.1168V48.2834H269.559H272.764V36.1168V23.9502H277.037H281.31V21.185V18.4199H269.559H257.808V21.185ZM165.314 23.5789L166.294 23.5815L167.006 24.3189L167.718 25.0562V26.8587V28.6612L167.052 29.5125L166.386 30.3638L162.957 30.5191L159.528 30.6746V26.8904V23.1063L161.931 23.3411L164.335 23.5763L165.314 23.5789ZM45.375 25.2498L44.0543 26.9185L44.2166 27.0862L44.3787 27.254L53.6142 28.1823L62.8497 29.1107L64.2737 29.111L65.6977 29.1118L70.6751 27.3941L75.6529 25.6764L74.9489 25.398L74.2445 25.1197L60.8912 24.3425L47.5379 23.5656L47.1166 23.5734L46.6954 23.5815L45.375 25.2498ZM135.527 24.5954L135.754 25.6093L136.804 29.6648L137.853 33.7203L138.032 34.3655L138.211 35.0107H134.982H131.753V34.8205V34.6299L132.799 30.6728L133.844 26.7153L134.237 25.1484L134.629 23.5815H134.964H135.3L135.527 24.5954ZM245.822 28.7154L247.128 33.8494L247.343 34.4301L247.558 35.0107H244.315H241.072V34.7387V34.4666L242.358 29.4849L243.644 24.5032L243.771 24.0424L243.899 23.5815H244.208H244.517L245.822 28.7154ZM300.787 24.303L301.926 25.0219L302.479 26.9494L303.032 28.8769V33.3517V37.8264L302.479 39.7539L301.926 41.6814L300.787 42.4217L299.649 43.162L297.444 43.0337L295.238 42.905L294.457 42.1839L293.675 41.4627L293.168 40.221L292.661 38.9793L292.459 35.2438L292.259 31.5082L292.649 28.9392L293.038 26.3699L293.707 25.4367L294.376 24.5032L295.232 24.0479L296.088 23.5922L297.868 23.5881L299.649 23.5841L300.787 24.303ZM330.5 24.2864L331.341 24.991V27.7775V30.564L330.551 31.3829L329.761 32.2017L326.545 32.361L323.329 32.5203V28.0507V23.5815H326.494H329.659L330.5 24.2864ZM41.8932 29.5671L40.6415 31.127L40.7156 31.2041L40.79 31.2808L47.702 32.5925L54.6144 33.9047H55.2451H55.8757L59.6844 32.1678L63.4932 30.4306L62.4594 30.1754L61.4253 29.9203L53.0573 29.1346L44.6892 28.349L43.9172 28.1779L43.1448 28.0068L41.8932 29.5671ZM11.5729 29.6272L10.5046 30.1139L5.25231 33.6732L0 37.2328V38.4793V39.7255L1.03301 40.8706L2.06603 42.0158H2.41606H2.76574L2.95305 41.2736L3.1407 40.5311L4.40767 39.9832L5.67463 39.435H12.8513H20.0275L23.7988 40.0149L27.5702 40.5945L33.8149 42.2267L40.06 43.8592L43.4429 44.9195L46.8257 45.9795L49.9785 44.3433L53.1317 42.7071L52.9526 42.522L52.7735 42.3365L50.69 41.8395L48.6061 41.3422L41.4844 39.8556L34.3626 38.3691L28.8482 37.4054L23.3338 36.442L17.8094 36.1065L12.2851 35.7713L10.8646 35.7595L9.44384 35.7481L11.9329 34.0146L14.4216 32.2806L16.5581 32.2633L18.6947 32.2456L24.1482 32.5649L29.6013 32.8845L28.5993 31.0035L27.5969 29.1225L20.119 29.1317L12.6412 29.1405L11.5729 29.6272ZM68.191 30.887L65.6984 31.8957L65.4495 34.2232L65.2006 36.5511L64.6045 38.4539L64.0084 40.3567L62.8084 42.7531L61.6084 45.1496L60.0423 47.1254L58.4766 49.1015L56.5679 50.7344L54.6597 52.3674L51.9131 53.7997L49.1666 55.232L46.4479 55.8584L43.7295 56.4845L39.758 56.2957L35.7869 56.1069L33.0198 55.1089L30.2526 54.1105L27.6784 52.3585L25.1043 50.6065L23.1244 48.4313L21.1446 46.2557L19.9253 44.1357L18.7064 42.0158H15.7755H12.8445L13.5278 43.6664L14.2112 45.317L15.5212 47.4454L16.8313 49.5738L18.2962 51.3933L19.7615 53.2128L22.3709 55.3596L24.98 57.5065L27.891 58.9642L30.8017 60.422L34.0065 61.211L37.2113 62L42.0185 61.8249L46.8257 61.6498L48.9622 61.0381L51.0988 60.4268L53.7377 59.1379L56.3767 57.849L58.5449 56.2433L60.7132 54.6377L62.6905 52.4743L64.6679 50.3112L65.8248 48.5577L66.9818 46.8043L68.2039 44.1335L69.426 41.4627L70.1025 38.6976L70.7791 35.9325L71.0355 32.8908L71.2919 29.8491L70.9878 29.8639L70.6837 29.8783L68.191 30.887ZM38.8589 33.3546L37.7454 34.6679V34.9577V35.2474L42.417 36.2967L47.0885 37.3456H47.5546H48.0204L50.7437 36.1164L53.4671 34.8869L52.9953 34.6273L52.5231 34.3681L46.8257 33.3697L41.1283 32.3713L40.5503 32.2065L39.9728 32.0414L38.8589 33.3546ZM166.284 35.4923L167.521 35.9325L167.97 36.8542L168.42 37.7759L168.425 39.4774L168.43 41.1789L167.692 42.1503L166.954 43.1218H163.241H159.528V39.0663V35.0107L162.288 35.0314L165.047 35.0524L166.284 35.4923Z" fill="#6B6D6D"/>
</svg>
