<svg width="146" height="112" viewBox="0 0 146 112" fill="none" xmlns="http://www.w3.org/2000/svg">
<path fill-rule="evenodd" clip-rule="evenodd" d="M51.1875 0.0900921L51.0022 0.174039L49.8506 0.384254L48.699 0.59437L47.0701 0.745911L45.4413 0.897452L44.638 1.05355L43.8348 1.20965L42.599 1.60074L41.3633 1.99184L40.7959 2.32346L40.2285 2.65509L39.5996 3.32855L38.9708 4.00201L38.4648 4.71135L37.9588 5.42069L36.9939 7.25752L36.029 9.09425L36.419 8.96362L36.8091 8.83289L38.9114 7.7496L41.0135 6.66622L42.5477 5.8429L44.0819 5.01959L46.1209 3.71102L48.1599 2.40255L49.5193 1.4608L50.8786 0.519045L51.1781 0.259572L51.4778 0L51.4253 0.00297334L51.3729 0.00604578L51.1875 0.0900921ZM95.2005 0.562555L95.8602 1.05375L97.5902 2.23862L99.3203 3.4236L100.741 4.32392L102.163 5.22425L103.893 6.14479L105.623 7.06534L106.673 7.58666L107.723 8.10799L108.813 8.61227L109.902 9.11664L109.82 8.89444L109.739 8.67223L109.148 7.63156L108.558 6.59089L108.032 5.6204L107.507 4.65L107.013 4.03462L106.52 3.41934L105.989 2.91754L105.458 2.41584L104.304 1.95735L103.151 1.49886L102.163 1.24424L101.174 0.989526L99.1967 0.785555L97.2195 0.581584L96.1691 0.393471L95.1187 0.205358L94.8298 0.138359L94.541 0.0714592L95.2005 0.562555ZM51.1257 1.15861L50.5079 1.60263L49.4575 2.3194L48.4071 3.03617L46.5534 4.22501L44.6998 5.41385L43.773 5.95936L42.8462 6.50487L41.5486 7.19686L40.2511 7.88885L38.9535 8.49016L37.656 9.09157L36.9763 9.40912L36.2967 9.72667L37.9649 9.6791L39.6332 9.63163L40.6836 9.41784L41.734 9.20416L42.7844 8.75162L43.8348 8.29908L44.3581 8.01116L44.8813 7.72324L45.587 7.22798L46.2926 6.73272L47.2151 5.91852L48.1374 5.10423L49.0226 4.15444L49.9079 3.20466L50.867 1.99055L51.826 0.776437L51.7848 0.745514L51.7436 0.714592L51.1257 1.15861ZM94.3293 1.06545L94.6103 1.43711L95.2232 2.23L95.8361 3.02289L96.1562 3.36978L96.4764 3.71667L97.4554 4.70778L98.4344 5.69889L99.1245 6.27681L99.8146 6.85473L100.741 7.47616L101.668 8.09748L102.657 8.56083L103.645 9.02407L104.634 9.27641L105.623 9.52875L106.693 9.62528L107.764 9.72192L108.67 9.69268L109.577 9.66334L108.774 9.32884L107.971 8.99444L105.684 7.84802L103.398 6.7016L101.606 5.60999L99.8146 4.51828L97.9651 3.32459L96.1157 2.13089L95.1565 1.41233L94.1974 0.693778H94.1228H94.0482L94.3293 1.06545ZM68.8589 1.14087L67.1906 1.27814L65.7695 1.43761L64.3483 1.59708L62.9272 1.84941L61.5061 2.10175L60.0232 2.44656L58.5403 2.79137L57.0574 3.19247L55.5745 3.59367L54.2139 4.06851L52.8532 4.54326L51.9895 4.91136L51.1257 5.27955L49.5069 6.00624L47.8881 6.73292L46.3557 7.55961L44.8234 8.38639L44.1175 8.77709L43.4115 9.16779L43.2814 9.46512L43.1514 9.76245L42.5045 10.5686L41.8576 11.3748L40.9172 12.3526L39.9767 13.3305L38.234 14.6886L36.4912 16.0467L36.1468 16.219L35.8024 16.3912L35.0283 16.7906L34.2542 17.1901L34.1456 17.4903L34.037 17.7905L33.4607 18.9302L32.8844 20.07L32.0065 21.408L31.1286 22.746L30.3925 23.6268L29.6562 24.5076L28.9911 25.0878L28.326 25.6681V26.1051V26.5421L28.0766 27.7165L27.8272 28.8909L27.5187 29.9316L27.2101 30.9722L26.7062 32.2359L26.2023 33.4996H25.9666H25.7309V33.4191V33.3385L26.107 32.4528L26.483 31.5669L26.915 30.2785L27.3471 28.99L27.5827 27.6054L27.8185 26.2208L27.7666 26.1791L27.7147 26.1376L27.1862 26.5116L26.6578 26.8855L25.8082 27.5413L24.9587 28.1971L24.1922 28.8909L23.4256 29.5847L22.6387 30.4271L21.8519 31.2696L20.8813 32.2359L19.9108 33.2022H19.438H18.9652L18.8879 32.8925L18.8107 32.5828V32.2545V31.9261L18.6173 31.2509L18.424 30.5758L18.0476 29.5847L17.6711 28.5936L16.8388 27.2556L16.0065 25.9176L15.5121 25.2734L15.0177 24.6291L14.4309 23.9034L13.8442 23.1777L13.8049 23.2097L13.7655 23.2416L14.1157 24.7778L14.4658 26.314L14.6623 26.9087L14.8589 27.5034L15.3385 29.1387L15.8181 30.774L16.0239 31.7651L16.2299 32.7562L16.2729 32.9297L16.3161 33.1031H15.9808H15.6457L15.4258 31.9974L15.206 30.8915L14.9742 30.1886L14.7425 29.4856L14.0031 26.9087L13.2636 24.3318L13.1785 23.709L13.0933 23.0863L13.039 23.1299L12.9846 23.1735L12.6933 24.6206L12.4021 26.0677L12.2529 27.4298L12.1037 28.7918L12.1776 30.2785L12.2517 31.7651L12.3976 32.3374L12.5437 32.9097L12.4858 32.956L12.4281 33.0023L10.0893 32.8936L7.75067 32.7849L6.32955 32.8473L4.90843 32.9098L3.82776 33.0512L2.74709 33.1925L2.16937 33.3975L1.59153 33.6025L1.05361 33.9561L0.515558 34.3096L0.257779 34.715L0 35.1202L0.0589456 35.5399L0.117891 35.9594L0.399767 36.4264L0.681644 36.8935L1.39776 37.5074L2.11389 38.1214L3.57294 39.012L5.032 39.9026L6.41766 40.5416L7.80331 41.1807L7.87548 41.478L7.94777 41.7754L8.2619 42.9151L8.57615 44.0549L9.01275 45.046L9.44946 46.0371L9.69464 46.4336L9.93994 46.83L10.9964 48.1071L12.0528 49.384L13.3619 50.459L14.6709 51.5339L16.4628 52.7637L18.2546 53.9935L18.2958 53.9633L18.337 53.9329L18.0746 53.1655L17.812 52.3981L17.253 51.299L16.6941 50.1998L15.7884 48.8123L14.8827 47.4247L13.8866 46.0474L12.8904 44.67L12.4468 43.781L12.0032 42.8919L12.0395 42.812L12.0758 42.732L12.4469 42.8581L12.818 42.9841L13.111 43.5691L13.4041 44.154L14.8634 46.3345L16.3227 48.5149L17.1377 49.8682L17.9527 51.2216L18.198 51.7513L18.4433 52.2812L18.3814 50.8936L18.3195 49.506L18.0737 48.3308L17.8279 47.1555L17.5228 46.1503L17.2176 45.1451L17.0376 44.6744L16.8577 44.2036H16.9391H17.0205L18.1068 44.489L19.193 44.7746L19.2504 44.8205L19.3076 44.8664L19.1143 45.3031L18.921 45.7398L18.8489 46.8796L18.7768 48.0194L18.9185 49.3574L19.0602 50.6954L19.1379 51.2343L19.2157 51.7733L19.6716 50.5406L20.1276 49.3078L20.3827 48.9114L20.6376 48.5149L21.2593 47.2245L21.8811 45.9341L21.9661 45.6626L22.0511 45.391L22.1395 45.3472L22.2279 45.3033L22.4873 45.3577L22.7466 45.4122L22.308 46.4184L21.8693 47.4247L21.5009 48.0689L21.1326 48.7132L20.4675 50.2919L19.8024 51.8706L19.8464 51.906L19.8905 51.9413L21.2758 50.7778L22.6612 49.6143L23.5355 48.569L24.4098 47.5238L24.9428 46.607L25.4756 45.6903H25.8424H26.2092L26.507 45.781L26.8049 45.8719L27.2441 46.6978L27.6833 47.5238L27.871 47.9698L28.0586 48.4158L28.4479 49.2583L28.837 50.1007L29.3807 51.505L29.9245 52.9093L30.3648 54.5239L30.8051 56.1387L30.8837 56.884L30.9621 57.6292L31.405 58.2258L31.8479 58.8225L31.9558 57.757L32.0637 56.6916H32.2502H32.4366L32.822 57.02L33.2073 57.3484L34.0161 58.0854L34.8247 58.8225L35.8808 59.9127L36.9369 61.0029L38.2307 62.4401L39.5245 63.8772L40.7066 65.4629L41.8887 67.0487L42.1102 67.3956L42.3315 67.7425L42.7164 68.5051L43.1014 69.2676L44.8275 70.2735L46.5534 71.2793L46.9048 71.4261L47.2561 71.5728L47.3013 71.5367L47.3466 71.5004L46.7866 70.5874L46.2268 69.6744L45.9982 69.0335L45.7697 68.3927L45.7351 68.018L45.7005 67.6434L45.8798 67.6748L46.0591 67.7061L47.2949 68.1598L48.5307 68.6133L49.3339 68.9027L50.1371 69.192L50.0136 69.0962L49.89 69.0003L48.0364 67.9376L46.1827 66.875L45.1345 66.1689L44.0864 65.4629L42.4947 64.2241L40.9032 62.9852L39.6503 61.8091L38.3974 60.6332L37.3411 59.4529L36.2848 58.2726L35.9228 57.7359L35.5608 57.1991L35.6198 57.1617L35.6788 57.1242L38.5901 55.8176L41.5015 54.5112H41.6201H41.7386L42.2923 55.2258L42.8462 55.9404L44.1908 57.3815L45.5353 58.8225L46.2152 59.4172L46.895 60.0118L48.2071 60.9922L49.5193 61.9725L50.6314 62.685L51.7436 63.3974L52.7582 63.9407L53.7727 64.484L52.1721 66.7306L50.5714 68.9771L50.5396 69.0892L50.5079 69.2012L50.9404 69.3249L51.3729 69.4486L51.6364 69.5153L51.8997 69.582L53.525 67.3986L55.1501 65.2152H55.2282H55.3062L56.1818 65.6L57.0574 65.9849L58.8492 66.6307L60.6411 67.2765L61.5061 67.4969L62.3711 67.7173L63.2362 67.942L64.1012 68.1666L64.7809 68.2845L65.4605 68.4024L66.4491 68.5918L67.4377 68.7811L69.4767 68.9304L71.5157 69.0797L71.7938 69.0801L72.0718 69.0805V71.6574V74.2343L70.9905 74.2333L69.9093 74.2323L68.3646 74.0919L66.8199 73.9515L65.146 73.7015L63.4721 73.4513L62.907 73.3497L62.3418 73.2481L61.9995 73.1438L61.6572 73.0394L61.6063 73.0801L61.5555 73.121L62.9652 73.9659L64.3748 74.8108L65.5316 75.5879L66.6882 76.3652L67.4742 76.9536L68.26 77.542L71.6957 77.5857L75.1313 77.6293L76.4669 77.5564L77.8025 77.4833L78.7989 76.7229L79.7953 75.9623L80.8457 75.2643L81.8961 74.5664L82.9694 73.9475L84.0427 73.3285L84.2051 73.1681L84.3676 73.0079L84.1205 73.083L83.8733 73.1582L83.1936 73.3019L82.514 73.4458L81.1546 73.649L79.7953 73.8524L77.8799 74.0412L75.9645 74.2301L74.8214 74.2322L73.6783 74.2343V71.6574V69.0805L75.2539 69.0797L76.8295 69.0789L77.9359 68.9772L79.0424 68.8755L80.7985 68.5858L82.5546 68.2961L83.5654 68.0892L84.5762 67.8822L86.4085 67.3487L88.2407 66.8153L89.5789 66.3054L90.9171 65.7954L91.0228 65.7778L91.1283 65.7603L92.2585 67.3462L93.3886 68.9319L93.6595 69.2995L93.9304 69.667L94.5245 69.5093L95.1187 69.3515L95.2272 69.2727L95.3357 69.1939L93.9546 67.194L92.5735 65.1942L92.6104 65.1156L92.6472 65.0369L94.3772 64.1215L96.1073 63.2062L96.7252 62.8006L97.3431 62.3951L98.6406 61.4536L99.9382 60.5122L100.921 59.6836L101.903 58.8549L102.472 58.286L103.042 57.7172L104.203 56.4086L105.364 55.1001L105.541 55.1545L105.717 55.2088L107.956 56.2615L110.195 57.314L110.24 57.3444L110.285 57.375L110 57.7518L109.716 58.1287L108.788 59.1694L107.861 60.21L107.036 61.102L106.211 61.9941L103.816 63.9301L101.421 65.866L99.691 66.909L97.9609 67.9519L96.9723 68.4802L95.9837 69.0084L95.8602 69.0992L95.7366 69.1899L96.1691 69.0433L96.6016 68.8967L98.3935 68.2557L100.185 67.6147L100.218 67.639L100.251 67.6634L100.124 68.385L99.9962 69.1067L99.2652 70.3325L98.534 71.5583H98.6014H98.6688L99.8596 70.9278L101.05 70.2974L101.894 69.7989L102.738 69.3004L103.668 67.7781L104.599 66.2558L105.656 64.9178L106.713 63.5798L107.339 62.8365L107.966 62.0932L109.043 60.9534L110.12 59.8136L110.789 59.1198L111.458 58.426L112.502 57.5408L113.545 56.6555L113.744 56.7168L113.943 56.778L114.032 57.7829L114.121 58.7879L114.542 58.1882L114.963 57.5886L115.212 56.2233L115.461 54.858L116.006 53.1236L116.551 51.3892L117.033 50.2494L117.515 49.1096L118.215 47.6725L118.915 46.2354L119.281 45.6159L119.646 44.9965L119.802 44.998L119.957 44.9996L120.086 45.0723L120.214 45.1451L120.536 45.7398L120.859 46.3345L120.95 46.5782L121.041 46.8218L121.453 47.4206L121.866 48.0194L122.768 48.9824L123.67 49.9455L124.826 50.8941L125.983 51.8427L126.027 51.807L126.072 51.7713L125.468 50.3414L124.865 48.9114L124.527 48.3167L124.188 47.722L123.697 46.6318L123.205 45.5416L123.14 45.3602L123.075 45.1789L123.422 45.2116L123.769 45.2443L124.181 46.1858L124.593 47.1274L124.99 47.8212L125.386 48.5149L126.087 50.1503L126.788 51.7856L126.895 51.1909L127.001 50.5963V47.983V45.3698L127.722 45.4223L128.442 45.4747L128.501 45.522L128.56 45.5692L128.373 46.15L128.187 46.7309L127.884 48.3167L127.58 49.9025L127.517 51.067L127.454 52.2316H127.496H127.537L127.751 51.7113L127.965 51.1909L128.871 49.7043L129.777 48.2176L130.686 46.9291L131.595 45.6407L131.924 45.6094L132.253 45.578V45.6466V45.715L130.901 47.7097L129.549 49.7043L128.943 50.844L128.337 51.9838L128.077 52.628L127.816 53.2723L127.73 53.6636L127.644 54.0549L128.796 53.2671L129.947 52.4794L131.658 51.1536L133.369 49.8278L133.967 49.2209L134.565 48.614L135.315 47.655L136.064 46.696L136.312 46.2467L136.56 45.7973L138.33 45.8003L140.1 45.8033L141.552 45.6463L143.005 45.4892L143.671 45.2892L144.338 45.0891L144.814 44.8121L145.29 44.5352L145.645 44.0118L146 43.4884L145.924 43.0426L145.848 42.5967L145.507 42.0934L145.167 41.5901L144.584 41.0774L144 40.5647L142.545 39.7251L141.089 38.8855L140.162 38.3882L139.235 37.8911L137.505 37.2024L135.775 36.5137L134.292 36.0301L132.809 35.5466L132.703 35.4735L132.596 35.4003L132.857 34.7721L133.117 34.1438L133.396 33.004L133.674 31.8642L133.663 29.4856L133.651 27.1069L133.328 25.1372L133.005 23.1674L132.96 23.1311L132.915 23.0948L132.634 24.407L132.354 25.7194L131.504 28.4449L130.655 31.1705L130.475 32.1616L130.296 33.1527L130.215 33.7969L130.135 34.4411L130.075 34.61L130.016 34.779L129.704 34.6651L129.392 34.5513L129.461 34.2484L129.53 33.9456L129.659 33.004L129.789 32.0625L129.907 31.4678L130.026 30.8731L130.285 30.1298L130.544 29.3865L131.15 27.2192L131.756 25.0519L131.949 24.16L132.142 23.2681L132.097 23.2319L132.052 23.1955L130.99 24.606L129.928 26.0167L129.184 27.206L128.441 28.3954L128.007 29.3369L127.574 30.2785L127.454 30.6749L127.335 31.0714L127.112 32.4837L126.889 33.896L126.822 33.8945L126.754 33.893L126.589 33.8089L126.423 33.7249L125.168 32.3846L123.912 31.0444L122.804 29.9181L121.697 28.7918L120.045 27.4786L118.393 26.1654H118.28H118.166V26.4252V26.685L118.356 27.7384L118.547 28.7918L118.929 30.0802L119.311 31.3687L119.665 32.1097L120.019 32.8508V32.8779V32.9049H119.725H119.43L118.902 31.3935L118.374 29.882L118.149 29.0396L117.925 28.1971L117.778 26.9582L117.631 25.7194L117.241 25.3725L116.851 25.0256L116.325 24.5076L115.8 23.9898L114.844 22.7167L113.889 21.4436L113.181 20.1843L112.474 18.925L112.094 18.0815L111.713 17.2381L110.707 16.7061L109.701 16.1741L108.712 15.4834L107.723 14.7927L106.559 13.7784L105.394 12.7641L104.369 11.6597L103.344 10.5553L102.952 9.89338L102.56 9.23141L101.125 8.39482L99.691 7.55812L98.6276 7.01172L97.5643 6.46522L95.9708 5.77808L94.3772 5.09095L92.8325 4.51253L91.2879 3.93412L89.3724 3.35214L87.457 2.77006L85.2944 2.33288L83.1319 1.8957L81.1546 1.5948L79.1774 1.2939L77.6409 1.19042L76.1044 1.08685L73.3157 1.04523L70.5271 1.0037L68.8589 1.14087ZM30.9582 3.53926L30.4696 4.014L29.5444 5.00512L28.6191 5.99623L27.8075 7.08645L26.996 8.17667L26.7171 8.62079L26.4383 9.06491L26.1395 9.76057L25.8407 10.4562L25.5907 11.3482L25.3407 12.2402L25.2719 13.8734L25.203 15.5064L25.3634 16.6237L25.5239 17.7409H25.5981H25.6724L26.9977 14.8915L28.3229 12.042L28.8846 10.704L29.4461 9.36601L29.9265 8.02801L30.4068 6.69001L30.9803 4.92018L31.5538 3.15045L31.5003 3.10743L31.4467 3.06452L30.9582 3.53926ZM113.409 4.4828L113.316 5.94281L113.404 6.81191L113.491 7.68112L113.731 8.69463L113.972 9.70804L114.348 10.7264L114.725 11.7447L115.452 12.9656L116.18 14.1867L116.816 15.0782L117.452 15.9697L118.163 16.7315L118.874 17.4931L119.319 17.8896L119.764 18.286L118.861 16.502L117.957 14.718L116.768 11.873L115.579 9.02804L114.648 6.25679L113.716 3.48544L113.609 3.25412L113.501 3.02289L113.409 4.4828ZM114.458 3.11824V3.20645L115.022 4.94823L115.586 6.69001L116.315 8.72178L117.044 10.7536L117.467 11.7447L117.89 12.7358L118.468 13.9747L119.046 15.2136L119.678 16.4795L120.31 17.7455L120.403 17.6688L120.495 17.5922L120.649 15.6306L120.804 13.669L120.656 12.6453L120.507 11.6215L120.128 10.6424L119.748 9.66334L119.489 9.16779L119.229 8.67223L118.494 7.58419L117.758 6.49614L116.277 4.90818L114.796 3.32022L114.627 3.17513L114.458 3.02993V3.11824ZM32.0448 4.10945L31.7561 5.09699L31.2896 6.389L30.823 7.68112L30.2481 9.26501L29.6734 10.8489L28.4285 13.6259L27.1836 16.4029L26.7 17.3398L26.2163 18.2766L26.2663 18.2318L26.3163 18.1869L26.8577 17.6418L27.3992 17.0967L27.8991 16.5516L28.3991 16.0065L28.9429 15.3127L29.4868 14.6189L30.0238 13.7765L30.5608 12.934L30.9722 12.0916L31.3837 11.2491L31.6553 10.4562L31.927 9.66334L32.1779 8.72178L32.4289 7.78023L32.4858 6.04578L32.5429 4.31134L32.4381 3.71667L32.3333 3.122L32.0448 4.10945ZM72.3989 5.11919L72.319 5.87749V7.67537V9.47335L70.3109 9.64689L68.3028 9.82043L67.0052 10.0045L65.7077 10.1885L64.163 10.5387L62.6183 10.8889L61.0118 11.346L59.4053 11.8031L57.5045 12.542L55.6036 13.2809H55.5055H55.4074L53.7722 10.9867L52.137 8.69255L52.3729 8.54626L52.6087 8.39997L54.0916 7.8278L55.5745 7.25563L57.0574 6.78793L58.5403 6.32022L59.8378 5.98166L61.1354 5.64299L62.124 5.43863L63.1126 5.23436L64.7809 4.99104L66.4491 4.74772L67.3759 4.64623L68.3028 4.54474L69.7857 4.46734L71.2686 4.38993L71.8737 4.37546L72.4788 4.36089L72.3989 5.11919ZM76.6441 4.50431L78.6831 4.64524L79.6099 4.75892L80.5368 4.8726L82.514 5.2183L84.4912 5.5641L85.9123 5.91694L87.3334 6.26987L89.0635 6.83639L90.7935 7.40291L92.4759 8.07766L94.1583 8.75231L92.7507 10.6945L91.3433 12.6367L91.2384 12.7755L91.1336 12.9143L89.975 12.461L88.8163 12.0075L87.5806 11.6174L86.3448 11.2273L85.2326 10.9243L84.1205 10.6214L82.3904 10.3033L80.6603 9.98525L79.6717 9.86037L78.6831 9.73559L77.0766 9.62469L75.4702 9.51368L74.6978 9.51418L73.9255 9.51467V6.93778V4.36089L74.2653 4.36218L74.6051 4.36347L76.6441 4.50431ZM52.3615 11.5715L53.968 13.8221L53.9943 13.9231L54.0206 14.0242L52.3299 14.9658L50.6391 15.9073L49.0906 17.0085L47.5421 18.1095L46.5511 18.9907L45.5603 19.8718L44.9336 20.4665L44.307 21.0611L43.0973 22.4982L41.8877 23.9354L41.8548 23.9662L41.822 23.9969L38.783 22.5942L35.7442 21.1915L35.8847 20.9777L36.0252 20.7638L36.9131 19.6736L37.8009 18.5833L38.3464 18.0735L38.8917 17.5636L40.0834 16.4382L41.2752 15.3127L43.2346 13.8223L45.1941 12.332L46.7388 11.4304L48.2835 10.5289L49.4539 9.92262L50.6243 9.31645L50.6896 9.31873L50.755 9.32101L52.3615 11.5715ZM32.9119 9.64818L32.6166 9.78426L32.453 10.0211L32.2892 10.258L32.2848 10.5878L32.2804 10.9175L32.6417 11.2072L33.0029 11.4969H33.5556H34.1085L34.492 11.1465L34.8755 10.7962V10.5966V10.3969L34.6983 10.122L34.5211 9.84709L34.3523 9.7348L34.1836 9.62251L33.6954 9.5673L33.2073 9.5121L32.9119 9.64818ZM96.8832 10.1438L98.0845 10.773L99.1767 11.4229L100.269 12.0726L101.957 13.2681L103.645 14.4636L104.839 15.4908L106.033 16.5181L106.68 17.2038L107.327 17.8896L108.095 18.6825L108.862 19.4753L109.56 20.346L110.257 21.2167V21.3013V21.3858L107.841 22.4986L105.425 23.6114L105.388 23.5752L105.352 23.5389L104.819 22.8947L104.285 22.2505L103.076 20.9998L101.868 19.7491L100.285 18.4335L98.7024 17.1179L97.2813 16.2106L95.8602 15.3035L95.1805 14.9076L94.5008 14.5117L93.5366 14.0346L92.5722 13.5576L92.6097 13.4404L92.6472 13.3232L94.0683 11.4225L95.4894 9.52181L95.5857 9.51824L95.682 9.51467L96.8832 10.1438ZM111.738 9.69971L111.308 9.88466L111.199 10.1885L111.091 10.4924L111.165 10.7308L111.24 10.9691L111.51 11.244L111.779 11.5188L112.441 11.4748L113.103 11.4307L113.291 11.2408L113.478 11.0509L113.59 10.8378L113.701 10.6247L113.559 10.2537L113.417 9.88267L113.042 9.69902L112.666 9.51537L112.417 9.51507L112.168 9.51467L111.738 9.69971ZM39.8748 10.3572L38.3862 10.6905L36.607 11.2026L34.8277 11.7147L33.0752 12.3922L31.3227 13.0697L30.9443 13.7181L30.566 14.3666L29.9955 15.0739L29.4251 15.7812L29.4633 15.8118L29.5015 15.8424L30.8601 15.1514L32.2187 14.4603L34.6902 13.4648L37.1617 12.4692L38.83 11.6342L40.4982 10.7991L41.0543 10.4049L41.6104 10.0107L41.4868 10.0173L41.3633 10.0239L39.8748 10.3572ZM104.573 10.1613L104.758 10.341L105.623 10.8497L106.488 11.3583L107.6 11.9068L108.712 12.4553L111.191 13.4533L113.669 14.4513L114.836 15.0162L116.003 15.5813L116.219 15.7349L116.436 15.8885V15.7943V15.7L115.867 14.9612L115.298 14.2225L114.938 13.6525L114.578 13.0826L112.846 12.3865L111.113 11.6905L109.295 11.1931L107.476 10.6958L106.179 10.3969L104.881 10.0979L104.635 10.0398L104.389 9.98169L104.573 10.1613ZM34.3309 10.3584L34.4088 10.6075L34.2563 10.7549L34.1038 10.9022H33.8966H33.6892L33.5409 10.7833L33.3926 10.6644V10.5058V10.3472L33.5409 10.2283L33.6892 10.1093H33.9711H34.253L34.3309 10.3584ZM112.406 10.2661L112.481 10.4229V10.6111V10.7994L112.162 10.8637L111.842 10.9279L111.651 10.7748L111.46 10.6216L111.541 10.3655L111.621 10.1093H111.976H112.331L112.406 10.2661ZM40.9724 11.1844L40.2511 11.6647L38.4592 12.5107L36.6674 13.3567L35.0447 14.0074L33.4222 14.6581L31.8518 15.408L30.2814 16.1581L29.2494 16.8044L28.2174 17.4506L27.6539 17.9534L27.0903 18.4561V18.5353V18.6144L27.3065 18.5761L27.5228 18.5378L29.0675 18.2445L30.6122 17.9511L32.2804 17.3957L33.9487 16.8403L34.791 16.4398L35.6333 16.0394L36.7064 15.313L37.7796 14.5865L38.4183 14.0575L39.057 13.5287L40.1844 12.4385L41.3117 11.3482L41.5496 11.0261L41.7875 10.704H41.7407H41.6938L40.9724 11.1844ZM104.34 11.0261L104.619 11.3482L105.642 12.3538L106.666 13.3594L108.278 14.5794L109.89 15.7993L110.907 16.3028L111.925 16.8063L113.099 17.2176L114.273 17.6289L115.223 17.8834L116.172 18.1379L117.537 18.3746L118.901 18.6113L118.789 18.4487L118.677 18.286L117.896 17.6407L117.115 16.9954L116.188 16.4894L115.262 15.9835L113.438 15.1286L111.615 14.2737L110.825 13.9863L110.034 13.6989L108.446 12.9761L106.858 12.2534L105.87 11.7358L104.881 11.218L104.582 10.961L104.282 10.704H104.172H104.061L104.34 11.0261ZM72.319 13.0331V15.164L72.1027 15.1641L71.8865 15.1642L70.2182 15.3197L68.5499 15.4751L67.4995 15.667L66.4491 15.8589L65.2752 16.1195L64.1012 16.3803L62.4329 16.9183L60.7647 17.4563L59.9196 17.8464L59.0746 18.2365H58.9833H58.8919L57.6243 16.3948L56.357 14.553L56.3982 14.5293L56.4395 14.5055L56.9984 14.2491L57.5572 13.9927L58.7285 13.5785L59.8996 13.1643L60.8933 12.8339L61.8871 12.5036L64.0445 12.0082L66.202 11.513L67.2524 11.3616L68.3028 11.2103L70.0328 11.0946L71.7629 10.9788L71.8144 10.9405L71.8658 10.9022H72.0925H72.319V13.0331ZM77.2002 11.0054L78.3124 11.1069L80.0425 11.3569L81.7725 11.6069L83.5877 12.0024L85.4031 12.3979L86.1828 12.6453L86.9627 12.8927L88.5981 13.508L90.2336 14.1233L90.2355 14.1925L90.2375 14.2617L89.2088 15.6296L88.1802 16.9976L87.8519 17.4136L87.5237 17.8297L86.2546 17.3483L84.9855 16.8668L83.7947 16.5136L82.6041 16.1604L81.3852 15.9064L80.1665 15.6524L78.807 15.4628L77.4474 15.2732L75.6864 15.2059L73.9255 15.1386V13.0204V10.9022L75.0067 10.903L76.088 10.9038L77.2002 11.0054ZM124.107 12.9128L124 13.1395L123.741 13.8377L123.481 14.5359L123.175 15.7225L122.868 16.9092L122.725 18.1159L122.583 19.3227L122.728 20.5884L122.874 21.854L123.171 23.0434L123.469 24.2327L124.08 25.6698L124.691 27.1069L125.154 27.8771L125.616 28.6473L125.647 28.6204L125.679 28.5936L125.567 28.0485L125.455 27.5034L125.147 25.442L124.839 23.3806L124.596 20.9325L124.352 18.4842L124.324 15.5852L124.296 12.6862H124.256H124.215L124.107 12.9128ZM21.6173 15.7091L21.5374 18.6825L21.2265 21.854L20.9154 25.0256L20.6071 26.6114L20.2988 28.1971L20.2522 28.4172L20.2057 28.6371L20.2977 28.5916L20.3896 28.546L20.9441 27.5291L21.4985 26.5122L22.0682 25.0453L22.6378 23.5783L22.8798 22.4189L23.1218 21.2594L23.2012 20.3673L23.2808 19.4753L23.1512 18.1373L23.0215 16.7993L22.7607 15.7603L22.4999 14.7213L22.0986 13.7285L21.6973 12.7358L21.6173 15.7091ZM19.9006 14.4579L19.0753 16.0065L18.5654 17.1958L18.0556 18.3851L17.8571 19.3267L17.6586 20.2682L17.6073 21.5767L17.556 22.8851L17.8108 23.9058L18.0657 24.9265L18.5529 26.2149L19.0403 27.5034L19.2762 27.9475L19.512 28.3915L19.7156 27.3528L19.9193 26.314L20.2249 24.0345L20.5305 21.7549L20.6699 19.2771L20.8093 16.7993L20.7678 14.8544L20.7261 12.9094L19.9006 14.4579ZM125.094 14.4702L125.09 16.1056L125.27 18.9798L125.45 21.854L125.58 23.1425L125.71 24.4309L125.833 25.2734L125.955 26.1158L126.16 27.2336L126.364 28.3514L126.454 28.2742L126.544 28.1971L127.105 26.9087L127.666 25.6202L127.982 24.5469L128.299 23.4735V21.8707V20.2678L128.061 19.2769L127.823 18.286L127.382 17.2772L126.942 16.2682L126.398 15.1398L125.854 14.0115L125.476 13.4232L125.098 12.8349L125.094 14.4702ZM92.9446 15.4059L94.0102 15.9452L95.2574 16.6822L96.5045 17.4191L97.6624 18.2986L98.8203 19.178L99.9399 20.1691L101.059 21.1602L101.555 21.6558L102.051 22.1514L102.941 23.1542L103.831 24.1571L103.828 24.2444L103.825 24.3318L101.634 25.3229L99.444 26.314H99.3019H99.1597L98.7307 25.8026L98.3016 25.2912L97.4516 24.4151L96.6016 23.5389L95.1805 22.3676L93.7594 21.1962L92.4336 20.3685L91.1079 19.5409L90.0481 19.0275L88.9884 18.514L89.0259 18.4L89.0635 18.286L90.3468 16.5763L91.6302 14.8667H91.7546H91.8789L92.9446 15.4059ZM56.3724 17.1765L57.641 18.9411L57.5964 18.9691L57.5517 18.9971L56.1933 19.7318L54.835 20.4665L53.0524 21.854L51.2697 23.2416L50.042 24.4791L48.8143 25.7165L48.523 26.164L48.2316 26.6114L48.1198 26.7442L48.0079 26.877L45.7051 25.8196L43.4023 24.762V24.6902V24.6184L43.7798 24.141L44.1573 23.6636L45.2191 22.476L46.2808 21.2884L47.539 20.1837L48.7972 19.0789L50.2086 18.0836L51.62 17.0883L52.0526 16.8538L52.4851 16.6193L52.8558 16.3515L53.2265 16.0837L54.0887 15.676L54.9509 15.2685L55.0273 15.3401L55.1036 15.4118L56.3724 17.1765ZM72.319 18.8311V21.1107H71.8716H71.4243L69.6782 21.3134L67.932 21.5159L66.0166 22.0138L64.1012 22.5115L63.3237 22.8179L62.5461 23.1242L62.4391 23.0342L62.3322 22.9442L61.0824 21.2169L59.8325 19.4896L59.9897 19.4003L60.1468 19.3109L61.4443 18.8121L62.7419 18.3133L64.3483 17.8398L65.9548 17.3664L67.1288 17.1519L68.3028 16.9373L69.7239 16.7549L71.145 16.5725L71.732 16.562L72.319 16.5516V18.8311ZM78.6507 16.8948L80.472 17.1427L82.0713 17.5365L83.6708 17.9304L85.1618 18.4551L86.6529 18.9798L86.6534 19.0695L86.6538 19.1592L85.211 21.1508L83.7683 23.1425L83.7288 23.1832L83.6894 23.2238L82.731 22.8663L81.7725 22.5088L81.0929 22.2943L80.4132 22.0798L79.1156 21.7905L77.8181 21.5012L76.3352 21.3072L74.8523 21.1133L74.3889 21.112L73.9255 21.1107V18.816V16.5213L75.3775 16.5841L76.8295 16.6469L78.6507 16.8948ZM31.2301 18.2518L29.8707 18.8524L28.6968 19.4993L27.5228 20.1463L26.3488 20.8947L25.1748 21.643L24.4153 22.1728L23.656 22.7025L23.3764 23.6162L23.097 24.53L22.8689 25.0666L22.6409 25.6032L22.6889 25.6417L22.7368 25.6801L23.7086 24.8273L24.6805 23.9745L25.2366 23.6308L25.7927 23.2871L27.7081 21.9263L29.6236 20.5656L30.8412 19.5249L32.0589 18.4842L32.362 18.063L32.6651 17.6418L32.6273 17.6465L32.5894 17.6513L31.2301 18.2518ZM113.398 17.8943L113.635 18.1869L114.53 19.0293L115.425 19.8718L116.332 20.5747L117.239 21.2776L119.48 22.8253L121.72 24.373L122.488 25.0462L123.256 25.7194L123.187 25.5211L123.117 25.3229L122.809 24.4309L122.501 23.5389L122.369 23.1216L122.237 22.7044L121.455 22.1503L120.673 21.5962L119.326 20.7551L117.98 19.9139L116.806 19.2893L115.632 18.6647L114.397 18.1332L113.161 17.6018L113.398 17.8943ZM32.6366 18.7985L32.2395 19.2615L30.8079 20.4156L29.3764 21.5697L27.876 22.5752L26.3754 23.5807L25.1115 24.6005L23.8475 25.6202L23.0068 26.4162L22.1661 27.2122L21.6517 27.9772L21.1371 28.7422H21.268H21.3987L22.0911 28.4966L22.7835 28.2511L23.8557 27.7347L24.9277 27.2184L25.6074 26.8218L26.287 26.4252L27.3085 25.7439L28.3301 25.0625L28.9668 24.4494L29.6036 23.8362L29.9986 23.3407L30.3938 22.8451L31.0201 21.9397L31.6465 21.0344L32.2829 19.9171L32.9193 18.7998L33.0293 18.5677L33.1393 18.3356H33.0865H33.0338L32.6366 18.7985ZM112.911 18.5338L113.003 18.7816L113.374 19.4753L113.745 20.1691L114.486 21.3089L115.227 22.4487L116.047 23.4304L116.868 24.4122L117.609 25.0035L118.351 25.5949L119.216 26.16L120.081 26.7251L120.822 27.1227L121.564 27.5202L122.352 27.8879L123.141 28.2555L123.887 28.4987L124.633 28.7419L124.69 28.696L124.748 28.6499L124.219 27.9092L123.691 27.1686L122.861 26.3448L122.031 25.5211L120.809 24.5781L119.587 23.6349L117.857 22.4535L116.127 21.2721L115.027 20.3737L113.928 19.4753L113.374 18.8807L112.82 18.286L112.911 18.5338ZM24.6547 19.001L24.2583 19.1606L24.1295 19.4566L24.0009 19.7527V20.025V20.2973L24.4525 20.6153L24.9042 20.9334L25.3369 20.8771L25.7695 20.8208L26.1087 20.5601L26.4479 20.2995L26.499 20.0857L26.5499 19.8718L26.4495 19.5612L26.3492 19.2506L26.0692 19.1034L25.7891 18.9562L25.4201 18.8989L25.0513 18.8415L24.6547 19.001ZM120.183 18.9757L119.791 19.1126L119.58 19.3702L119.37 19.6279L119.443 19.9976L119.516 20.3673L119.893 20.6399L120.27 20.9125H120.583H120.896L121.259 20.7621L121.621 20.6118L121.82 20.304L122.018 19.9962L121.811 19.5602L121.603 19.1242L121.25 18.9777L120.896 18.8311L120.736 18.835L120.575 18.8389L120.183 18.9757ZM25.9109 19.559L26.1381 19.6923L26.0557 19.9554L25.9734 20.2187H25.6915H25.4096L25.2613 20.0998L25.1131 19.9808V19.859V19.7373L25.3072 19.5815L25.5015 19.4258H25.5925H25.6837L25.9109 19.559ZM120.631 19.569L120.78 19.7122L120.739 19.9407L120.699 20.1691L120.414 20.2015L120.129 20.2339L119.951 20.115L119.772 19.9962V19.8667V19.7373L119.966 19.5815L120.16 19.4258H120.322H120.483L120.631 19.569ZM88.9262 20.034L89.5578 20.345L90.855 21.149L92.1521 21.9531L93.0488 22.5796L93.9453 23.2062L95.257 24.4627L96.5685 25.7194L97.1635 26.4233L97.7586 27.1273L94.9786 28.3909L92.1985 29.6544L92.1634 29.6195L92.1283 29.5847L91.5016 28.8327L90.875 28.0808L89.6159 26.9695L88.3569 25.8583L87.7112 25.4757L87.0656 25.0933L86.4815 24.6877L85.8972 24.2822H85.7979H85.6985L85.3839 24.0837L85.0693 23.8853L86.5721 21.8056L88.0749 19.7259L88.1847 19.7245L88.2947 19.7231L88.9262 20.034ZM59.7743 21.9576L61.1037 23.7956L61.0578 23.8242L61.0118 23.853L59.8759 24.471L58.7399 25.089L57.2507 26.2702L55.7614 27.4515L54.8765 28.419L53.9917 29.3865L53.8922 29.4766L53.7926 29.5668L51.6869 28.5551L49.581 27.5435V27.4677V27.3919L50.3342 26.506L51.0874 25.6202L51.7863 24.9289L52.4851 24.2375L53.8444 23.1406L55.2037 22.0435L56.8064 21.0815L58.4089 20.1196H58.427H58.4449L59.7743 21.9576ZM38.3312 23.825L40.9836 25.0845L41.0236 25.1166L41.0635 25.1486L40.341 26.3259L39.6187 27.5034L39.0461 28.6927L38.4736 29.882L38.0362 31.0714L37.5989 32.2607L37.3988 33.1629L37.1988 34.0651L37.1065 34.1849L37.0141 34.3047L34.0108 34.1004L31.0074 33.896H30.539H30.0707L30.0078 33.8144L29.9449 33.7328L30.131 32.7985L30.317 31.8642L30.8739 30.235L31.4309 28.6057L31.9879 27.3607L32.545 26.1158L33.7317 24.1587L34.9185 22.2017L35.2987 22.3837L35.6788 22.5656L38.3312 23.825ZM72.319 27.4538V32.4094H71.9788H71.6386L70.7739 32.6171L69.9093 32.8247L69.6536 32.873L69.3979 32.9212L66.7578 29.2212L64.1179 25.5211L63.7095 24.9439L63.301 24.3667L64.4425 23.9398L65.5841 23.513L66.9929 23.1939L68.4015 22.8748L69.6497 22.695L70.8979 22.5151L71.6084 22.5067L72.319 22.4982V27.4538ZM77.2362 22.8566L78.755 23.1001L79.5841 23.3412L80.4132 23.5822L81.4018 23.9106L82.3904 24.2389L82.5942 24.3349L82.7978 24.4309L79.8392 28.544L76.8804 32.6571L76.7761 32.7984L76.6719 32.9395L75.7759 32.7127L74.8798 32.4859L74.4026 32.4346L73.9255 32.3833V27.454V22.5247L74.8214 22.5689L75.7173 22.6131L77.2362 22.8566ZM112.165 24.0097L113.086 25.5211L113.836 27.1938L114.586 28.8665L114.968 29.9689L115.351 31.0714L115.52 31.666L115.689 32.2607L115.691 32.4837L115.694 32.7067H114.911H114.127L112.082 32.7714L110.038 32.836L109.952 32.4989L109.868 32.1616L109.49 31.0714L109.113 29.9811L108.502 28.7011L107.892 27.4212L107.098 26.0992L106.304 24.7773L106.272 24.7117L106.241 24.646L108.588 23.5814L110.936 22.5169L111.09 22.5076L111.244 22.4982L112.165 24.0097ZM64.064 27.8998L66.0969 30.774L67.0564 32.1322L68.0158 33.4905L66.9544 34.3417L65.893 35.193L63.2671 33.9836L60.6411 32.7742L57.9842 31.5406L55.3273 30.3068L55.3005 30.2876L55.2736 30.2685L56.3775 29.1272L57.4812 27.986L58.6927 27.0433L59.9039 26.1005L60.9456 25.5413L61.9872 24.982L62.0092 25.0038L62.0311 25.0256L64.064 27.8998ZM87.6441 27.3547L89.1904 28.5936L89.9226 29.4619L90.6549 30.3302L90.5389 30.4205L90.4228 30.5109L85.2572 32.8954L80.0916 35.2799L79.0524 34.4256L78.0131 33.5711L78.1496 33.3619L78.2862 33.1527L80.2003 30.5262L82.1142 27.8998L83.1551 26.4861L84.196 25.0723L85.1468 25.5941L86.0977 26.1158L87.6441 27.3547ZM105.252 26.2397L105.829 27.1069L106.146 27.7016L106.463 28.2962L107.009 29.4856L107.555 30.6749L107.903 31.738L108.251 32.801L107.864 32.8452L107.476 32.8893L105.684 33.0027L103.893 33.1162L103.393 33.1698L102.894 33.2236L102.678 32.4908L102.463 31.7582L101.728 30.291L100.993 28.8238L100.548 28.2368L100.104 27.6497L100.147 27.5455L100.191 27.4411L102.412 26.4166L104.634 25.3922L104.655 25.3823L104.676 25.3725L105.252 26.2397ZM45.5914 27.1522L47.2099 27.8913L46.681 28.738L46.1521 29.5847L45.5768 30.8601L45.0015 32.1355L44.5773 33.4249L44.1534 34.7143L44.1176 34.7363L44.0819 34.7582L41.6104 34.5791L39.1389 34.4L38.9747 34.3957L38.8103 34.3916L38.89 34.0695L38.9697 33.7474L39.5913 31.9138L40.2128 30.0802L40.5007 29.436L40.7888 28.7918L41.4641 27.5937L42.1394 26.3958L42.3436 26.079L42.5479 25.7623L43.2604 26.0877L43.9728 26.4131L45.5914 27.1522ZM98.9305 28.767L99.3409 29.2874L99.7499 30.0802L100.159 30.8731L100.689 32.1368L101.218 33.4005H100.97H100.721L97.9404 33.6045L95.1603 33.8086L94.9108 33.778L94.6613 33.7474L94.261 32.9545L93.8606 32.1616L93.4241 31.4678L92.9876 30.774L95.7215 29.5152L98.4552 28.2564L98.4876 28.2515L98.5201 28.2467L98.9305 28.767ZM51.2268 29.838L52.9344 30.6621L52.8732 30.8172L52.8119 30.9722L52.1894 32.112L51.5668 33.2518L51.2335 34.2047L50.9003 35.1575L50.7041 35.1278L50.5079 35.0981L48.2526 34.9772L45.9974 34.8564V34.6377V34.4189L46.4866 33.0304L46.976 31.6418L47.3554 30.8757L47.735 30.1095L48.2379 29.3744L48.741 28.6394L49.1301 28.8266L49.5193 29.0138L51.2268 29.838ZM19.3874 29.8141L19.1845 29.994L19.052 30.2988L18.9196 30.6036L19.1079 30.9649L19.2961 31.3263L19.7506 31.4786L20.2051 31.6309L20.5153 31.5684L20.8256 31.506L21.1774 31.2039L21.5294 30.9017V30.6596V30.4173L21.3428 30.1278L21.156 29.8383L20.9183 29.7363L20.6805 29.6342H20.1356H19.5905L19.3874 29.8141ZM124.863 29.8809L124.497 30.1276L124.435 30.3908L124.372 30.6539L124.547 30.9893L124.721 31.3247L125.146 31.4873L125.572 31.6499L126.069 31.5302L126.567 31.4106L126.753 31.122L126.939 30.8334V30.5271V30.2209L126.669 29.9276L126.399 29.6342H125.814H125.228L124.863 29.8809ZM20.9645 30.2855L21.1586 30.4413V30.563V30.6848L21.0103 30.8038L20.8621 30.9227H20.5929H20.3239L20.1766 30.7804L20.0293 30.638L20.16 30.4421L20.2908 30.2462L20.4467 30.1958L20.6025 30.1455L20.6865 30.1376L20.7702 30.1298L20.9645 30.2855ZM125.64 30.2909L125.84 30.4518L125.803 30.6625L125.765 30.8731H125.333H124.9L124.858 30.6309L124.815 30.3887L125.036 30.2592L125.257 30.1298H125.348H125.439L125.64 30.2909ZM61.9635 34.8375L64.2744 35.921L64.2348 35.9528L64.1951 35.9846L60.4409 35.7361L56.6867 35.4877L54.7712 35.3695L52.8558 35.2513L52.7668 35.1911L52.6779 35.131L52.8516 34.6374L53.0254 34.1438L53.3464 33.461L53.6675 32.7783L54.0854 32.0527L54.5034 31.3271L57.0779 32.5406L59.6525 33.754L61.9635 34.8375ZM91.8835 32.0872L92.2968 32.7562L92.5808 33.3297L92.8648 33.9032L92.8004 33.9548L92.736 34.0064L90.4055 34.1982L88.0749 34.39L86.2212 34.6265L84.3676 34.8629L84.3058 34.8119L84.244 34.7609L84.3676 34.7237L84.4912 34.6865L87.9513 33.057L91.4114 31.4273L91.4407 31.4227L91.4701 31.4182L91.8835 32.0872ZM74.6051 33.8704L75.0994 33.9607L75.5937 34.1454L76.088 34.33L76.9723 34.8036L77.8567 35.277L78.2867 35.7015L78.7167 36.126L79.0275 36.497L79.3382 36.868L79.5976 37.553L79.8571 38.2381V39.3022V40.3664L79.6108 41.0297L79.3645 41.6929L78.8906 42.2793L78.4166 42.8656L77.6761 43.4107L76.9356 43.9558L76.0176 44.3279L75.0994 44.6998L74.4339 44.7987L73.7681 44.8974H72.9587H72.1494L71.3383 44.7357L70.5271 44.5741L69.7203 44.25L68.9135 43.9258L68.0368 43.1856L67.1602 42.4455L66.7785 41.8131L66.3966 41.1807L66.1916 40.3476L65.9865 39.5144L66.0653 38.8609L66.1443 38.2074L66.4709 37.443L66.7976 36.6786L67.4266 36.0119L68.0556 35.345L68.8131 34.8817L69.5707 34.4184L70.4196 34.1666L71.2686 33.9149L71.7629 33.8141L72.2572 33.7133L73.184 33.7467L74.1108 33.78L74.6051 33.8704ZM120.822 34.0428L122.429 34.1875L123.868 34.3888L125.308 34.5902L127.823 35.2719L130.338 35.9537L132.439 36.5705L134.539 37.1875L136.949 38.1681L139.359 39.1487L141.027 40.1393L142.695 41.13L143.162 41.4358L143.629 41.7417L144.136 42.2801L144.643 42.8186L144.574 43.2329L144.504 43.6473L144.218 43.8308L143.931 44.0143L143.636 44.1117L143.341 44.2091L143.283 44.1633L143.226 44.1173L143.424 43.8906L143.622 43.6639V43.4838V43.3037L143.382 42.936L143.142 42.5683L142.301 41.9684L141.46 41.3686L140.533 40.9086L139.606 40.4488L136.949 39.4428L134.292 38.4368L132.941 37.9899L131.589 37.543L130.84 37.3507L130.091 37.1585L129.287 37.0163L128.484 36.8743L126.445 36.5812L124.406 36.2882L123.541 36.1884L122.676 36.0886L120.761 35.9723L118.845 35.8561L109.948 35.9117L101.05 35.9674L94.9951 36.0636L88.9399 36.1598L86.3448 36.22L83.7497 36.2801L83.101 36.3278L82.4522 36.3755V36.2913V36.2071L85.5725 35.7951L88.6928 35.383L90.1139 35.28L91.535 35.1769L92.6472 35.0843L93.7594 34.9916L96.6016 34.749L99.4438 34.5064L101.112 34.3936L102.78 34.2808L104.572 34.1217L106.364 33.9626L108.897 33.8905L111.431 33.8184L115.323 33.8583L119.216 33.8981L120.822 34.0428ZM2.33558 34.8775L2.20694 35.2644L2.6308 35.8268L3.05479 36.3893L3.54909 36.7148L4.0434 37.0401L5.1143 37.5942L6.18521 38.1482L8.01833 38.8837L9.85146 39.6193L11.8287 40.3197L13.8059 41.0202L15.6595 41.4256L17.5132 41.8311L18.6871 41.9796L19.8611 42.1282L21.2204 42.3184L22.5798 42.5086L23.7537 42.6209L24.9277 42.7333L28.326 42.789L31.7244 42.8447L42.2283 42.7297L52.7322 42.6147L57.1192 42.5168L61.5061 42.4189L62.3402 42.369L63.1744 42.3191V42.3991V42.479L60.2395 42.8484L57.3045 43.218L54.2151 43.4682L51.1257 43.7183L48.716 43.907L46.3063 44.0956L43.2787 44.3422L40.2511 44.5886L38.4101 44.7064L36.569 44.8242L31.2427 44.7666L25.9163 44.7092L24.8659 44.6038L23.8155 44.4984L22.0855 44.2471L20.3554 43.9959L18.0075 43.3669L15.6595 42.7378L13.7441 42.1279L11.8287 41.518L10.8401 41.1636L9.85146 40.8092L8.11003 40.0677L6.3686 39.3261L4.83527 38.4469L3.30194 37.5677L2.64081 37.0577L1.97968 36.5476L1.62131 36.0944L1.26294 35.6412V35.4206V35.1999L1.77949 34.8453L2.29604 34.4907H2.38019H2.46435L2.33558 34.8775ZM71.8865 35.8126L71.3922 35.9441L70.9596 36.1217L70.5271 36.2994L70.0236 36.6263L69.52 36.9533L69.122 37.6017L68.724 38.25L68.5841 38.785L68.4443 39.3199L68.653 39.9984L68.8618 40.677L69.1095 41.0874L69.3572 41.4979L69.8151 41.865L70.2728 42.2322L71.0796 42.5453L71.8865 42.8584L72.9369 42.862L73.9872 42.8656L74.6051 42.6723L75.223 42.4791L75.729 42.1774L76.2351 41.8757L76.615 41.4291L76.995 40.9825L77.2724 40.2418L77.5499 39.5013L77.4188 38.8875L77.2877 38.2737L76.8879 37.6224L76.4883 36.9712L75.9522 36.6189L75.4163 36.2667L74.7134 36.0086L74.0105 35.7505L73.1956 35.7159L72.3808 35.6813L71.8865 35.8126ZM81.9579 36.3243V36.3738H81.8961H81.8343V36.3243V36.2747H81.8961H81.9579V36.3243ZM63.6687 42.37V42.4196H63.6069H63.5451V42.37V42.3205H63.6069H63.6687V42.37ZM85.5416 42.9105L88.6928 43.1027L90.6082 43.2084L92.5236 43.3142L92.9132 43.3651L93.303 43.4161L93.1488 43.9337L92.9946 44.4514L92.6568 45.0956L92.319 45.7398L91.9396 46.4088L91.5602 47.0778H91.4701H91.3802L88.8624 45.9024L86.3448 44.7269L84.1842 43.7219L82.0235 42.7169L82.207 42.7177L82.3904 42.7184L85.5416 42.9105ZM67.7857 45.205L67.6849 45.375L64.7191 49.4437L61.7533 53.5124L61.6915 53.5152L61.6297 53.518L60.8934 53.0746L60.1572 52.6313L59.0533 51.8616L57.9495 51.0918L57.0015 50.1503L56.0536 49.2087L55.6596 48.7449L55.2655 48.281V48.1987V48.1163L57.0265 47.327L58.7874 46.5377L62.2799 44.9386L65.7726 43.3395L66.8295 44.1872L67.8866 45.035L67.7857 45.205ZM84.4294 45.2981L88.5692 47.2099L89.6505 47.7066L90.7318 48.2032V48.2763V48.3493L90.049 49.0764L89.3664 49.8034L87.9351 51.0211L86.5039 52.2387L85.3832 52.8744L84.2623 53.5102L84.1685 53.4637L84.0747 53.4172L83.7202 52.8987L83.3657 52.3803L80.7952 48.8181L78.2247 45.2559L78.1668 45.1348L78.1089 45.0137L79.1374 44.179L80.166 43.3443L80.2278 43.3652L80.2896 43.3861L84.4294 45.2981ZM98.6645 43.714L101.539 43.9182L101.567 43.9405L101.595 43.9628L101.415 44.6602L101.235 45.3576L100.693 46.5398L100.151 47.722L99.7635 48.5235L99.3759 49.3249L98.9773 49.8536L98.5788 50.3825L98.4787 50.3755L98.3785 50.3687L95.7292 49.1095L93.0797 47.8503V47.8094V47.7683L93.6367 46.8125L94.1935 45.8567L94.4965 45.1045L94.7994 44.3523L94.933 43.931L95.0664 43.5098H95.4283H95.7901L98.6645 43.714ZM61.1932 43.8815L61.1893 43.9558L57.8709 45.4673L54.5524 46.9787H54.4262H54.3L53.685 45.8141L53.07 44.6496L53.0864 44.6335L53.103 44.6174L55.6363 44.4059L58.1696 44.1943L59.5289 44.0122L60.8882 43.83L61.0427 43.8185L61.1972 43.8071L61.1932 43.8815ZM106.117 44.1533L108.465 44.2985L108.607 44.3006L108.749 44.3027L108.523 45.1204L108.298 45.938L107.982 46.873L107.667 47.8079L107.159 48.9047L106.651 50.0016L105.677 51.6182L104.704 53.2348L104.113 52.9606L103.522 52.6863L101.854 51.9031L100.185 51.1201L100.149 51.0935L100.113 51.0669L100.836 49.9396L101.559 48.8123L102.25 47.1274L102.941 45.4425L103.152 44.7239L103.363 44.0054L103.566 44.0069L103.769 44.0082L106.117 44.1533ZM113.69 44.6397L115.95 44.7722L115.997 44.8101L116.044 44.8478L115.685 46.2849L115.326 47.722L115.007 48.6342L114.688 49.5463L114.091 50.9137L113.495 52.2812L112.756 53.6192L112.016 54.9572L111.563 55.5766L111.11 56.196H111.035H110.959L108.584 55.081L106.208 53.966L106.805 53.0116L107.402 52.0572L107.976 51.033L108.55 50.0088L109.018 48.8654L109.486 47.722L109.964 46.1117L110.442 44.5012L110.936 44.5042L111.431 44.5071L113.69 44.6397ZM51.7861 45.7166L52.1994 46.6318L52.5549 47.199L52.9104 47.7662L50.7205 48.7614L48.5307 49.7566L48.0104 48.888L47.4901 48.0194L46.9198 46.6475L46.3495 45.2756L46.4294 45.2104L46.5092 45.1451L48.5085 44.9848L50.5079 44.8244L50.9404 44.8129L51.3729 44.8013L51.7861 45.7166ZM44.7968 45.9947L45.0258 46.6318L45.4012 47.4743L45.7765 48.3167L46.401 49.3828L47.0254 50.449L46.9748 50.4864L46.9242 50.5239L45.0705 51.3891L43.2169 52.2541L42.8205 52.4466L42.4242 52.639L42.0628 52.0636L41.7016 51.4883L41.0237 50.1503L40.3457 48.8123L39.9027 47.6725L39.4597 46.5327L39.3762 46.1115L39.2926 45.6903L39.5865 45.683L39.8804 45.6757L42.1047 45.4967L44.3291 45.3177L44.4485 45.3376L44.568 45.3576L44.7968 45.9947ZM71.5906 46.156L72.1954 46.2135V51.2082V56.2029L71.5466 56.1411L70.8979 56.0793L69.4382 55.8902L67.9785 55.701L66.4106 55.2649L64.8426 54.8287L64.0011 54.5092L63.1595 54.1895L63.228 54.0465L63.2963 53.9035L66.2706 49.7668L69.2447 45.6301L70.1153 45.8643L70.986 46.0985L71.5906 46.156ZM77.9126 47.2529L78.9958 48.8123L80.8969 51.4883L82.7979 54.1643L81.7909 54.5452L80.7839 54.9259L79.3628 55.3087L77.9417 55.6915L76.5206 55.886L75.0994 56.0806L74.4507 56.1337L73.8019 56.1867V51.1863V46.1858L74.2035 46.1798L74.6051 46.1737L75.5319 45.9442L76.4588 45.7146L76.6441 45.704L76.8295 45.6935L77.9126 47.2529ZM120.065 46.1115L120.144 46.5327L120.222 49.0105L120.299 51.4883L120.153 53.0731L120.007 54.6579L119.709 56.2942L119.41 57.9305L118.922 59.6649L118.433 61.3994L118.177 62.1367L117.921 62.8739L118.034 62.7809L118.147 62.6878L118.66 61.9588L119.173 61.2297L120.203 60.1681L121.232 59.1065L121.545 58.1221L121.858 57.1376L122.005 56.1465L122.152 55.1554L122.088 53.074L122.024 50.9927L121.879 50.398L121.733 49.8034L121.303 48.614L120.873 47.4247L120.493 46.5575L120.113 45.6903H120.05H119.987L120.065 46.1115ZM25.1406 47.3504L24.5021 48.9114L24.3185 49.506L24.135 50.1007L23.9444 51.0962L23.7537 52.0916V53.6806V55.2696L23.9395 56.3522L24.1253 57.4349L24.3966 58.2701L24.6677 59.1053L25.2998 59.7073L25.9317 60.3092L26.3535 60.8047L26.7752 61.3003L27.365 62.1427L27.9547 62.9852L27.9551 62.8921L27.9553 62.7991L27.5279 61.5045L27.1004 60.21L26.7156 58.6774L26.3309 57.1446L26.1607 55.9518L25.9904 54.7589L25.8451 53.145L25.6997 51.5312L25.7531 48.6602L25.8064 45.7894H25.7928H25.7791L25.1406 47.3504ZM37.9448 47.1538L38.3572 48.5149L38.7951 49.4565L39.2331 50.398L39.9492 51.6401L40.6654 52.8823L40.7375 53.1268L40.8096 53.3714L37.8537 54.7342L34.8979 56.0969H34.783H34.6681L33.6109 54.3377L32.5538 52.5785L31.7422 50.6458L30.9305 48.7132L30.5551 47.3928L30.1797 46.0724V45.9828V45.8932L32.2496 45.8635L34.3194 45.8338L35.9259 45.8133L37.5324 45.7927L37.9448 47.1538ZM26.5531 47.0823L26.4724 47.7015L26.4729 49.9418L26.4734 52.182L26.6004 53.5696L26.7274 54.9572L26.9138 56.0613L27.1003 57.1653L27.5236 58.7868L27.947 60.4083L28.7137 62.6131L29.4803 64.818L29.5274 64.7802L29.5746 64.7424L29.9475 63.7151L30.3203 62.6878L30.432 61.7958L30.5437 60.9038L30.5462 59.1694L30.5488 57.4349L30.3121 56.3447L30.0756 55.2545L29.8136 54.3129L29.5518 53.3714L28.7978 51.3892L28.044 49.4069L27.4322 48.0689L26.8204 46.7309L26.7271 46.5969L26.6338 46.4629L26.5531 47.0823ZM119.188 46.6814L119.052 46.9291L118.559 47.9203L118.065 48.9114L117.252 51.0009L116.439 53.0905L116.068 54.3992L115.698 55.7078L115.552 56.6209L115.407 57.534L115.4 59.5163L115.392 61.4985L115.603 62.4401L115.814 63.3816L116.104 64.1249L116.393 64.8683L116.839 63.7285L117.284 62.5887L117.911 60.6065L118.537 58.6243L118.902 56.5429L119.267 54.4616L119.396 53.3714L119.525 52.2812L119.513 49.9025L119.5 47.5238L119.412 46.9787L119.323 46.4336L119.188 46.6814ZM55.725 51.0784L56.5631 51.8579L57.8606 52.8034L59.1582 53.7489L60.0406 54.2419L60.9231 54.7349L60.1186 55.8372L59.3142 56.9394L58.8036 57.6576L58.2931 58.3759L58.1395 58.33L57.9859 58.2841L56.7802 57.5649L55.5745 56.8456L53.6453 55.3067L51.7161 53.7678L50.8512 52.7767L49.9863 51.7856L49.6575 51.3273L49.3287 50.8691L51.5156 49.872L53.7025 48.8748L54.2947 49.5869L54.8869 50.2989L55.725 51.0784ZM94.8918 50.1594L97.4666 51.3577L97.5827 51.4467L97.6987 51.5356L96.8439 52.5526L95.9893 53.5696L94.677 54.7094L93.3649 55.8492L92.2872 56.5925L91.2096 57.3358L89.7658 58.1509L88.322 58.9659L88.1985 58.9654L88.0749 58.9649L86.5799 56.8507L85.085 54.7365L86.0648 54.2168L87.0448 53.697L88.6102 52.4803L90.1757 51.2636L91.2212 50.1123L92.2668 48.9609H92.2919H92.3171L94.8918 50.1594ZM7.74264 49.9025L7.82642 50.2989L8.32814 51.6369L8.82986 52.9749L9.31118 53.9947L9.79251 55.0145L10.4843 56.1256L11.1762 57.2367L11.7752 58.0362L12.374 58.8358L13.6667 60.0185L14.9593 61.2012L15.6802 61.669L16.401 62.1368L17.7603 62.8212L19.1196 63.5057L20.7261 64.0756L22.3326 64.6455L24.9168 65.3296L27.501 66.0139L27.5983 65.9861L27.6955 65.9585L26.5588 65.2032L25.422 64.4478L24.1862 63.5815L22.9505 62.7153L20.0566 60.4715L17.1628 58.2278L15.6696 56.938L14.1766 55.6483L12.1784 53.816L10.1802 51.9838L9.04315 50.844L7.906 49.7043L7.78243 49.6052L7.65885 49.506L7.74264 49.9025ZM9.13262 50.0262L9.6043 50.4968L10.403 51.2898L11.2015 52.0829L13.298 54.0156L15.3943 55.9483L18.987 58.8277L22.5798 61.7071L24.0362 62.7426L25.4927 63.7781L27.0502 64.7471L28.6078 65.716L28.6495 65.6825L28.6913 65.649L28.1522 64.6639L27.613 63.6789L27.1265 62.9852L26.6398 62.2914L25.9566 61.4477L25.2732 60.6042L23.6614 59.0691L22.0496 57.534L21.0789 56.8374L20.1082 56.1407L18.9961 55.3935L17.8839 54.6463L16.7099 53.9023L15.5359 53.1583L13.196 51.8379L10.8561 50.5175L9.85949 50.0368L8.86285 49.556L8.76189 49.5558L8.66093 49.5556L9.13262 50.0262ZM136.764 49.6945L136.517 49.8229L134.169 51.0645L131.821 52.306L130.4 53.1642L128.978 54.0223L127.063 55.2984L125.148 56.5745L124.097 57.4522L123.047 58.3298L122.107 59.2204L121.167 60.1109L120.181 61.212L119.195 62.3131L118.571 63.3429L117.947 64.3727L117.617 65.0029L117.286 65.6331L117.337 65.674L117.388 65.7147L118.673 64.9047L119.957 64.0947L120.884 63.4421L121.811 62.7894L124.097 61.0841L126.383 59.3787L128.366 57.713L130.349 56.0474L131.455 55.0563L132.562 54.0652L133.679 53.0245L134.796 51.9838L135.89 50.8936L136.985 49.8034L137.106 49.6795L137.227 49.5556L137.119 49.5607L137.011 49.566L136.764 49.6945ZM137.237 50.5252L136.241 51.4898L134.161 53.4217L132.081 55.3536L129.83 57.2863L127.579 59.2189L125.313 60.9534L123.047 62.6878L120.606 64.3612L118.166 66.0345V66.0766V66.1189L118.258 66.0756L118.351 66.0325L120.39 65.508L122.429 64.9834L124.221 64.3988L126.013 63.8141L127.289 63.251L128.566 62.6878L129.773 61.9285L130.979 61.1692L131.927 60.3335L132.876 59.4978L133.601 58.7142L134.326 57.9305L134.946 57.0312L135.565 56.1319L136.374 54.5404L137.183 52.9488L137.445 52.1194L137.707 51.29L138.018 50.4643L138.33 49.6386L138.281 49.5996L138.232 49.5607L137.237 50.5252ZM48.1955 52.0857L48.5307 52.5344L49.2103 53.2625L49.89 53.9905L50.6019 54.7361L51.3137 55.4818L52.5791 56.4728L53.8444 57.4639L54.7712 58.0722L55.698 58.6807L56.5338 59.1387L57.3695 59.5966L57.2069 59.8042L57.0442 60.0118L55.8834 61.6224L54.7227 63.2329H54.6369H54.5511L53.436 62.6456L52.3207 62.0584L51.8468 61.7169L51.3729 61.3755L50.5697 60.8645L49.7664 60.3536L48.2296 59.0429L46.693 57.7323L45.6314 56.5916L44.5699 55.4508L43.8935 54.6157L43.2169 53.7806L43.2435 53.7246L43.2702 53.6687L45.4678 52.6553L47.6656 51.6418L47.763 51.6394L47.8605 51.6369L48.1955 52.0857ZM101.35 53.1672L103.398 54.1029L103.635 54.2436L103.872 54.3842L102.909 55.5131L101.945 56.642L101.073 57.4845L100.201 58.3269L98.8314 59.4172L97.4617 60.5074L96.3063 61.2875L95.1508 62.0676L93.469 62.9476L91.787 63.8276L91.6611 63.825L91.535 63.8225L90.3336 62.1554L89.1322 60.4885L89.0621 60.342L88.9921 60.1956L90.3253 59.51L91.6586 58.8245L92.709 58.116L93.7594 57.4077L95.6748 55.8314L97.5902 54.2552L98.3935 53.2481L99.1967 52.2411L99.2487 52.2364L99.3007 52.2316L101.35 53.1672ZM20.6517 53.3479L20.2318 53.5722L19.9954 53.9592L19.7591 54.3462L19.9093 54.7965L20.0594 55.2468L20.1862 55.3693L20.3131 55.4919L20.8635 55.6604L21.4139 55.829L21.9078 55.7104L22.4016 55.5917L22.7687 55.1852L23.1358 54.7788L23.1354 54.4715L23.135 54.1643L22.8893 53.8413L22.6438 53.5183L22.241 53.3213L21.8383 53.1243L21.455 53.124L21.0716 53.1236L20.6517 53.3479ZM123.637 53.3762L123.116 53.6271L122.973 54.0099L122.829 54.3929L122.911 54.7393L122.992 55.0857L123.231 55.3296L123.47 55.5735L124.02 55.697L124.57 55.8206L125.015 55.703L125.459 55.5853L125.756 55.2712L126.054 54.9572L126.131 54.6103L126.208 54.2634L125.974 53.9165L125.74 53.5696L125.333 53.3466L124.926 53.1236L124.542 53.1245L124.159 53.1255L123.637 53.3762ZM22.2659 54.1595L22.4148 54.3034L22.3738 54.471L22.3326 54.6386L22.1163 54.7478L21.9001 54.8571L21.6838 54.7478L21.4676 54.6386L21.4264 54.471L21.3854 54.3034L21.5343 54.1595L21.6832 54.0156H21.9001H22.117L22.2659 54.1595ZM124.343 54.163L124.495 54.3104L124.416 54.5657L124.336 54.821L124 54.79L123.665 54.7589L123.624 54.5287L123.583 54.2986L123.651 54.157L123.719 54.0156H123.955H124.191L124.343 54.163ZM62.8306 55.6124L63.3419 55.8216L64.6757 56.2515L66.0093 56.6814L67.7246 57.0271L69.4397 57.3729L70.8175 57.4428L72.1954 57.5127V59.8322V62.1517L71.7938 62.1004L71.3922 62.0491L70.2182 61.9425L69.0442 61.836L67.8703 61.6345L66.6963 61.4329L65.5223 61.1341L64.3483 60.8351L63.3597 60.5324L62.3711 60.2296L61.193 59.7509L60.0148 59.2722L59.7861 59.138L59.5573 59.0038L60.4555 57.7734L61.3536 56.5429L61.7786 55.973L62.2037 55.4032H62.2614H62.3192L62.8306 55.6124ZM85.1966 57.4425L86.6435 59.4172L86.6486 59.5197L86.6538 59.6224L85.8196 59.9524L84.9855 60.2823L83.5453 60.7072L82.1052 61.132L81.434 61.2885L80.7629 61.445L79.2287 61.6891L77.6945 61.9332L76.5823 62.0377L75.4702 62.1421L74.636 62.1424L73.8019 62.1427V59.8282V57.5137L75.0685 57.4478L76.3352 57.382L77.6764 57.1388L79.0175 56.8956L80.0243 56.6426L81.0311 56.3898L82.2668 55.9057L83.5026 55.4216L83.6262 55.4447L83.7497 55.4678L85.1966 57.4425ZM32.3353 58.3367L32.2463 58.9084L32.3172 60.6494L32.388 62.3905L32.5833 63.2825L32.7788 64.1745L32.9809 64.8683L33.1829 65.5621L33.8292 66.8505L34.4754 68.1389L35.0153 69.0309L35.5552 69.9229L36.1113 70.1623L36.6674 70.4018L38.4592 71.3511L40.2511 72.3006L40.3996 72.3777L40.548 72.4547L40.0377 71.7836L39.5272 71.1123L38.6376 69.6256L37.7479 68.1389L37.0353 66.6523L36.3225 65.1656L35.8963 64.3727L35.4699 63.5798L34.7569 62.0932L34.044 60.6065L33.2699 59.2189L32.496 57.8314L32.4601 57.7983L32.4244 57.7652L32.3353 58.3367ZM113.174 58.3765L112.816 59.0207L112.203 60.1605L111.591 61.3003L110.003 64.4778L108.415 67.6554L107.591 69.0864L106.767 70.5176L106.678 70.6167L106.589 70.7158L105.993 71.6031L105.397 72.4902L105.757 72.2661L106.117 72.042L107.476 71.3223L108.836 70.6026L109.656 70.2357L110.476 69.8689L110.986 69.0278L111.496 68.1866L112.156 66.7256L112.817 65.2647L113.077 64.3127L113.337 63.3606L113.539 61.7797L113.74 60.1987L113.636 58.9655L113.531 57.7323L113.174 58.3765ZM33.4557 58.2774L33.5465 58.5252L34.1582 59.5658L34.77 60.6065L36.6056 64.3232L38.4412 68.0398L38.8526 68.7832L39.2638 69.5265L40.1706 70.8636L41.0773 72.2006L41.8713 73.0936L42.6651 73.9865L43.3353 74.6716L44.0053 75.3567L44.2599 75.5609L44.5144 75.765L44.512 75.2722L44.5096 74.7794L44.3358 73.7322L44.1619 72.685L43.6471 71.4031L43.1321 70.1212L42.5844 69.1301L42.0369 68.1389L41.4007 67.1478L40.7644 66.1567L40.0278 65.2152L39.2911 64.2736L38.6589 63.548L38.0267 62.8224L36.927 61.6153L35.8273 60.4083L34.7148 59.318L33.6023 58.2278L33.4836 58.1287L33.3648 58.0296L33.4557 58.2774ZM111.338 59.1942L110.184 60.3092L109.23 61.3222L108.276 62.3353L107.121 63.7504L105.967 65.1656L105.186 66.2063L104.405 67.2469L103.944 68.0398L103.483 68.8327L102.847 70.1707L102.21 71.5087L101.853 72.7476L101.496 73.9865L101.412 74.8785L101.328 75.7705L101.724 75.4732L102.12 75.1758L103.02 74.2343L103.92 73.2927L104.759 72.2521L105.599 71.2114L106.128 70.3689L106.658 69.5265L107.666 67.6434L108.675 65.7603L109.271 64.4718L109.867 63.1834L111.185 60.7068L112.503 58.2303L112.561 58.1547L112.619 58.0792H112.556H112.493L111.338 59.1942ZM60.8882 61.1856L61.8768 61.5714L62.9272 61.8981L63.9776 62.2248L65.7695 62.6174L67.5613 63.0099L68.4881 63.129L69.4149 63.2481L69.9331 63.3396L70.4513 63.4312H71.3415H72.2317L72.1659 65.5673L72.0999 67.7035L72.055 67.7309L72.01 67.7584L70.4653 67.6388L68.9206 67.5193L66.9434 67.2107L64.9662 66.9019L64.0671 66.7017L63.1678 66.5014L61.4979 66.0056L59.8279 65.5098L57.9484 64.7566L56.0688 64.0034L56.0327 63.9775L55.9966 63.9514L57.19 62.3286L58.3833 60.7056L58.5622 60.4768L58.7409 60.2479L59.3203 60.5239L59.8996 60.7999L60.8882 61.1856ZM88.9048 62.6996L90.2291 64.5374L89.2755 64.8822L88.322 65.2272L87.8277 65.417L87.3334 65.6069L86.3448 65.9094L85.3562 66.2121L83.1936 66.7007L81.0311 67.1893L79.301 67.3854L77.5709 67.5814L76.4588 67.6403L75.3466 67.6992L74.4991 67.7568L73.6516 67.8144L73.7415 65.697L73.8312 63.5798L73.8577 63.5551L73.8843 63.5303L75.7276 63.4312L77.5709 63.3321L79.1156 63.1255L80.6603 62.9188L81.7778 62.6794L82.8953 62.44L84.3111 62.0085L85.7269 61.5771L86.592 61.2206L87.457 60.864L87.5188 60.863L87.5806 60.8619L88.9048 62.6996ZM15.8449 65.0542V65.0914L17.5526 66.136L19.2603 67.1806L20.8582 68.0131L22.4562 68.8455L24.3716 69.6936L26.287 70.5417L27.5846 71.0874L28.8821 71.6331L31.0917 72.3976L33.3011 73.162L35.1696 73.7085L37.0381 74.255L39.3243 74.896L41.6104 75.5371L42.6942 75.7711L43.7779 76.005L43.519 75.7391L43.2602 75.4732L42.1727 74.5283L41.0852 73.5835L39.1555 72.447L37.2258 71.3105L35.8962 70.6925L34.5666 70.0745L33.4544 69.6382L32.3422 69.2019L30.5373 68.5986L28.7323 67.9954L26.5211 67.3942L24.3098 66.793L22.4562 66.3586L20.6025 65.9241L19.1196 65.6065L17.6367 65.2887L16.8953 65.1563L16.1538 65.0239L15.9993 65.0204L15.8449 65.0169V65.0542ZM129.596 65.0644L129.473 65.0961L128.546 65.2648L127.619 65.4335L126.013 65.7786L124.406 66.1238L122.581 66.569L120.757 67.0143L118.38 67.6916L116.003 68.3687L115.385 68.587L114.767 68.8054L113.752 69.1375L112.737 69.4696L111.898 69.8367L111.06 70.2038L110.133 70.6496L109.206 71.0953L108.465 71.4922L107.723 71.889L106.364 72.6985L105.005 73.5078L104.372 73.9949L103.739 74.4821L102.982 75.2032L102.224 75.9242V75.9599V75.9955L104.039 75.5651L105.854 75.1348L107.839 74.573L109.824 74.0113L112.438 73.1846L115.051 72.3579L116.701 71.7342L118.351 71.1105L121.008 69.9295L123.665 68.7485L124.344 68.4077L125.024 68.067L125.765 67.663L126.507 67.259L128.268 66.182L130.029 65.105V65.0609V65.0169L129.874 65.0248L129.72 65.0326L129.596 65.0644ZM30.7141 65.5732L30.3217 65.7283L30.1446 65.893L29.9675 66.0576L29.8267 66.3938L29.686 66.73L29.8278 67.1097L29.9696 67.4893L30.1984 67.6863L30.4273 67.8833L30.8954 67.9958L31.3634 68.1082L31.8822 67.9962L32.4011 67.8841L32.7115 67.5178L33.0219 67.1514V66.736V66.3206L32.6983 66.0121L32.3746 65.7036L32.0248 65.5585L31.6748 65.4134L31.3907 65.4157L31.1065 65.4179L30.7141 65.5732ZM113.705 65.6919L113.136 65.9847L113.008 66.3909L112.879 66.7971L113.027 67.1417L113.175 67.4863L113.404 67.6892L113.633 67.892L114.133 68.0001L114.634 68.1082L115.101 67.996L115.568 67.8838L115.878 67.5176L116.188 67.1514V66.7245V66.2978L115.725 65.8989L115.261 65.5002L114.767 65.4498L114.273 65.3992L113.705 65.6919ZM128.608 66.7143L127.125 67.6178L126.26 68.0699L125.395 68.522L123.356 69.498L121.317 70.4739L119.031 71.4037L116.744 72.3334L115.014 72.9481L113.284 73.5627L111.554 74.1062L109.824 74.6497L107.476 75.2667L105.128 75.8838L104.109 76.1245L103.091 76.3652L103.09 76.4227L103.089 76.4801L106.491 76.6095L109.892 76.7388L111.216 76.6677L112.54 76.5965L113.715 76.4004L114.891 76.2042L115.976 75.9546L117.062 75.7048L118.376 75.2115L119.69 74.7182L120.627 74.2662L121.564 73.8141L121.838 73.6136L122.112 73.4131L122.539 73.2042L122.966 72.9954L124.04 72.2098L125.113 71.4244L126.25 70.3267L127.387 69.2292L128.033 68.5063L128.68 67.7834L129.207 67.0692L129.734 66.3549L129.958 66.0824L130.181 65.8098L130.136 65.8103L130.091 65.8108L128.608 66.7143ZM16.1573 66.3797L16.493 66.8505L17.4279 67.9726L18.3627 69.0948L18.8164 69.5089L19.27 69.9229L19.9077 70.5609L20.5453 71.1988L21.6861 72.0543L22.8269 72.9099L23.6154 73.349L24.4039 73.7883L25.3414 74.2677L26.2791 74.7471L27.6424 75.2476L29.0057 75.748L30.9211 76.1373L32.8365 76.5266L34.3397 76.6354L35.8428 76.7444L39.3802 76.6132L42.9176 76.4819L42.8201 76.408L42.7226 76.3342L41.7958 76.1201L40.869 75.906L38.5828 75.3077L36.2967 74.7093L34.443 74.1355L32.5894 73.5615L30.9049 72.9629L29.2205 72.3644L27.4898 71.669L25.7591 70.9736L24.1076 70.216L22.4562 69.4584L21.8383 69.1499L21.2204 68.8414L19.5522 67.9552L17.8839 67.0688L16.9335 66.4889L15.983 65.9089H15.9022H15.8214L16.1573 66.3797ZM32.2099 66.4611L32.404 66.6169V66.7018V66.7868L32.2099 66.9426L32.0156 67.0983H31.7817H31.5476L31.4197 66.9066L31.2918 66.7148V66.6659V66.6169L31.486 66.4611L31.6802 66.3054H31.8479H32.0156L32.2099 66.4611ZM114.453 66.4493L114.602 66.5932L114.561 66.7608L114.52 66.9284L114.304 67.0376L114.088 67.1468L113.871 67.0376L113.655 66.9284L113.614 66.7608L113.573 66.5932L113.722 66.4493L113.871 66.3054H114.088H114.304L114.453 66.4493ZM47.435 69.0397L48.4402 69.9229L49.5358 70.7655L50.6314 71.6079L52.1144 72.5656L53.5973 73.5234L55.8834 74.7496L58.1696 75.9758L61.0118 77.1181L63.854 78.2605L66.8199 79.3633L69.7857 80.466L70.8361 80.8284L71.8865 81.1909L72.1954 81.2792L72.5043 81.3675L71.7011 80.7992L70.8979 80.231L68.7353 78.5324L66.5727 76.8339L65.5223 76.0719L64.4719 75.3098L62.3093 74.0415L60.1468 72.7733L59.2817 72.3484L58.4167 71.9235L57.1192 71.4454L55.8216 70.9672L53.8444 70.4637L51.8672 69.9602L50.1989 69.5013L48.5307 69.0424L47.4803 68.5994L46.4299 68.1564L47.435 69.0397ZM98.5278 68.546L97.7443 68.8943L96.8022 69.1962L95.8602 69.4981L94.6862 69.7916L93.5122 70.0853L91.7822 70.5368L90.0521 70.9884L88.9399 71.3939L87.8277 71.7993L86.7773 72.2915L85.7269 72.7838L84.8001 73.3289L83.8733 73.8741L82.514 74.7191L81.1546 75.5643L80.1042 76.3024L79.0539 77.0407L76.2952 79.2099L73.5366 81.379L73.9781 81.226L74.4198 81.073L74.8832 80.9127L75.3466 80.7524L79.0539 79.3651L82.7611 77.9776L84.7266 77.1904L86.6919 76.4031L87.8778 75.8468L89.0635 75.2905L90.6158 74.4744L92.1681 73.6584L93.6919 72.6523L95.2157 71.6461L96.6082 70.6012L98.0007 69.5561L98.7054 68.9165L99.4099 68.2769L99.3606 68.2374L99.3113 68.1977L98.5278 68.546ZM47.3896 70.5715L48.1778 71.9052L48.9611 73.0449L49.7443 74.1847L50.4874 75.0767L51.2305 75.9687L52.6256 77.0759L54.0206 78.1831L54.2415 78.2324L54.4623 78.2819L56.5013 78.6453L58.5403 79.0089L60.5397 79.5413L62.5393 80.0737L64.3706 80.8221L66.202 81.5706L67.4388 82.0944L68.6757 82.6181L70.0339 82.8445L71.3922 83.0709L72.5926 83.3628L73.7929 83.6547L75.0023 84.2156L76.2116 84.7764L77.8344 85.3987L79.4572 86.0209L81.1199 86.6109L82.7827 87.2009L84.7092 87.6966L86.6356 88.1922L87.5487 88.3104L88.4617 88.4285L89.0936 88.2104L89.7255 87.9924L89.9343 87.8074L90.1432 87.6223L90.0678 87.3815L89.9924 87.1406L89.8182 87.087L89.6439 87.0333L88.9213 87.1856L88.1985 87.338L87.3334 87.2157L86.4684 87.0933L84.3323 86.5081L82.1963 85.9229L80.7644 85.4228L79.3324 84.9228L78.0192 84.4004L76.7059 83.8781L76.088 83.5796L75.4702 83.2812L74.2245 82.7336L72.979 82.186L70.3319 81.2217L67.6849 80.2576L65.7077 79.5697L63.7305 78.8819L61.1354 77.8086L58.5403 76.7354L57.4896 76.2468L56.439 75.7584L55.0799 75.0297L53.7208 74.301L52.9794 73.8476L52.2379 73.3942L50.755 72.3566L49.2721 71.3191L48.2127 70.4723L47.1532 69.6256L46.8772 69.4318L46.6013 69.2379L47.3896 70.5715ZM97.3427 70.7504L95.4894 72.2064L94.0065 73.1534L92.5236 74.1004L90.67 75.0913L88.8163 76.0822L87.0245 76.8784L85.2326 77.6745L83.2554 78.4222L81.2782 79.1698L80.0425 79.6142L78.8067 80.0588L78.0035 80.3273L77.2002 80.5959L75.5046 81.2451L73.8092 81.8942L73.876 81.981L73.943 82.0678L74.583 82.325L75.223 82.5822L75.4359 82.7325L75.6488 82.8828L76.0538 82.8198L76.4588 82.7567L77.1384 82.589L77.8181 82.4212L78.4978 82.1086L79.1774 81.7961L80.0292 81.4318L80.8809 81.0675L82.4846 80.4661L84.0882 79.8648L85.7725 79.4403L87.457 79.0158L89.1871 78.6943L90.9171 78.3728L91.3809 78.2819L91.8448 78.1909L93.0247 77.2862L94.2047 76.3814L94.9353 75.6039L95.6658 74.8263L96.1891 74.1091L96.7123 73.3918L97.2522 72.5989L97.7921 71.8061L98.5361 70.584L99.2799 69.362L99.2378 69.3283L99.1958 69.2946L97.3427 70.7504ZM46.8064 75.2346L46.3712 75.5411L46.2265 75.9284L46.0818 76.3156L46.2221 76.6914L46.3625 77.0672L46.7052 77.3264L47.0477 77.5856L47.5167 77.6872L47.9858 77.7888L48.3857 77.6717L48.7857 77.5545L49.0414 77.4058L49.2971 77.2572L49.5009 76.94L49.7046 76.6228V76.3108V75.9987L49.5062 75.6632L49.3076 75.3277L48.9046 75.1279L48.5015 74.9281H47.8716H47.2418L46.8064 75.2346ZM97.0134 75.0974L96.6837 75.2615L96.4264 75.6286L96.1691 75.9957V76.3093V76.6228L96.3427 76.8905L96.5163 77.1581L96.8061 77.3715L97.0959 77.585L97.5284 77.6754L97.9609 77.7657L98.4803 77.68L98.9997 77.5943L99.3095 77.2989L99.6193 77.0035L99.6999 76.6596L99.7803 76.3156L99.695 75.951L99.6097 75.5864L99.1993 75.2572L98.7889 74.9281L98.066 74.9307L97.3431 74.9333L97.0134 75.0974ZM49.0117 75.944L49.1473 76.1174L49.0109 76.2908L48.8744 76.4643H48.5172H48.1599L48.1192 76.1778L48.0784 75.8911L48.2427 75.8055L48.4071 75.7199L48.6416 75.7451L48.8762 75.7705L49.0117 75.944ZM97.8241 75.944L97.9597 76.1174L97.8233 76.2908L97.6868 76.4643H97.3296H96.9723L96.9319 76.2358L96.8915 76.0074L97.0447 75.8594L97.1979 75.7113L97.4432 75.741L97.6886 75.7705L97.8241 75.944ZM45.9974 78.7893L43.7112 79.0635L41.9194 79.3246L40.1275 79.5859L38.7064 79.6109L37.2853 79.6358L36.2967 79.5644L35.3081 79.4929L36.482 79.9485L37.656 80.4042L38.672 80.641L39.6881 80.8779L40.8964 81.0686L42.1047 81.2592L42.8462 81.3663L43.5876 81.4734L46.0591 81.6205L48.5307 81.7677L53.8444 81.8228L59.1582 81.8779L61.5061 82.0243L63.854 82.1707L65.1516 82.3069L66.4491 82.443L66.4731 82.4242L66.4972 82.4054L65.3609 81.8996L64.2248 81.3938L62.5181 80.7888L60.8114 80.1839L58.9962 79.7423L57.181 79.3006L55.8834 79.0866L54.5859 78.8724L54.5054 78.8331L54.4251 78.7939L52.8379 78.6449L51.2508 78.4961L49.7672 78.5057L48.2835 78.5153L45.9974 78.7893ZM93.3268 78.6064L92.4 78.691L90.5464 78.9977L88.6928 79.3043L87.6424 79.5543L86.592 79.8043L85.6901 80.0463L84.7883 80.2882L83.6511 80.6869L82.514 81.0856L81.4636 81.5139L80.4132 81.9422L79.8571 82.2099L79.301 82.4775L79.7255 82.4183L80.1501 82.359L81.7027 82.2175L83.2554 82.0761L85.1091 81.9746L86.9627 81.8731L92.2765 81.8185L97.5902 81.7638L99.9382 81.6209L102.286 81.4781L103.336 81.3286L104.387 81.179L105.374 81.0272L106.361 80.8753L107.166 80.6684L107.971 80.4614L109.292 80.0019L110.614 79.5423L110.569 79.5067L110.525 79.4712L109.186 79.5761L107.847 79.6809L106.426 79.5898L105.005 79.4986L103.786 79.2946L102.567 79.0906L101.191 78.9407L99.8146 78.7907L98.6406 78.6441L97.4666 78.4974L95.8602 78.5096L94.2537 78.5217L93.3268 78.6064ZM110.319 80.1512L109.701 80.4096L108.861 80.6879L108.021 80.9663L106.718 81.2659L105.415 81.5655L104.345 81.7102L103.275 81.8549L102.101 81.9632L100.927 82.0715L99.5674 82.1684L98.2081 82.2655L91.5968 82.359L84.9855 82.4527L82.3286 82.6969L79.6717 82.9412L79.023 83.056L78.3742 83.1707V83.2616V83.3525L78.4669 83.353L78.5596 83.3536L81.5254 83.889L84.4912 84.4245L86.1595 84.6273L87.8277 84.8301L89.6814 85.0334L91.535 85.2367L92.6861 85.2362L93.8371 85.2356L95.8373 85.0281L97.8374 84.8205L100.034 84.3823L102.23 83.944L103.803 83.4412L105.375 82.9384L107.167 82.0857L108.958 81.233L109.978 80.6478L110.998 80.0626V79.9731V79.8836L110.967 79.8883L110.936 79.8928L110.319 80.1512ZM35.8057 80.583L36.6674 81.0841L38.3145 81.8822L39.9615 82.6803L41.095 83.0777L42.2283 83.4751L43.2787 83.7643L44.3291 84.0535L46.2445 84.4359L48.1599 84.8183L48.5924 84.8779L49.025 84.9377L50.5079 85.0859L51.9908 85.234L53.1478 85.2348L54.3049 85.2356L55.8665 85.08L57.4281 84.9244L59.4053 84.6725L61.3825 84.4205L63.5451 84.0435L65.7077 83.6665L66.6036 83.4904L67.4995 83.3142V83.2423V83.1703L66.9125 83.0623L66.3256 82.9543L63.6687 82.7042L61.0118 82.4542L54.4623 82.3625L47.9128 82.2708L46.6152 82.1699L45.3177 82.0691L43.8966 81.961L42.4754 81.853L41.7958 81.7506L41.1161 81.6482L39.4478 81.3246L37.7796 81.001L36.9145 80.7259L36.0495 80.4507L35.591 80.2663L35.1326 80.0818H35.0383H34.9441L35.8057 80.583ZM67.926 84.3761L65.6957 85.2852L64.3423 85.7172L62.989 86.1492L61.7539 86.493L60.5189 86.837L59.2224 87.0875L57.926 87.3381L57.2445 87.2158L56.5631 87.0935L56.429 87.0522L56.2949 87.011L56.0082 87.1971L55.7217 87.3833L55.9498 87.693L56.1779 88.0027L56.7922 88.2146L57.4064 88.4265L58.3319 88.3161L59.2574 88.2057L61.2468 87.7002L63.2362 87.1949L65.0898 86.5242L66.9434 85.8535L68.5499 85.2174L70.1564 84.5812L71.0824 84.1466L72.0084 83.712L71.3913 83.5837L70.7743 83.4555L70.4653 83.4612L70.1564 83.4671L67.926 84.3761ZM44.0201 103.869V111.996H46.3681H48.716V108.775V105.553H50.6314H52.5469V108.775V111.996H54.833H57.1192V103.869V95.7414H54.833H52.5469V98.6652V101.589H50.6314H48.716V98.6652V95.7414H46.3681H44.0201V103.869ZM60.7029 103.871V112L63.0078 111.973L65.3129 111.946L65.9475 110.707L66.5822 109.468L68.1221 106.458L69.6621 103.448L69.6944 107.722L69.7265 111.996H72.0114H74.2962V103.866V95.737L71.9875 95.764L69.6789 95.791L67.5079 100.064L65.3369 104.337L65.3047 100.039L65.2726 95.7414H62.9877H60.7029V103.871ZM76.2734 97.7236V99.7059H77.7563H79.2392V105.851V111.996H81.5872H83.9351V105.854V99.7121L85.3871 99.6843L86.8391 99.6563L86.8726 97.6989L86.9061 95.7414H81.5898H76.2734V97.7236ZM91.054 97.7484L90.4575 99.7554L88.8008 105.306L87.1441 110.856L86.9773 111.426L86.8105 111.996H89.2631H91.7157L91.7813 111.773L91.8468 111.55L92.1544 110.42L92.4618 109.29V109.255V109.221H94.3649H96.2678L96.4588 109.939L96.6496 110.658L96.8193 111.302L96.9893 111.946L99.4214 111.973L101.854 112V111.888V111.777L99.5056 103.892L97.1577 96.0074V95.8744V95.7414H94.4042H91.6507L91.054 97.7484ZM94.9205 103.38L95.4276 105.321V105.437V105.553H94.3389H93.2501L93.5991 104.191L93.9481 102.828L94.1457 102.104L94.3433 101.38L94.3784 101.41L94.4133 101.44L94.9205 103.38Z" fill="#6B6D6D"/>
</svg>
