<svg width="178" height="112" viewBox="0 0 178 112" fill="none" xmlns="http://www.w3.org/2000/svg">
<path fill-rule="evenodd" clip-rule="evenodd" d="M1.64244 1.64503C-0.0281928 3.59539 0.0274067 2.29208 0.00688781 39.9102C-0.014624 78.4291 -0.197308 76.7233 4.01834 77.322C9.73881 78.1344 81.1036 77.2885 81.9346 76.3986C83.186 75.0585 82.6631 72.2767 80.396 68.2159C80.221 67.9021 80.0777 67.4992 80.0777 67.3211C80.0777 67.1427 79.7123 66.2166 79.2655 65.2626C78.8191 64.309 77.9884 62.3497 77.4198 60.9094C76.8512 59.4687 76.2883 58.1378 76.1685 57.9518C76.0487 57.7655 75.9395 57.5394 75.9259 57.449C75.912 57.3587 75.6489 56.7123 75.3414 56.0123C75.034 55.3123 74.7825 54.6758 74.7825 54.5976C74.7825 54.1635 73.2687 51.2148 72.5757 50.2986C70.7065 47.8274 70.6605 47.8201 54.76 47.5556C37.9421 47.2756 34.0163 46.8767 27.622 44.7971C19.2146 42.0627 17.3947 37.138 23.6506 34.0496C30.4133 30.7112 34.5468 30.1545 54.0729 29.9534C70.446 29.7845 70.1425 29.8229 72.1905 27.657C72.953 26.8502 73.4199 25.9646 75.1091 22.1223C76.1817 19.6827 77.5128 16.7757 77.7779 16.2939C77.9507 15.9801 78.092 15.5703 78.092 15.3833C78.092 15.196 78.5245 14.1221 79.0531 12.9962C83.4779 3.5714 83.8571 1.9122 81.9055 0.520488C80.2226 -0.679304 2.70314 0.406457 1.64244 1.64503ZM105.561 0.51063C103.327 1.3634 102.14 3.26874 100.595 8.4846C100.033 10.3824 99.3744 12.5266 99.1308 13.2496C98.8872 13.9726 98.2041 16.1168 97.6131 18.0146C97.0217 19.9124 96.3194 22.0566 96.0523 22.7796C94.7361 26.3428 94.7067 27.5696 95.905 28.9018C97.156 30.2915 125.801 30.7026 128.562 29.3701C130.357 28.5038 133.692 25.0227 133.692 24.0155C133.692 23.5739 135.956 21.5883 137.27 20.8775C139.226 19.8197 145.435 19.66 146.681 20.6357C148.213 21.8351 148.261 21.679 143.047 32.4719C141.119 36.4624 140.515 40.6171 141.554 42.7462C142.549 44.7873 144.631 49.2592 145.262 50.7123C145.654 51.616 146.254 52.9469 146.596 53.6699C148.345 57.3685 147.364 58.4819 142.418 58.4099C140.527 58.3826 138.898 58.2292 138.798 58.0688C138.698 57.9088 138.365 57.777 138.057 57.7763C136.889 57.7734 134.638 55.8697 133.165 53.6387C129.259 47.7261 130.007 47.9263 111.777 47.9223C93.5655 47.9184 93.8455 47.809 95.7733 54.1628C96.0748 55.1569 96.3763 56.1921 96.4432 56.4632C96.51 56.7343 96.934 58.0652 97.3857 59.4208C97.8375 60.7763 98.5368 62.9945 98.9395 64.3501C99.3426 65.7056 99.8936 67.4802 100.164 68.2935C100.435 69.1068 100.707 69.9941 100.769 70.2652C100.832 70.5363 101.102 71.4604 101.369 72.3191C101.637 73.1775 101.819 73.88 101.774 73.88C101.445 73.88 104.275 76.4462 105.035 76.8376C106.792 77.7426 174.693 77.5632 175.946 76.65C178.184 75.02 178.052 77.5195 177.958 38.5534C177.865 -0.374344 178.006 1.76793 175.459 0.613488C174.652 0.248391 106.511 0.147833 105.561 0.51063ZM14.0531 91.6196C11.1708 91.8667 10.8445 109.535 13.7221 109.535C15.3769 109.535 15.3769 109.535 15.4702 105.877C15.5632 102.219 15.5632 102.219 17.4774 102.081C22.494 101.721 24.52 96.4438 20.9557 93.0222C20.0717 92.1737 19.5667 91.9542 18.4984 91.9542C17.7587 91.9542 16.9029 91.8408 16.5961 91.7018C16.2896 91.5631 15.1452 91.5263 14.0531 91.6196ZM65.3222 91.5983C65.2468 91.6735 65.1849 94.9637 65.1849 98.9101C65.1849 106.085 65.1849 106.085 62.5373 106.085C59.8897 106.085 59.8897 106.085 59.8897 98.8552C59.8897 91.6255 59.8897 91.6255 57.904 91.6255C55.9183 91.6255 55.9183 91.6255 55.9183 100.463C55.9183 108.219 55.9825 109.325 56.4419 109.5C56.7298 109.61 59.6339 109.7 62.8954 109.7C68.8254 109.7 68.8254 109.7 68.8254 110.85C68.8254 112 68.8254 112 70.6456 112C72.4658 112 72.4658 112 72.4658 109.042C72.4658 106.085 72.4658 106.085 70.6456 106.085C68.8254 106.085 68.8254 106.085 68.8254 99.0389C68.8254 94.1431 68.7109 91.9226 68.4504 91.7629C68.0387 91.5102 65.5423 91.3787 65.3222 91.5983ZM110.036 91.826C109.759 92.0268 109.532 92.4037 109.532 92.664C109.532 92.9242 109.406 93.2778 109.253 93.4494C109.099 93.6209 108.64 94.7228 108.233 95.8976C107.826 97.0724 107.375 98.2604 107.231 98.5374C107.087 98.8144 106.864 99.5151 106.736 100.094C106.608 100.674 106.365 101.232 106.197 101.336C106.029 101.438 105.892 101.81 105.892 102.161C105.892 102.512 105.759 102.799 105.598 102.799C105.436 102.799 105.207 103.31 105.089 103.935C104.971 104.56 104.657 105.484 104.392 105.989C104.127 106.493 103.909 107.136 103.908 107.416C103.907 107.696 103.737 108.093 103.531 108.297C102.726 109.097 103.489 109.7 105.304 109.7C107.18 109.7 107.47 109.416 108.055 107.009C108.552 104.963 114.977 105.567 115.709 107.728C116.322 109.535 116.322 109.535 118.104 109.636C120.009 109.744 120.806 109.368 120.204 108.645C120.01 108.412 119.747 107.666 119.619 106.989C119.492 106.311 119.286 105.756 119.163 105.756C119.04 105.756 118.647 104.795 118.29 103.62C117.933 102.445 117.529 101.484 117.392 101.484C117.256 101.484 117.143 101.225 117.142 100.909C117.141 100.593 116.917 99.9104 116.646 99.3928C116.374 98.8749 116.151 98.3057 116.151 98.1279C116.151 97.8223 115.413 96.0037 114.842 94.9009C114.698 94.6239 114.478 93.9318 114.352 93.3626C113.966 91.6173 111.524 90.7481 110.036 91.826ZM153.017 91.7626C151.981 94.4431 153.203 109.546 154.463 109.637C156.046 109.75 156.462 109.462 157.523 107.52C158.385 105.939 158.959 104.984 159.175 104.77C159.427 104.52 160.797 102.121 161.428 100.827C161.983 99.6863 161.989 99.7178 162.079 104.688C162.175 109.916 162.684 110.612 165.601 109.5C167.087 108.934 166.24 91.7067 164.718 91.5463C163.188 91.385 162.333 91.8546 161.95 93.0655C161.829 93.4484 161.23 94.5407 160.618 95.4931C160.006 96.4457 159.506 97.285 159.506 97.3587C159.506 97.4323 158.915 98.5013 158.193 99.7346C156.88 101.977 156.88 101.977 156.786 96.7481C156.693 91.5191 156.693 91.5191 154.926 91.4579C153.877 91.4215 153.101 91.5454 153.017 91.7626ZM18.3283 95.7685C19.8047 96.331 18.6301 98.1979 16.8 98.1979C15.5533 98.1979 15.5424 98.1864 15.5424 96.8835C15.5424 95.521 16.5845 95.104 18.3283 95.7685ZM112.18 98.0501C112.18 98.33 112.385 98.9584 112.637 99.4467C113.868 101.841 113.704 102.342 111.696 102.323C110.601 102.313 109.924 102.174 110.014 101.977C110.096 101.796 110.35 101.02 110.579 100.252C110.807 99.4838 111.111 98.8552 111.256 98.8552C111.4 98.8552 111.518 98.5594 111.518 98.1979C111.518 97.8365 111.667 97.5407 111.849 97.5407C112.031 97.5407 112.18 97.7697 112.18 98.0501ZM37.9262 98.8792C36.3164 100.136 36.9591 102.779 38.8744 102.777C40.8323 102.776 41.8264 99.7691 40.1154 99.0238C39.706 98.8453 39.3708 98.5864 39.3708 98.4487C39.3708 98.0129 38.8277 98.1749 37.9262 98.8792ZM87.0276 98.4585C85.3143 98.9893 84.8503 100.882 86.1387 102.084C87.0518 102.936 87.7594 102.984 88.8594 102.268C90.7545 101.035 89.193 97.7882 87.0276 98.4585ZM134.436 99.006C133.288 100.335 134.242 102.764 135.922 102.788C137.597 102.812 138.762 100.201 137.58 99.0694C136.969 98.4842 134.923 98.4428 134.436 99.006Z" fill="#6B6D6D"/>
</svg>
