<svg width="336" height="80" viewBox="0 0 336 80" fill="none" xmlns="http://www.w3.org/2000/svg">
<path fill-rule="evenodd" clip-rule="evenodd" d="M103.678 24.4179L102.817 24.9148V46.8149V68.7145L103.768 69.2191L104.72 69.7238H125.643H146.566L146.706 74.7215L146.846 79.7192L151.725 79.8596L156.604 80L157.006 79.372L157.408 78.744L157.416 69.4556L157.423 60.1672L156.833 59.5821L156.242 58.997H154.619H152.996L152.978 57.6562L152.962 56.3154L152.93 41.1175L152.898 25.9197L152.181 24.9055L151.464 23.8914H146.633H141.801L141.256 24.5428L140.71 25.1947L140.58 41.9737L140.451 58.7533L127.783 58.8834L115.116 59.0136L115.104 57.1769L115.093 55.3402L115.074 40.4739L115.054 25.6076L114.271 24.7495L113.487 23.8914L109.013 23.906L104.539 23.9211L103.678 24.4179ZM165.885 24.4764L165.294 25.0615V46.8456V68.6292L165.909 69.1172L166.524 69.6053L171.053 69.6935L175.581 69.7813L176.587 69.2479L177.593 68.7145V60.0073V51.3001L178.371 51.0042L179.15 50.7082H180.843H182.537L185.845 53.7253L189.154 56.743L194.792 61.8923L200.432 67.0421L201.68 68.261L202.928 69.48L209.753 69.6399L216.577 69.7994L217.747 69.5088L218.917 69.2177V68.3342V67.4507L210.959 60.6641L203.002 53.8775L200.014 51.3786L197.025 48.8803L195.364 47.38L193.704 45.8797L193.961 45.2146L194.219 44.5491L198.079 41.6558L201.938 38.7625L203.417 37.4241L204.896 36.0852L205.511 36.0833L206.126 36.0808V35.6722V35.2637L209.939 32.3172L213.751 29.3713L215.227 28.0948L216.703 26.8178L217.039 26.8173L217.374 26.8168L217.706 25.7807L218.038 24.7446L217.37 24.3253L216.703 23.9065L209.66 23.8987L202.618 23.8914L201.677 24.3901L200.736 24.8894L199.597 25.9748L198.457 27.0606L195.078 29.9861L191.699 32.9116L191.163 33.3991L190.628 33.8867L188.237 35.7927L185.845 37.6986L184.315 39.0838L182.785 40.469H180.189H177.593V32.6848V24.9007L176.642 24.396L175.69 23.8914H171.083H166.475L165.885 24.4764ZM224.117 24.6573L223.344 25.4238V46.8076V68.1913L224.117 68.9578L224.89 69.7238H240.68H256.47L259.708 69.1962L262.946 68.6691L264.588 67.9339L266.232 67.1986L267.171 66.2673L268.111 65.3356L268.131 65.7013L268.152 66.0669L269.432 63.1415L270.713 60.216L270.731 56.0716L270.75 51.9271L269.926 49.184L269.103 46.4404L267.166 44.7061L265.229 42.9718L263.35 42.3609L261.47 41.7494L248.679 41.5676L235.889 41.3857L235.733 38.0365L235.577 34.6873L236.471 34.2475L237.365 33.8077L250.788 33.9057L264.211 34.0033L264.481 34.2705L264.751 34.5381L265.693 33.7385L266.635 32.9389V29.657V26.3751L266.064 25.1332L265.494 23.8914H245.192H224.89L224.117 24.6573ZM296.537 24.5077L295.769 25.1103L294.313 27.792L292.857 30.4737L290.977 33.8867L289.097 37.2998L286.557 42.1756L284.018 47.0514L282.534 49.733L281.05 52.4147L277.041 60.0424L273.031 67.6706V68.4205V69.1704L273.892 69.3878L274.753 69.6048L280.164 69.6799L285.575 69.7545L286.694 68.1075L287.813 66.4604L289.783 62.4769L291.753 58.4929L304.371 58.6231L316.99 58.7533L319.53 63.5793L322.071 68.4054L322.98 69.0646L323.889 69.7238H329.172H334.454L335.227 68.9578L336 68.1913V67.9973V67.8032L334.954 65.9597L333.908 64.1166L329.912 56.3154L325.915 48.5141L325.665 48.2703L325.416 48.0265L324.124 45.5886L322.834 43.1507L320.002 37.7874L317.17 32.424L315.185 28.7671L313.201 25.1103L312.483 24.5827L311.766 24.0552L304.536 23.9801L297.306 23.9045L296.537 24.5077ZM309.891 44.7563L311.524 47.8247L311.285 48.0621L311.045 48.2996L304.564 48.3478L298.083 48.3961L297.776 48.0919L297.469 47.7871L299.846 43.2751L302.222 38.7625L303.177 37.056L304.132 35.3495L304.403 34.9024L304.675 34.4552L306.466 38.0716L308.258 41.688L309.891 44.7563ZM257.729 52.3684L258.764 53.2972V55.2042V57.1106L258.274 58.0185L257.784 58.9263L255.2 59.4802L252.615 60.0341L244.252 59.881L235.889 59.7284L235.74 56.5743L235.59 53.4201L235.867 52.3294L236.143 51.2392L246.418 51.3391L256.694 51.4396L257.729 52.3684ZM157.915 78.2564V78.5002H158.161H158.407V78.2564V78.0126H158.161H157.915V78.2564Z" fill="#6B6D6D"/>
<path d="M80.1794 39.9815C80.1794 61.7823 62.3467 79.463 40.3397 79.463C18.3326 79.463 0.5 61.7823 0.5 39.9815C0.5 18.1807 18.3326 0.5 40.3397 0.5C62.3467 0.5 80.1794 18.1807 80.1794 39.9815ZM77.7196 39.9815C77.7196 54.781 65.6136 66.7859 50.6706 66.7859C39.0409 66.7859 29.1295 59.5144 25.306 49.3133C28.3267 53.9735 33.6023 57.0592 39.6018 57.0592C48.9755 57.0592 56.582 49.5266 56.582 40.2253C56.582 30.924 48.9755 23.3914 39.6018 23.3914C33.3332 23.3914 27.855 26.76 24.9134 31.7735C28.4112 20.9868 38.6181 13.1771 50.6706 13.1771C65.6136 13.1771 77.7196 25.182 77.7196 39.9815ZM22.643 41.0786C23.2242 55.9299 35.5542 67.7859 50.6706 67.7859C66.1574 67.7859 78.7196 55.3416 78.7196 39.9815C78.7196 24.6213 66.1574 12.1771 50.6706 12.1771C35.1837 12.1771 22.6215 24.6213 22.6215 39.9815C22.6215 40.0272 22.6216 40.0729 22.6219 40.1186C22.6216 40.1541 22.6215 40.1897 22.6215 40.2253C22.6215 40.5115 22.6287 40.7959 22.643 41.0786ZM39.6018 56.0592C31.0454 56.0592 24.0662 49.3986 23.6419 41.0327C23.6301 40.7295 23.6234 40.425 23.6219 40.1193C23.6794 31.4274 30.8076 24.3914 39.6018 24.3914C48.4316 24.3914 55.582 31.4846 55.582 40.2253C55.582 48.9659 48.4316 56.0592 39.6018 56.0592Z" fill="#6B6D6D" stroke="#0D0F10"/>
</svg>
