<svg width="278" height="112" viewBox="0 0 278 112" fill="none" xmlns="http://www.w3.org/2000/svg">
<path d="M11.6354 16.9143C6.04853 17.1485 1.55804 17.617 0.330492 22.7611L0 24.6518V45.1645L0.330492 47.1447L0.996723 49.0354L1.66295 49.9339L2.76984 50.743C6.77247 54.5798 36.5745 52.9702 40.8919 52.3612C49.1122 51.6884 48.3411 43.3079 48.0945 38.5086H35.3522V44.0871H12.7423V25.5546H35.3522V30.7711H48.0945C47.5279 25.4609 49.6001 23.5191 45.3247 19.167L44.3279 18.3579L43.3312 17.7277L40.8919 17.1869H38.4525L36.1233 16.9186H11.6354V16.9143Z" fill="#6B6D6D"/>
<path d="M73.4745 25.5504H102.065V44.0829H73.4745V25.5504ZM72.8082 16.9143C68.1446 17.8043 68.4751 16.1052 63.6122 18.8945L62.8358 19.9761L62.1695 20.7852L61.1728 22.7654V24.6561L60.8423 26.0954V43.5463C61.9649 47.677 59.7249 46.5442 63.6122 50.743L64.6089 51.5521L65.9413 51.8204L68.3807 52.3612L70.82 52.7189H105.176L107.505 52.3612L109.944 51.8204L110.941 51.5521L112.048 50.743L113.044 49.9339L113.711 49.0354L114.377 47.1447L114.707 45.1645V26.0912C114.755 23.4552 114.387 20.8576 112.048 18.8945L110.941 18.3537L109.944 17.7234L107.505 17.1826H105.176L103.072 16.9143H72.8082Z" fill="#6B6D6D"/>
<path d="M129.217 16.9143V52.7146H141.85V25.5504H171.106V16.9143H129.217Z" fill="#6B6D6D"/>
<path d="M193.38 27.4368L199.586 36.8819H186.508L193.38 27.4368ZM188.281 16.9101L163.237 52.7146H176.205L181.078 45.4285H205.461L210.225 52.7146H224.74L199.25 16.9101H188.281Z" fill="#6B6D6D"/>
<path d="M241.92 16.9143C230.111 17.3444 231.822 22.7909 231.612 30.7669H242.917V24.9201H263.864L264.194 25.2821V30.2303H263.528L262.862 30.4986H247.68V38.2361H264.194L264.86 38.5044V38.8664L265.191 39.6754V43.0055L264.86 43.5463V44.0871H242.586V38.5086H230.841V46.6039L231.171 47.9538L231.947 49.6614L232.944 51.0113L235.048 51.8204L237.041 52.3612L239.481 52.7189H267.63L270.4 52.0887C275.462 51.3222 277.487 48.8395 277.938 44.892C278.117 40.5569 278.248 36.4646 273.175 34.097C278.08 32.5852 276.323 26.3296 276.611 23.3019L276.281 21.952L275.504 20.2444L274.172 19.1628L272.839 18.3537L270.736 17.4552L268.632 17.1869L266.303 16.9186H241.92V16.9143Z" fill="#6B6D6D"/>
<path d="M0 2.24843H277.939V0H0V2.24843Z" fill="#6B6D6D"/>
<path d="M122.015 86.7222L121.569 85.9088V85.6405L120.908 85.3722L119.576 85.0997H114.036V88.6981H120.572L121.239 88.4298L121.569 87.889L122.015 86.7222Z" fill="#6B6D6D"/>
<path d="M189.283 85.0997H183.854V89.5072H189.614L190.721 89.2389L191.387 88.4298C192.106 86.258 192.184 85.3637 189.283 85.0997Z" fill="#6B6D6D"/>
<path d="M101.403 85.0997C96.6607 85.1891 96.3984 85.7214 96.5243 89.7797C95.9892 93.3525 97.0646 94.4639 101.403 94.5491C105.516 94.3617 106.303 93.1438 105.836 89.7797C105.956 86.2835 105.951 85.1338 101.403 85.0997Z" fill="#6B6D6D"/>
<path d="M147.39 88.4298L148.056 88.9706L149.163 89.2389L150.826 89.5114H155.258V85.0997H149.829L148.392 85.3722L147.725 85.6405L147.39 86.4496V88.4298Z" fill="#6B6D6D"/>
<path d="M119.576 90.3205H114.036V94.2766H120.572L121.569 93.9188L122.346 93.378V91.219L122.015 90.5888H120.908L119.576 90.3205Z" fill="#6B6D6D"/>
<path d="M277.608 67.3805H0V112H277.608V67.3805ZM29.9227 91.7598L29.5922 93.6506L29.2617 94.5491L28.4853 95.0899L27.4886 95.6307L26.4918 95.899L23.3863 96.1673L21.6132 95.899C16.2833 96.3461 16.299 91.1509 16.5141 88.1615C17.1122 84.2012 18.3449 83.4219 23.3863 83.3921H25.0492L26.4918 83.6604L27.4886 84.0181L28.4853 84.5589L28.8158 85.0997L29.5922 85.6405L29.9227 87.6207V87.889H27.4833V87.6207L27.1528 86.4496L26.4866 85.6405L25.3797 85.0997H23.3863C17.4427 85.6789 20.0446 86.1643 18.9535 89.7797L19.284 92.3007V93.1098L19.6145 93.6506L20.2807 93.9189L20.9469 94.2766L23.3863 94.5448L25.3797 94.2766L26.8223 93.9189L27.4886 93.1098V91.4916H29.9279V91.7598H29.9227ZM44.6637 85.104H39.124V95.899H36.7948V85.104H31.5856V83.3964H44.6637V85.104ZM58.7385 90.3205L57.7417 90.9508L57.0755 91.219H49.8729V95.8947H47.4335V83.3921H55.3024L57.406 83.6604L58.7385 84.5589L59.7352 85.6405V88.9706L59.4047 89.7797L58.7385 90.3205ZM75.5831 95.899H73.4795L72.147 93.3823H64.6086L63.166 95.899H60.5063L66.6021 83.6646V83.3964H69.7077L76.2441 95.899H75.5778H75.5831ZM89.9883 95.899L85.2251 90.593L80.0159 95.899H77.3562L83.1214 89.5114L77.6919 83.3964H80.7975L85.2303 88.434L89.3326 83.3964H92.4382L86.8985 89.5114L92.7739 95.899H89.9883ZM106.833 94.8174C104.425 96.6016 99.3261 96.3461 96.5247 95.3582L95.528 94.8174L94.8618 93.9189L94.5313 92.8415L94.0906 91.4916V88.1615L94.5313 86.4539L94.8618 85.3723L95.528 84.5632L96.5247 84.0223L97.9674 83.6646L99.2998 83.3964H103.066L104.84 83.6646L105.836 84.0223L106.833 84.5632L107.499 85.3723L107.83 86.4539L108.276 89.784L107.83 92.8415L107.499 93.9189L106.833 94.8174ZM120.242 95.899H111.706V83.3964H119.906L121.569 83.6646L123.011 84.2949L124.008 85.3765L124.339 86.7264L124.008 88.1658L123.678 88.9749L123.011 89.5157L123.678 89.784L124.344 90.593L124.674 91.2233V92.3049C123.83 95.4178 123.783 95.6435 120.242 95.9033V95.899ZM142.295 95.899H139.856L138.859 93.3823H130.88L129.548 95.899H127.108L132.984 83.6646L133.314 83.3964H136.415L142.621 95.899H142.29H142.295ZM157.697 95.899H155.258V91.2233H150.825L147.389 95.899H144.289L148.055 90.9508L146.723 90.3205L145.726 89.7797L144.95 88.6981L144.619 87.3481L144.95 86.4496C145.915 82.0592 154.466 83.5752 157.692 83.3921V95.8947L157.697 95.899ZM178.975 85.104H170.775V95.899H168.336V83.3964H178.975V85.104ZM192.719 90.3205L192.053 90.9508L191.056 91.219H183.853V95.8947H181.414V83.3921H189.613L191.717 83.6604L193.049 84.5589L193.826 85.6405L194.156 87.3481L193.826 88.9663L193.38 89.7754L192.714 90.3163L192.719 90.3205ZM204.465 93.9189L204.134 94.8174L203.027 95.3582L202.361 95.899H199.255V94.2808H201.695L202.025 93.3823L196.15 83.3964H198.589L203.352 91.4916L207.895 83.3964H210.225L204.465 93.9231V93.9189ZM226.739 95.899H224.299V85.104H215.434V95.899H212.994V83.3964H226.739V95.899ZM244.25 95.899H241.92V85.104H232.945V95.899H230.505V83.3964H244.25V95.899ZM259.762 95.899L258.765 93.3823H250.786L249.789 95.899H247.019L253.225 83.3964H256.331L262.537 95.899H259.762Z" fill="#6B6D6D"/>
<path d="M131.546 91.7598H137.752L134.647 85.3723L131.546 91.7598Z" fill="#6B6D6D"/>
<path d="M251.452 91.7598H257.989L254.553 85.3723L251.452 91.7598Z" fill="#6B6D6D"/>
<path d="M65.2747 91.7598H71.4806L68.375 85.3723L65.2747 91.7598Z" fill="#6B6D6D"/>
<path d="M54.9669 85.0997H49.8679V89.5072H55.6279L56.7348 89.2389L57.401 88.4298C57.2437 85.7853 58.2509 85.6618 54.9617 85.0997H54.9669Z" fill="#6B6D6D"/>
</svg>
