<svg width="336" height="78" viewBox="0 0 336 78" fill="none" xmlns="http://www.w3.org/2000/svg">
<path fill-rule="evenodd" clip-rule="evenodd" d="M318.934 0.366706L318.256 0.713282V0.859218V1.00499L318.556 1.43598L318.857 1.86681L319.92 3.80114L320.983 5.73548L321.95 7.85941L322.917 9.98335L323.392 11.282L323.867 12.5806L324.49 14.602L325.113 16.6232L325.585 18.8226L326.057 21.0219L326.376 23.2945L326.695 25.5671L326.866 27.4339L327.036 29.3007L327.201 34.8929L327.365 40.485L327.193 44.2269L327.021 47.9688L326.781 50.3226L326.542 52.6764L326.135 55.3548L325.728 58.0333L325.246 60.2248L324.763 62.4162L324.208 64.3642L323.653 66.3122L323.095 67.8543L322.536 69.3965L321.453 71.6691L320.369 73.9417L319.382 75.4426L318.395 76.9437L318.472 77.066L318.549 77.1883L319.293 77.5942L320.037 78L320.542 77.4106L321.047 76.8212L322.205 75.4413L323.363 74.0614L324.633 72.2972L325.903 70.5328L327.329 68.0978L328.754 65.6629L329.795 63.5363L330.836 61.4096L331.585 59.6404L332.334 57.871L333.334 54.7867L334.335 51.7024L334.746 49.8356L335.156 47.9688L335.492 46.0208L335.828 44.0728L335.914 40.5016L336 36.9303L335.735 34.6013L335.469 32.2724L335.075 30.2996L334.681 28.3267L334.214 26.5411L333.746 24.7555L333.088 22.8075L332.429 20.8595L331.634 18.9307L330.839 17.0019L329.799 14.8892L328.758 12.7763L327.273 10.2434L325.787 7.71072L324.33 5.62493L322.872 3.5393L321.485 1.76957L320.097 0L319.854 0.0100645L319.612 0.020129L318.934 0.366706ZM298.756 6.53593L298 6.89906L298.9 8.44121L299.8 9.98335L300.877 12.256L301.954 14.5286L302.536 16.1292L303.119 17.7298L303.672 19.7816L304.226 21.8335L304.543 23.6191L304.861 25.4048L305.095 27.3528L305.329 29.3007L305.489 32.1415L305.648 34.9823L305.65 38.7971L305.652 42.6119L305.492 45.2092L305.333 47.8065L305.003 50.4849L304.672 53.1634L304.28 55.1925L303.888 57.2216L303.404 59.0805L302.92 60.9393L302.196 62.9764L301.472 65.0135L300.538 66.8823L299.604 68.751L298.882 69.8042L298.159 70.8574L298.436 71.0727L298.714 71.2879L299.14 71.5168L299.566 71.7457L300.599 70.5711L301.631 69.3965L302.964 67.5839L304.297 65.7715L305.323 64.0938L306.349 62.4162L307.349 60.4683L308.348 58.5203L309.173 56.5723L309.998 54.6244L310.686 52.5069L311.374 50.3895L311.783 48.7447L312.193 47.0998L312.521 45.1806L312.849 43.2612L312.942 40.5813L313.036 37.9013L312.842 35.9548L312.649 34.0083L312.26 31.9625L311.872 29.9166L311.394 28.1826L310.915 26.4486L310.182 24.3914L309.449 22.334L308.58 20.4285L307.71 18.5231L306.932 17.0655L306.154 15.608L305.166 13.9973L304.178 12.3868L303.041 10.7681L301.904 9.14946L300.733 7.6591L299.563 6.16857L299.537 6.17068L299.511 6.1728L298.756 6.53593ZM122.038 11.0437V11.3736L121.79 11.9771L121.542 12.5806L121.112 13.0422L120.682 13.5037L119.964 13.8749L119.246 14.246L118.369 14.5098L117.491 14.7737L114.462 15.5156L111.432 16.2574L109.516 16.9047L107.601 17.5519L105.824 18.4164L104.047 19.281L103.044 19.9735L102.042 20.6662L100.809 21.865L99.5757 23.0638L98.7827 24.2342L97.9898 25.4048L97.4296 26.5411L96.8693 27.6774L96.3686 29.1218L95.8677 30.5664L95.4811 32.5308L95.0944 34.4953L94.9105 36.1998L94.7266 37.9043L94.7235 41.2321L94.7207 44.5598L94.9129 46.1831L95.1051 47.8065L95.41 49.3226L95.7147 50.839L96.1992 52.3103L96.6835 53.7817L97.3932 55.1769L98.103 56.5723L98.9548 57.7086L99.8067 58.845L100.912 59.7925L102.017 60.7398L102.974 61.283L103.932 61.8262L104.809 62.1563L105.686 62.4867L106.803 62.7614L107.92 63.0362L109.675 63.0323L111.429 63.0284L112.504 62.7657L113.579 62.5031L114.819 62.0166L116.058 61.5301L117.36 60.7148L118.662 59.8998L119.947 58.6691L121.233 57.4384L121.972 56.4373L122.712 55.4362L123.274 54.2997L123.837 53.1634L124.141 52.2706L124.444 51.3777L124.61 50.6472L124.776 49.9168L124.915 48.4558L125.054 46.9948L124.896 45.408L124.737 43.8212L124.344 42.4403L123.951 41.0593L123.331 39.8065L122.711 38.5536L121.949 37.4984L121.187 36.4433L120.217 35.4885L119.246 34.5336L118.314 33.8897L117.382 33.2455L116.288 32.6949L115.193 32.1444L113.79 31.7073L112.386 31.2703L109.914 31.2596L107.441 31.2487L106.252 31.6289L105.062 32.0089L104.018 32.5439L102.974 33.0788L101.996 33.8268L101.018 34.5749L100.018 35.6633L99.0174 36.7517L98.1805 38.0585L97.3436 39.3652L97.0585 39.974L96.7736 40.5827H96.4841H96.1945L96.1958 39.6493L96.1971 38.7159L96.3533 37.3299L96.5093 35.944L96.8293 34.6713L97.1491 33.3986L97.704 32.2248L98.2588 31.0508L99.1258 29.9324L99.9929 28.8137L100.808 28.1644L101.622 27.5151L102.697 26.8526L103.772 26.1901L105.367 25.4981L106.963 24.8061L109.914 23.9164L112.865 23.0266L114.61 22.447L116.356 21.8673L117.786 21.1386L119.216 20.4099L120.354 19.2549L121.492 18.0999L121.993 17.1248L122.494 16.1497L122.823 14.9396L123.153 13.7298L123.257 12.2219L123.361 10.7138H122.7H122.038V11.0437ZM279.679 12.4217L279.149 12.6558L279.221 12.7805L279.292 12.9053L280.21 14.5286L281.128 16.1519L281.682 17.3694L282.235 18.5869L282.858 20.2553L283.48 21.9239L283.957 23.8354L284.433 25.7468L284.748 27.8485L285.062 29.9501L285.247 32.8379L285.433 35.7258L285.348 40.5486L285.263 45.3715L285 47.6441L284.736 49.9168L284.337 52.0271L283.937 54.1374L283.38 56.1275L282.823 58.1179L282.282 59.4829L281.741 60.848L281.233 61.8726L280.725 62.8972L280.009 64.0033L279.293 65.1096L279.352 65.1561L279.411 65.2023L279.805 65.4733L280.2 65.744H280.393H280.586L281.89 64.1613L283.194 62.5786L284.623 60.3912L286.053 58.2037L287.229 55.7647L288.406 53.3257L288.983 51.7836L289.559 50.2414L290.112 48.3077L290.664 46.3739L291.015 44.493L291.366 42.6119L291.364 39.2841L291.362 35.9563L291.084 34.333L290.806 32.7097L290.424 31.1675L290.041 29.6254L289.535 28.0832L289.03 26.5411L288.394 24.999L287.758 23.4568L286.87 21.7523L285.983 20.0479L285.145 18.6681L284.306 17.2882L283.214 15.7417L282.123 14.195L281.325 13.1863L280.528 12.1774L280.368 12.1824L280.208 12.1875L279.679 12.4217ZM18.4284 14.9408L17.1552 15.088L15.6125 15.4924L14.0701 15.8967L12.6251 16.5306L11.1803 17.1645L9.53841 18.2708L7.89657 19.3771L6.37724 20.93L4.85806 22.4828L3.89979 23.9438L2.94151 25.4048L2.28522 26.7846L1.62877 28.1644L1.12658 29.7066L0.624228 31.2487L0.312194 33.091L0 34.9335V37.6686V40.4038L0.244395 42.3195L0.488789 44.2352L0.903559 46.0208L1.31833 47.8065L1.79101 49.1863L2.26368 50.5661L3.02415 52.1337L3.78445 53.7013L4.51269 54.8122L5.24093 55.923L6.20463 57.0842L7.16817 58.2453L8.48953 59.3284L9.81089 60.4113L11.5657 61.2856L13.3205 62.1599L14.5967 62.4862L15.8729 62.8125L17.3086 62.9906L18.7444 63.1688L19.8611 63.0672L20.9777 62.9657L22.2978 62.7256L23.6179 62.4854L25.0098 61.9859L26.4017 61.4862L28.2539 60.5064L30.1062 59.5264L30.8134 59.5103L31.5204 59.4943L31.9578 59.7858L32.3952 60.0775L32.6996 60.7598L33.0041 61.4422L33.0959 61.8887L33.1876 62.3351H34.1417H35.0958L35.0994 61.8887L35.1029 61.4422L35.3356 55.436L35.5684 49.4298L35.5714 48.0094L35.5744 46.589H34.7734H33.9723L33.831 46.9542L33.6896 47.3195L33.3328 48.8616L32.9757 50.4037L32.438 51.8451L31.9001 53.2864L31.2667 54.5235L30.6334 55.7607L29.7823 56.897L28.9313 58.0333L27.865 58.9464L26.7989 59.8597L25.6147 60.4472L24.4307 61.0346L23.4222 61.2767L22.4135 61.5185H20.8182H19.223L18.186 61.2708L17.1491 61.0229L15.8729 60.3894L14.5967 59.7558L13.7697 59.057L12.9427 58.358L12.1256 57.3213L11.3085 56.2848L10.7814 55.211L10.2545 54.1374L9.9275 53.1634L9.60047 52.1894L9.32002 50.9719L9.03941 49.7544L8.97337 40.9074L8.90717 32.0604L9.09637 30.2882L9.28556 28.5162L9.65854 26.9489L10.0315 25.3817L10.4464 24.2569L10.8614 23.1322L11.4864 22.0595L12.1113 20.987L12.6642 20.3136L13.2169 19.6403L14.1462 18.8315L15.0753 18.023L16.1919 17.4707L17.3086 16.9183L18.4625 16.6357L19.6163 16.3529L21.7328 16.435L23.8492 16.5173L25.1379 16.9417L26.4267 17.366L27.3713 17.9913L28.316 18.6166L29.0431 19.4136L29.7702 20.2107L30.4316 21.3468L31.0928 22.4828L31.6437 24.1873L32.1945 25.8918L32.444 27.3528L32.6934 28.8137L32.7851 29.4225L32.877 30.0312H33.6689H34.4609L34.4195 22.4422L34.378 14.8533L33.4738 14.8051L32.5697 14.7567L32.4582 15.1297L32.3469 15.5026L31.9455 16.0474L31.5441 16.5922L30.967 16.8394L30.3898 17.0866L28.5955 16.9837L26.8011 16.881L26.1756 16.6618L25.5503 16.4425L24.7796 15.8685L24.0088 15.2945L23.3706 15.1143L22.7325 14.9343L21.217 14.864L19.7015 14.7935L18.4284 14.9408ZM42.0619 15.692L41.9555 15.8002V16.4225V17.0447H44.6674H47.3794V38.8744V60.704L44.7073 60.7484L42.0353 60.7929V61.5234V62.2539L51.1682 62.2958L60.301 62.3377V61.5247V60.7118H57.8284H55.3557V38.8783V17.0447H65.6452H75.9347V38.8783V60.7118H73.462H70.9893V61.5234V62.3351H80.0823H89.1754V61.5234V60.7118H86.5432H83.911V38.8783V17.0447H86.5432H89.1754V16.3143V15.5838H65.6718H42.1681L42.0619 15.692ZM145.807 16.3946V17.2071H148.439H151.072V38.9594V60.7118H148.439H145.807V61.5234V62.3351H155.14H164.472V61.5234V60.7118H161.76H159.048V38.95V17.1884L164.751 17.2402L170.454 17.292L171.378 17.6694L172.301 18.0468L173.289 18.7226L174.277 19.3985L175.049 20.3725L175.821 21.3465L176.439 22.6452L177.058 23.9438L177.472 25.4048L177.885 26.8658L178.058 28.0427L178.23 29.2196H179.155H180.081L179.998 28.0427L179.915 26.8658L179.572 21.2653L179.228 15.6649L162.518 15.6235L145.807 15.5823V16.3946ZM182.02 16.313V17.0447L184.453 17.0486L186.885 17.0525L195.806 36.3191L204.726 55.5857L204.199 56.566L203.672 57.5463L202.98 58.5432L202.288 59.5401L201.562 60.1905L200.836 60.8408L200.242 61.1366L199.648 61.4323L198.347 61.4939L197.046 61.5554L196.183 61.3002L195.32 61.045L194.787 60.6754L194.253 60.3059L193.939 59.8748L193.625 59.4436V58.992V58.5403L194.323 57.9007L195.021 57.2609L195.755 56.5814L196.489 55.9019L196.917 55.1581L197.346 54.4141L197.442 53.5869L197.538 52.7598L197.252 51.9972L196.966 51.2344L196.349 50.5534L195.732 49.8724L194.932 49.5223L194.132 49.1721L193.141 49.1385L192.15 49.1051L191.39 49.3296L190.631 49.5541L189.924 50.1875L189.216 50.8211L188.813 51.6677L188.41 52.514L188.231 53.7056L188.053 54.8971L188.224 55.897L188.396 56.897L188.955 58.0528L189.514 59.2084L190.62 60.2692L191.725 61.3301L192.894 61.9122L194.064 62.4942L195.101 62.767L196.138 63.0401L197.574 63.0488L199.009 63.0576L199.837 62.7678L200.664 62.4781L201.671 61.8177L202.679 61.1574L203.735 60.0504L204.791 58.9437L205.941 57.1898L207.091 55.436L208.264 53.001L209.437 50.5661L210.069 48.9428L210.7 47.3195L215.599 34.4142L220.498 21.5088L220.986 20.5686L221.474 19.6284L222.4 18.7562L223.326 17.884L224.215 17.5455L225.104 17.2071L225.537 17.2048L225.969 17.2027L226.328 17.1048L226.687 17.0069V16.2953V15.5838H220.625H214.563V16.3143V17.0447H215.114H215.664L216.474 17.2215L217.284 17.3983L217.78 17.8226L218.276 18.2471L218.493 18.777L218.711 19.307L218.71 20.0833L218.71 20.8595L218.324 22.3247L217.939 23.7901L213.579 35.1177L209.219 46.4453L208.875 45.6648L208.53 44.8845L202.057 31.0052L195.583 17.1259L198.542 17.0818L201.5 17.0374L201.451 16.3513L201.402 15.6649L191.711 15.6231L182.02 15.5813V16.313ZM229.025 16.8418L228.929 18.0999L228.823 24.2279L228.716 30.3559H229.757H230.798L230.909 29.4225L231.019 28.4891L231.342 26.9469L231.665 25.4048L232.189 24.0811L232.712 22.7573L233.3 21.8564L233.887 20.9556L234.87 20.0298L235.853 19.1041L236.973 18.564L238.093 18.0239L239.343 17.6999L240.592 17.3761L242.596 17.2103L244.601 17.0447H244.976H245.352V38.8783V60.7118H242.72H240.088V61.5234V62.3351H249.42H258.752V61.5234V60.7118H256.04H253.328V38.88V17.0483L254.804 17.136L256.279 17.2235L257.635 17.3939L258.991 17.5644L260.427 18.0437L261.863 18.5229L262.977 19.2854L264.091 20.0479L264.861 21.0219L265.631 21.9958L266.162 23.1322L266.693 24.2685L267.022 25.4048L267.351 26.5411L267.608 28.0832L267.866 29.6254L267.938 29.9906L268.011 30.3559H269.066H270.121L270.021 27.718L269.922 25.0801L269.818 20.3319L269.715 15.5838H249.418H229.121L229.025 16.8418ZM112.405 33.1007L113.447 33.5968L114.446 34.6143L115.444 35.6316L115.946 36.703L116.448 37.7746L116.727 38.8945L117.007 40.0146L117.004 47.1571L117.002 54.2997L116.648 55.5983L116.293 56.897L115.812 57.8978L115.331 58.8985L114.629 59.6933L113.927 60.4882L112.846 61.0463L111.765 61.6046H109.922H108.079L107.159 61.1658L106.239 60.727L105.392 59.865L104.545 59.0031L103.961 57.7877L103.376 56.5723L103.096 55.5172L102.815 54.462L102.816 46.9136L102.818 39.3652L103.262 38.0262L103.706 36.6871L104.386 35.6724L105.065 34.6576L106.056 33.8916L107.048 33.1257L108.042 32.7944L109.036 32.4633L110.2 32.5339L111.363 32.6045L112.405 33.1007Z" fill="#6B6D6D"/>
</svg>
