<svg width="114" height="112" viewBox="0 0 114 112" fill="none" xmlns="http://www.w3.org/2000/svg">
<path fill-rule="evenodd" clip-rule="evenodd" d="M54.0442 1.19758C52.4817 2.51193 51.2089 3.38853 50.1853 3.85482C49.8034 4.02855 48.5248 4.86288 47.3436 5.70914C46.1625 6.55503 43.097 8.66796 40.5318 10.4045C32.1872 16.0535 31.9811 16.255 32.1173 18.6406L32.2344 20.6904L29.8 22.544C28.4613 23.5632 25.3807 25.6975 22.9539 27.2867C20.527 28.8759 17.9662 30.6215 17.2635 31.1662C14.6021 33.2274 14.514 33.2462 7.57933 33.2462C-0.822673 33.2462 0.0238068 31.7679 0.0238068 46.4435V58.7744L1.15956 59.1944C2.75416 59.7839 28.4114 59.7167 29.8943 59.119C30.8725 58.7245 30.9718 58.4266 31.1769 55.2695C31.9758 42.9823 52.8417 33.4232 66.2914 39.1827C66.9274 39.4553 68.0525 39.8971 68.7917 40.1644C76.2573 42.866 81.1608 48.8667 81.86 56.1569C82.1288 58.9637 82.1617 59.0279 83.4697 59.3147C85.1787 59.6889 112.659 59.5285 113.399 59.1399C114.186 58.7267 114.207 34.3175 113.421 33.6796C113.055 33.3824 110.782 33.2412 106.189 33.2303L99.4913 33.2141L97.2025 31.6953C95.9434 30.8595 93.8406 29.469 92.5295 28.6046C91.2184 27.7403 89.3443 26.4401 88.3652 25.7152C87.3861 24.9903 85.4337 23.6867 84.026 22.8181L81.467 21.2394V18.6172C81.467 16.0885 81.4154 15.9625 80.0206 15.075C78.2311 13.9369 76.2537 12.5626 74.7913 11.4404C74.1794 10.9709 72.4771 9.80497 71.0084 8.84964C69.5398 7.89431 68.238 7.01735 68.1157 6.90105C67.9933 6.78439 66.7916 5.96522 65.4454 5.08032C64.0991 4.19505 61.93 2.69397 60.6251 1.74405C57.6647 -0.411135 56.1106 -0.540078 54.0442 1.19758ZM58.1315 10.4013C58.6073 10.7491 60.2976 11.924 61.8873 13.0127C63.477 14.1013 65.1935 15.3203 65.7017 15.7215C66.21 16.1228 67.2015 16.7762 67.9051 17.1735C71.2679 19.0722 72.1211 20.214 72.1211 22.8163V25.2388L74.4575 26.7026C75.7428 27.5077 77.24 28.4984 77.7847 28.9048C78.9939 29.8056 86.0777 34.57 87.9202 35.7214C88.6545 36.1805 90.0564 37.1521 91.0355 37.8809C95.279 41.0391 96.0716 41.3584 100.159 41.5535L103.942 41.7341V46.4295V51.1249L97.5999 51.2249C92.2166 51.3101 91.258 51.2437 91.258 50.7857C91.258 50.2739 91.0533 49.8365 89.2273 46.4443C87.1378 42.5623 82.0745 37.7206 77.867 35.5809C76.7874 35.0323 75.8038 34.4854 75.6814 34.3663C70.8122 29.6203 48.9307 29.1377 39.0075 33.5576C33.9522 35.8092 31.2628 37.6382 26.722 41.9132C25.5769 42.9913 22.7905 47.6055 22.0442 49.6592L21.5115 51.1249L15.6631 51.2256C11.8816 51.2906 9.80634 51.1949 9.79077 50.9547C9.77786 50.7503 9.76718 48.7139 9.76718 46.4295C9.76718 44.145 9.77786 42.1133 9.79077 41.9147C9.80501 41.703 11.4267 41.5535 13.712 41.5535H17.6098L20.499 39.5196C22.0882 38.401 24.1897 36.9205 25.1688 36.2296C26.1479 35.5387 27.7198 34.4627 28.6616 33.8389C29.6037 33.2148 31.0056 32.249 31.7769 31.692C32.5486 31.1355 34.8072 29.6344 36.7961 28.3561C41.3596 25.424 41.858 24.8075 41.858 22.0932V19.9445L49.3125 14.8728C57.6469 9.20288 56.9646 9.54853 58.1315 10.4013ZM51.649 40.1008C47.4763 40.9427 46.7277 41.158 45.4949 41.8702C44.7655 42.2921 43.9742 42.637 43.7366 42.637C41.3538 42.637 34.7716 50.3281 33.6185 54.46C32.3728 58.9225 32.8481 78.5055 34.2753 81.5178C36.0582 85.2814 42.9132 91.674 45.2408 91.7433C45.5105 91.7516 46.612 92.1377 47.6886 92.6019C59.1035 97.5223 74.835 90.9151 79.2485 79.3467C80.0402 77.2717 79.8956 56.6867 79.0713 54.118C77.0651 47.8677 71.053 42.6959 63.2202 40.4829C61.2655 39.931 53.7247 39.6818 51.649 40.1008ZM58.8756 54.9075C61.2406 56.4173 61.44 57.3445 61.44 66.8422V75.5875L60.2566 77.3523L59.0733 79.1167H56.4964C51.9063 79.1167 51.1808 77.6452 50.8875 67.7394C50.5555 56.5246 53.6419 51.5662 58.8756 54.9075ZM0.520476 61.1878C0.155094 61.545 0.0487344 68.5282 0.131958 86.7416L0.246329 111.804L8.82101 111.902L17.3953 112L17.8487 111.033C18.1358 110.419 18.284 103.71 18.2524 92.6947L18.2034 75.3242L23.8827 75.2227C27.1395 75.1642 29.8111 74.9529 30.1467 74.7268C31.2183 74.0052 30.9669 61.5461 29.8712 61.0701C28.4635 60.459 1.15377 60.5684 0.520476 61.1878ZM82.6909 61.0863C81.7131 61.5486 81.4906 73.9347 82.4461 74.7102C82.8057 75.002 84.8324 75.1436 88.6456 75.1436H94.3106L94.2309 77.5816L94.1508 80.0196L91.0457 80.1283C86.4622 80.2887 86.3594 80.4166 86.3767 85.9449C86.3945 91.7112 86.4319 91.7581 90.9936 91.7581H94.4138L94.2825 94.1094L94.1508 96.4604L57.8053 96.5474C37.8157 96.5951 21.2934 96.7692 21.0891 96.9343C20.6441 97.2944 20.3192 109.12 20.7086 110.804L20.9818 111.988L67.3573 111.896L113.733 111.804L113.851 101.406L113.969 91.0072L111.292 88.4262C108.045 85.2958 108.046 85.7112 111.285 83.1468L113.955 81.0327V71.2385C113.955 61.9246 113.913 61.4258 113.095 61.0701C111.936 60.5669 83.7581 60.5818 82.6909 61.0863Z" fill="#6B6D6D"/>
</svg>
