<svg width="20" height="14" viewBox="0 0 20 14" fill="none" xmlns="http://www.w3.org/2000/svg">
<path fill-rule="evenodd" clip-rule="evenodd" d="M1.15228 0.0202609C1.15228 0.0314044 1.10135 0.0405219 1.03911 0.0405219C0.976864 0.0405219 0.925938 0.0496393 0.925938 0.0607828C0.925938 0.0719263 0.907419 0.0810437 0.884785 0.0810437C0.86215 0.0810437 0.843632 0.0901611 0.843632 0.101305C0.843632 0.112448 0.81789 0.121566 0.786449 0.121566C0.752869 0.121566 0.717026 0.138301 0.699596 0.162087C0.683281 0.184374 0.653032 0.202609 0.632395 0.202609C0.560501 0.202609 0.490501 0.294796 0.517723 0.353634C0.530851 0.381999 0.550604 0.405219 0.56159 0.405219C0.581448 0.405219 0.620768 0.445032 0.70649 0.551928C0.730997 0.582462 0.761986 0.607545 0.775381 0.607646C0.788755 0.607747 0.805586 0.626063 0.812767 0.64835C0.819948 0.670637 0.838469 0.688872 0.853901 0.688872C0.869354 0.688872 0.90176 0.716224 0.925938 0.749654C0.950115 0.783085 0.983162 0.810437 0.999355 0.810437C1.01557 0.810437 1.02882 0.822087 1.02882 0.836331C1.02882 0.850574 1.04501 0.876488 1.06483 0.893953C1.08464 0.911418 1.11446 0.945354 1.1311 0.969364C1.14775 0.993393 1.17259 1.01305 1.18629 1.01305C1.20001 1.01305 1.21711 1.03128 1.22429 1.05357C1.23148 1.07586 1.2515 1.09409 1.26876 1.09409C1.28602 1.09409 1.30502 1.11232 1.31092 1.13461C1.31685 1.1569 1.33094 1.17513 1.34226 1.17513C1.3536 1.17513 1.45205 1.26635 1.56107 1.37782C1.67008 1.48928 1.77085 1.58045 1.785 1.58043C1.79914 1.58039 1.81072 1.58927 1.81072 1.60019C1.81072 1.61109 1.87321 1.68295 1.94961 1.75986C2.02601 1.83679 2.12091 1.93707 2.16052 1.98271C2.20013 2.02836 2.24873 2.0659 2.26855 2.06615C2.29069 2.06643 2.30456 2.08224 2.30456 2.10714C2.30456 2.12965 2.31828 2.14766 2.33542 2.14766C2.3524 2.14766 2.36629 2.15677 2.36629 2.16792C2.36629 2.17906 2.38018 2.18818 2.39715 2.18818C2.41429 2.18818 2.42801 2.20619 2.42801 2.2287C2.42801 2.25121 2.44174 2.26922 2.45888 2.26922C2.47585 2.26922 2.48974 2.27686 2.48974 2.28618C2.48974 2.31047 2.64878 2.47183 2.67273 2.47183C2.68374 2.47183 2.69862 2.49007 2.7058 2.51235C2.71298 2.53464 2.7318 2.55288 2.74761 2.55288C2.76343 2.55288 2.78627 2.57111 2.79839 2.5934C2.81051 2.61568 2.83399 2.63392 2.85055 2.63392C2.86714 2.63392 2.8807 2.64314 2.8807 2.65442C2.8807 2.66571 2.93625 2.73014 3.00415 2.79763C3.07206 2.86512 3.12761 2.92884 3.12761 2.93921C3.12761 2.9496 3.14117 2.95809 3.15776 2.95809C3.17432 2.95809 3.1978 2.97633 3.20992 2.99862C3.22204 3.0209 3.24552 3.03914 3.26208 3.03914C3.27867 3.03914 3.29222 3.04915 3.29222 3.06141C3.29222 3.07364 3.31768 3.10784 3.34881 3.13742C3.37994 3.16699 3.43871 3.2284 3.47943 3.2739C3.52015 3.31939 3.56877 3.3624 3.58746 3.36945C3.60616 3.37652 3.62145 3.39626 3.62145 3.41334C3.62145 3.4304 3.6389 3.44436 3.66019 3.44436C3.68165 3.44436 3.70375 3.46245 3.70972 3.48488C3.71563 3.50717 3.73523 3.5254 3.75326 3.5254C3.7713 3.5254 3.78606 3.5344 3.78606 3.5454C3.78606 3.55638 3.84161 3.6218 3.90952 3.69079C3.97742 3.75976 4.03298 3.8237 4.03298 3.83288C4.03298 3.84206 4.05149 3.84958 4.07413 3.84958C4.09806 3.84958 4.11528 3.86309 4.11528 3.88187C4.11528 3.89962 4.1338 3.91893 4.15643 3.92474C4.17907 3.93058 4.19759 3.94288 4.19759 3.9521C4.19759 3.96131 4.25314 4.02459 4.32104 4.09271C4.38895 4.16082 4.4445 4.2241 4.4445 4.23332C4.4445 4.24254 4.46302 4.25483 4.48566 4.26067C4.50829 4.26648 4.52681 4.28579 4.52681 4.30354C4.52681 4.32232 4.54403 4.33584 4.56796 4.33584C4.59455 4.33584 4.60911 4.34935 4.60911 4.37399C4.60911 4.39512 4.62749 4.41688 4.65027 4.42276C4.6729 4.42857 4.69142 4.44788 4.69142 4.46563C4.69142 4.4834 4.70459 4.49792 4.72068 4.49792C4.73677 4.49792 4.78165 4.53439 4.82039 4.57897C4.85914 4.62354 4.90152 4.66001 4.91459 4.66001C4.92766 4.66001 4.93834 4.67454 4.93834 4.69231C4.93834 4.71006 4.95685 4.72937 4.97949 4.73518C5.00227 4.74106 5.02064 4.76282 5.02064 4.78395C5.02064 4.80859 5.03521 4.8221 5.0618 4.8221C5.08922 4.8221 5.10295 4.83561 5.10295 4.86262C5.10295 4.88491 5.11346 4.90314 5.1263 4.90314C5.13916 4.90314 5.16959 4.92367 5.19396 4.94873C5.21832 4.97379 5.28188 5.03326 5.33521 5.08085C5.38855 5.12842 5.43217 5.17569 5.43217 5.18584C5.43217 5.19602 5.45069 5.21012 5.47332 5.21719C5.49596 5.22426 5.51448 5.23941 5.51448 5.25086C5.51448 5.27473 5.88497 5.63254 5.90969 5.63254C5.91866 5.63254 5.926 5.64236 5.926 5.65436C5.926 5.6827 6.03967 5.79462 6.06845 5.79462C6.08063 5.79462 6.09062 5.80214 6.09062 5.81132C6.09062 5.8361 6.37374 6.1188 6.39854 6.1188C6.41025 6.1188 6.41984 6.13703 6.41984 6.15932C6.41984 6.18161 6.4334 6.19984 6.44998 6.19984C6.46655 6.19984 6.49002 6.21808 6.50214 6.24037C6.51426 6.26265 6.53774 6.28089 6.55431 6.28089C6.57089 6.28089 6.58445 6.29007 6.58445 6.30129C6.58445 6.32674 6.86869 6.60506 6.89468 6.60506C6.90511 6.60506 6.91367 6.61813 6.91367 6.6341C6.91367 6.65006 6.93219 6.6689 6.95482 6.67597C6.97746 6.68305 6.99598 6.70276 6.99598 6.71976C6.99598 6.73676 7.0145 6.75546 7.03713 6.76127C7.05976 6.76711 7.07828 6.78386 7.07828 6.79853C7.07828 6.8132 7.0968 6.83099 7.11943 6.83806C7.14207 6.84513 7.16059 6.86485 7.16059 6.88185C7.16059 6.89885 7.17911 6.91755 7.20174 6.92336C7.22437 6.9292 7.24289 6.94291 7.24289 6.95385C7.24289 6.97807 7.36337 7.09132 7.38911 7.09132C7.39923 7.09132 7.4075 7.10439 7.4075 7.12036C7.4075 7.13632 7.42602 7.15517 7.44866 7.16224C7.47129 7.16931 7.48981 7.18902 7.48981 7.20602C7.48981 7.22302 7.50833 7.24172 7.53096 7.24754C7.5536 7.25337 7.57211 7.26709 7.57211 7.27803C7.57211 7.30224 7.69259 7.4155 7.71833 7.4155C7.72846 7.4155 7.73673 7.43373 7.73673 7.45602C7.73673 7.47889 7.75045 7.49654 7.76823 7.49654C7.78558 7.49654 7.80494 7.50987 7.8113 7.52616C7.81763 7.54245 7.84049 7.5613 7.86208 7.56804C7.88368 7.57479 7.90134 7.58972 7.90134 7.60121C7.90134 7.62615 8.02122 7.73967 8.04755 7.73967C8.05768 7.73967 8.06595 7.7493 8.06595 7.76107C8.06595 7.78597 8.26974 7.9828 8.2955 7.9828C8.30505 7.9828 8.31287 7.99733 8.31287 8.0151C8.31287 8.03285 8.33138 8.05216 8.35402 8.05797C8.37665 8.06381 8.39517 8.08056 8.39517 8.09523C8.39517 8.1099 8.41369 8.12769 8.43632 8.13476C8.45896 8.14183 8.47748 8.16155 8.47748 8.17855C8.47748 8.19554 8.496 8.21424 8.51863 8.22006C8.54126 8.22589 8.55978 8.23878 8.55978 8.24871C8.55978 8.27252 8.84549 8.55011 8.87001 8.55011C8.88045 8.55011 8.88901 8.56012 8.88901 8.57238C8.88901 8.58461 8.91909 8.62112 8.95588 8.65348C9.04973 8.73606 9.06028 8.74397 9.11621 8.77345C9.14356 8.78785 9.17802 8.81154 9.19277 8.82606C9.20755 8.84061 9.2516 8.8612 9.29068 8.87181C9.32977 8.88245 9.3764 8.90559 9.39434 8.92324C9.41226 8.94088 9.45405 8.95533 9.48718 8.95533C9.52033 8.95533 9.54745 8.96222 9.54745 8.97067C9.54745 9.00983 9.73031 9.03637 10.0001 9.03637C10.2699 9.03637 10.4528 9.00983 10.4528 8.97067C10.4528 8.96222 10.4755 8.95533 10.5033 8.95533C10.5625 8.95533 10.6586 8.91574 10.6586 8.89128C10.6586 8.88194 10.6771 8.87428 10.6997 8.87428C10.7224 8.87428 10.7409 8.86517 10.7409 8.85402C10.7409 8.84288 10.7644 8.83376 10.7932 8.83376C10.8221 8.83376 10.8681 8.81168 10.8955 8.78469C10.9229 8.75768 10.9641 8.72972 10.9871 8.72253C11.0101 8.71534 11.029 8.69641 11.029 8.68045C11.029 8.66448 11.0372 8.65141 11.0473 8.65141C11.08 8.65141 11.1936 8.53491 11.1936 8.50146C11.1936 8.48363 11.2071 8.46907 11.2237 8.46907C11.2403 8.46907 11.2637 8.45083 11.2759 8.42854C11.288 8.40626 11.3115 8.38802 11.328 8.38802C11.3446 8.38802 11.3582 8.37435 11.3582 8.35763C11.3582 8.34092 11.366 8.32724 11.3755 8.32724C11.4005 8.32724 11.6051 8.13081 11.6051 8.10688C11.6051 8.09586 11.6236 8.08105 11.6462 8.07398C11.6689 8.06691 11.6877 8.05033 11.688 8.03716C11.6883 8.02397 11.7162 7.9904 11.75 7.96254C11.8702 7.86333 11.9343 7.79981 11.9343 7.78001C11.9343 7.76897 11.9426 7.75993 11.9527 7.75993C11.979 7.75993 12.0989 7.64641 12.0989 7.62147C12.0989 7.60998 12.116 7.59525 12.1368 7.58875C12.1576 7.58225 12.1861 7.55575 12.2002 7.52987C12.2143 7.50398 12.2447 7.46994 12.2677 7.45422C12.3356 7.40792 12.5928 7.15409 12.5928 7.13337C12.5928 7.12289 12.6113 7.10852 12.6339 7.10145C12.6565 7.09438 12.6751 7.07994 12.6751 7.06938C12.6751 7.0588 12.7038 7.02523 12.7389 6.99476C12.7916 6.94907 12.935 6.80868 13.2461 6.49821C13.2659 6.47843 13.3492 6.39834 13.4312 6.32023C13.5133 6.24211 13.5804 6.17044 13.5804 6.16096C13.5804 6.15148 13.6013 6.13012 13.6267 6.11349C13.6852 6.0753 14.0743 5.70076 14.0743 5.68262C14.0743 5.67519 14.1224 5.6267 14.1813 5.57485C14.3776 5.40201 14.5681 5.20544 14.5681 5.17569C14.5681 5.15951 14.5782 5.14628 14.5905 5.14628C14.6141 5.14628 14.6875 5.08182 14.9199 4.85687C14.998 4.78127 15.0619 4.71032 15.0619 4.69922C15.0619 4.68809 15.0773 4.67318 15.0962 4.66605C15.1404 4.64933 16.0496 3.75368 16.0496 3.72681C16.0496 3.71563 16.0646 3.70082 16.0829 3.69389C16.1277 3.67697 17.0259 2.79358 17.043 2.74961C17.0505 2.73056 17.0662 2.71496 17.0781 2.71496C17.1101 2.71496 19.5064 0.348509 19.5064 0.316922C19.5064 0.274293 19.4336 0.202609 19.3902 0.202609C19.3686 0.202609 19.3376 0.184374 19.3212 0.162087C19.302 0.135748 19.268 0.121566 19.2241 0.121566C19.187 0.121566 19.1566 0.112448 19.1566 0.101305C19.1566 0.0901611 19.1381 0.0810437 19.1155 0.0810437C19.0928 0.0810437 19.0743 0.0719263 19.0743 0.0607828C19.0743 0.0496393 19.028 0.0405219 18.9714 0.0405219C18.9149 0.0405219 18.8686 0.0314044 18.8686 0.0202609C18.8686 0.00678741 15.9021 0 10.0104 0C4.11872 0 1.15228 0.00678741 1.15228 0.0202609ZM0 6.76253C0 11.6086 0.00376511 12.3011 0.0301647 12.311C0.0608635 12.3227 0.29484 12.1324 0.41943 11.9945C0.454678 11.9555 0.547043 11.8643 0.62472 11.7919C0.79254 11.6353 1.63216 10.8222 2.44859 10.0254C2.77113 9.71062 3.10736 9.39021 3.1958 9.31338C3.28422 9.23655 3.37681 9.1429 3.40157 9.10528C3.4263 9.06766 3.45749 9.03676 3.47089 9.03662C3.48426 9.03649 3.50109 9.01814 3.50828 8.99585C3.51546 8.97356 3.53398 8.95533 3.54943 8.95533C3.56488 8.95533 3.5834 8.93709 3.59058 8.91481C3.59776 8.89252 3.61176 8.87428 3.62165 8.87428C3.65095 8.87428 3.87737 8.65988 3.90845 8.60273C3.92419 8.57377 3.94876 8.55011 3.96306 8.55011C3.97736 8.55011 3.99493 8.53188 4.00211 8.50959C4.00929 8.4873 4.02252 8.46907 4.03151 8.46907C4.05256 8.46907 4.24397 8.30195 4.35123 8.18993C4.39687 8.14226 4.4893 8.05108 4.5566 7.98732C4.62391 7.92354 4.73502 7.8135 4.80352 7.74275C4.87202 7.67202 4.97432 7.57173 5.03087 7.51988C5.18838 7.37548 5.43217 7.12593 5.43217 7.10909C5.43217 7.10083 5.4488 7.08885 5.46913 7.08251C5.52789 7.06413 5.76139 6.83026 5.76139 6.78976C5.76139 6.76956 5.6688 6.66499 5.55563 6.55739C5.44246 6.4498 5.34879 6.35496 5.34748 6.34665C5.34616 6.33835 5.2639 6.2586 5.16468 6.16945C5.06546 6.0803 4.98319 5.99673 4.98188 5.98372C4.98056 5.97073 4.96994 5.95695 4.95827 5.95313C4.92665 5.94275 2.75724 3.80713 2.75724 3.78636C2.75724 3.77656 2.74888 3.76853 2.73868 3.76853C2.72847 3.76853 2.67524 3.72309 2.62036 3.66755C2.56551 3.612 2.50874 3.56641 2.49425 3.56625C2.47974 3.56606 2.46186 3.54996 2.4545 3.53047C2.43779 3.48622 1.03656 2.10714 1.00828 2.10714C0.996946 2.10714 0.987667 2.0978 0.987667 2.08639C0.987667 2.06852 0.666674 1.74663 0.506199 1.60355C0.476753 1.57731 0.452681 1.54311 0.452681 1.52757C0.452681 1.51203 0.443483 1.49931 0.432228 1.49931C0.420994 1.49931 0.348131 1.43549 0.270311 1.35748C0.192492 1.27948 0.118355 1.21566 0.105556 1.21566C0.0927792 1.21566 0.0823059 1.20646 0.0823059 1.19523C0.0823059 1.18312 0.0655556 1.1851 0.041151 1.2001C0.000164032 1.2253 0 1.24734 0 6.76253ZM19.8607 1.23426C19.85 1.26325 19.4826 1.62087 19.4636 1.62087C19.4532 1.62087 19.4447 1.62865 19.4447 1.63818C19.4447 1.6477 19.3608 1.7366 19.2582 1.83572C19.1556 1.93486 19.0514 2.03728 19.0267 2.06335C18.9461 2.14827 18.5675 2.52111 18.5064 2.57583C18.4736 2.60517 18.2873 2.78752 18.0925 2.98105C17.8976 3.17458 16.9602 4.09822 16.0093 5.0336C13.9636 7.04586 14.1602 6.72432 14.6703 7.22302C14.6817 7.23416 14.7907 7.34159 14.9125 7.46173C15.0343 7.58188 15.1849 7.72776 15.2471 7.78591C15.3094 7.84406 15.4529 7.98659 15.566 8.10265C15.6792 8.21872 15.7889 8.32813 15.8097 8.34578C15.8488 8.37891 16.3944 8.91436 16.6664 9.18653C16.751 9.2712 16.8366 9.34559 16.8567 9.35188C16.8768 9.35814 16.8932 9.37572 16.8932 9.39094C16.8932 9.40615 16.9117 9.42439 16.9344 9.43146C16.957 9.43853 16.9755 9.45442 16.9755 9.46677C16.9755 9.47911 17.2001 9.70918 17.4745 9.97802C17.7489 10.2469 18.0075 10.5028 18.049 10.5468C18.0906 10.5909 18.2017 10.7008 18.2959 10.7912C18.3902 10.8817 18.5103 11.0002 18.5628 11.0546C18.6152 11.1091 18.7051 11.1901 18.7625 11.2347C18.8199 11.2793 18.8673 11.3227 18.8677 11.3312C18.8707 11.3865 19.9593 12.413 19.9865 12.3863C20.0052 12.3678 20.0042 1.22623 19.9854 1.20781C19.968 1.19065 19.8691 1.2116 19.8607 1.23426ZM13.4254 7.59927C13.3579 7.66692 13.2252 7.79685 13.1305 7.88798C13.0358 7.97914 12.9247 8.08938 12.8836 8.13296C12.8425 8.17656 12.7407 8.27685 12.6574 8.35583C12.5741 8.43483 12.463 8.54417 12.4105 8.59882C12.3579 8.65346 12.2651 8.74464 12.2042 8.80143C12.0719 8.9248 11.9227 9.07191 11.773 9.2267C11.7126 9.28917 11.6501 9.34029 11.6341 9.34029C11.6182 9.34029 11.6051 9.3494 11.6051 9.36055C11.6051 9.37169 11.5912 9.38081 11.5743 9.38081C11.5573 9.38081 11.5041 9.41728 11.4561 9.46185C11.408 9.50643 11.3591 9.5429 11.3474 9.5429C11.3357 9.5429 11.3128 9.56113 11.2964 9.58342C11.2801 9.6057 11.2523 9.62394 11.2347 9.62394C11.2171 9.62394 11.1893 9.64217 11.173 9.66446C11.1567 9.68675 11.1269 9.70498 11.1067 9.70498C11.0866 9.70498 11.0701 9.7141 11.0701 9.72524C11.0701 9.73639 11.0516 9.7455 11.029 9.7455C11.0063 9.7455 10.9878 9.75259 10.9878 9.76127C10.9878 9.76996 10.9076 9.78783 10.8095 9.801C10.7114 9.81417 10.6258 9.8335 10.6192 9.84397C10.6125 9.85445 10.5516 9.8679 10.4837 9.87386C10.3041 9.88962 10.2059 9.90952 10.2059 9.93006C10.2059 9.95735 9.84649 9.95168 9.75288 9.92293C9.7078 9.90907 9.67091 9.89084 9.67091 9.88241C9.67091 9.87396 9.63155 9.86701 9.58346 9.86695C9.53537 9.86689 9.45959 9.85688 9.41508 9.84472C9.37058 9.83255 9.30576 9.81925 9.27105 9.81518C9.11372 9.79672 8.97131 9.75296 8.97131 9.72308C8.97131 9.71313 8.95125 9.70498 8.92674 9.70498C8.90224 9.70498 8.8675 9.69193 8.84958 9.67601C8.83166 9.66006 8.7911 9.62359 8.75948 9.59497C8.72783 9.56632 8.68849 9.5429 8.67203 9.5429C8.65557 9.5429 8.64209 9.53439 8.64209 9.52399C8.64209 9.5136 8.62328 9.49923 8.60028 9.49204C8.57727 9.48485 8.53793 9.45916 8.51283 9.43495C8.48772 9.41075 8.44174 9.37799 8.4106 9.36219C8.37947 9.34639 8.35402 9.32586 8.35402 9.3166C8.35402 9.30734 8.33984 9.29976 8.32252 9.29976C8.30517 9.29976 8.28499 9.28433 8.27764 9.26548C8.26021 9.22077 7.84661 8.8135 7.81862 8.8135C7.80683 8.8135 7.79115 8.79806 7.78381 8.77922C7.76286 8.72551 7.34991 8.32724 7.31516 8.32724C7.29804 8.32724 7.28405 8.31346 7.28405 8.29661C7.28405 8.25667 6.86188 7.84098 6.82132 7.84098C6.8042 7.84098 6.79021 7.8273 6.79021 7.81059C6.79021 7.76129 6.49196 7.47628 6.44037 7.47628C6.39356 7.47628 6.25656 7.6078 6.2557 7.65356C6.25543 7.6675 6.23671 7.67889 6.21407 7.67889C6.18665 7.67889 6.17292 7.6924 6.17292 7.71941C6.17292 7.74298 6.1592 7.75993 6.14012 7.75993C6.1221 7.75993 6.10249 7.77817 6.09658 7.80046C6.09066 7.82274 6.07275 7.84098 6.05681 7.84098C6.02407 7.84098 5.8437 8.01139 5.8437 8.04235C5.8437 8.05339 5.82518 8.07218 5.80255 8.08411C5.77991 8.09604 5.76139 8.11916 5.76139 8.13547C5.76139 8.1518 5.74664 8.16515 5.72859 8.16515C5.71057 8.16515 5.69096 8.18339 5.68505 8.20567C5.67909 8.2281 5.65699 8.2462 5.63553 8.2462C5.61051 8.2462 5.59678 8.26054 5.59678 8.28672C5.59678 8.30953 5.58306 8.32724 5.56538 8.32724C5.53347 8.32724 5.34986 8.49526 5.34986 8.52448C5.34986 8.53325 5.32122 8.56312 5.28622 8.59085C5.1685 8.68416 5.10295 8.74857 5.10295 8.77097C5.10295 8.78323 5.09558 8.79324 5.08655 8.79324C5.06196 8.79324 4.98204 8.85648 4.92072 8.92445C4.89081 8.95762 4.80844 9.04282 4.73772 9.11375C4.66697 9.18468 4.60911 9.25102 4.60911 9.26113C4.60911 9.27124 4.60175 9.2795 4.59271 9.2795C4.57055 9.2795 4.4887 9.34144 4.4473 9.38954C4.3531 9.49899 4.05429 9.78276 3.98682 9.82687C3.94445 9.85455 3.90974 9.88778 3.90966 9.90068C3.90952 9.9252 3.5683 10.2718 3.54321 10.2729C3.51959 10.274 3.41568 10.3701 3.41568 10.3909C3.41568 10.4159 3.11298 10.718 3.08788 10.718C3.07734 10.718 2.7623 11.0189 2.38779 11.3866C2.01328 11.7544 1.70356 12.0553 1.69951 12.0553C1.68091 12.0553 1.39919 12.3394 1.39919 12.3582C1.39919 12.3699 1.38531 12.3794 1.36833 12.3794C1.35135 12.3794 1.33747 12.3872 1.33747 12.3967C1.33747 12.4148 1.22067 12.5415 1.20399 12.5415C1.18337 12.5415 0.905361 12.8228 0.905361 12.8436C0.905361 12.8558 0.89209 12.8657 0.875875 12.8657C0.859661 12.8657 0.840527 12.8839 0.833345 12.9062C0.826164 12.9285 0.812395 12.9467 0.802746 12.9467C0.793095 12.9467 0.729639 13.0014 0.661737 13.0683C0.593836 13.1352 0.532497 13.1899 0.525417 13.1899C0.499102 13.1899 0.411528 13.2904 0.411528 13.3206C0.411528 13.3384 0.39377 13.3519 0.370375 13.3519C0.34379 13.3519 0.329222 13.3655 0.329222 13.3901C0.329222 13.4118 0.310621 13.4331 0.286074 13.4394C0.240086 13.4512 0.328133 13.5951 0.381365 13.5951C0.393072 13.5951 0.418627 13.6217 0.438152 13.6542C0.45768 13.6868 0.501345 13.7255 0.535192 13.7403C0.569019 13.755 0.596714 13.7739 0.596714 13.7824C0.596714 13.7908 0.610605 13.7977 0.627581 13.7977C0.644556 13.7977 0.658445 13.8068 0.658445 13.818C0.658445 13.8291 0.668156 13.8382 0.680008 13.8382C0.691879 13.8382 0.739904 13.8564 0.786758 13.8787C0.833611 13.901 0.896431 13.9193 0.926371 13.9193C0.956308 13.9193 0.987154 13.9255 0.994911 13.9331C1.06294 14.0001 1.00435 13.9997 10.0143 14C15.8937 14.0002 18.8704 13.9935 18.8788 13.98C18.8858 13.9689 18.9188 13.9598 18.9521 13.9598C18.9854 13.9598 19.0126 13.9507 19.0126 13.9395C19.0126 13.9284 19.0421 13.9193 19.0782 13.9193C19.1479 13.9193 19.3757 13.8161 19.4436 13.7538C19.4659 13.7334 19.4918 13.7166 19.5013 13.7166C19.6713 13.7166 19.7048 13.4939 19.5573 13.3439C19.4954 13.281 19.4447 13.2205 19.4447 13.2097C19.4447 13.1988 19.4308 13.1899 19.4138 13.1899C19.3969 13.1899 19.383 13.1759 19.383 13.1588C19.383 13.1418 19.3668 13.1217 19.347 13.1142C19.3004 13.0967 18.9509 12.7532 18.9509 12.725C18.9509 12.7132 18.937 12.7036 18.92 12.7036C18.903 12.7036 18.8891 12.6896 18.8891 12.6726C18.8891 12.6555 18.8729 12.6356 18.8531 12.6283C18.8207 12.6163 18.5534 12.3566 18.4111 12.1987C18.3801 12.1644 18.3489 12.1363 18.3418 12.1363C18.3204 12.1363 17.9632 11.7729 17.9632 11.7511C17.9632 11.7401 17.9542 11.7311 17.9432 11.7311C17.9322 11.7311 17.1953 11.0154 16.3057 10.1406C15.4161 9.26583 14.6797 8.55011 14.6693 8.55011C14.6589 8.55011 14.6504 8.54051 14.6504 8.52876C14.6504 8.51702 14.4351 8.29887 14.172 8.04399C13.9089 7.78911 13.6712 7.5571 13.6439 7.52843C13.5752 7.4564 13.5644 7.45991 13.4254 7.59927Z" fill="#F9F9F9"/>
</svg>
